<?xml version="1.0" encoding="utf-8" standalone="no"?>
<!DOCTYPE svg PUBLIC "-//W3C//DTD SVG 1.1//EN"
  "http://www.w3.org/Graphics/SVG/1.1/DTD/svg11.dtd">
<!-- Created with matplotlib (https://matplotlib.org/) -->
<svg height="144pt" version="1.1" viewBox="0 0 864 144" width="864pt" xmlns="http://www.w3.org/2000/svg" xmlns:xlink="http://www.w3.org/1999/xlink">
 <metadata>
  <rdf:RDF xmlns:cc="http://creativecommons.org/ns#" xmlns:dc="http://purl.org/dc/elements/1.1/" xmlns:rdf="http://www.w3.org/1999/02/22-rdf-syntax-ns#">
   <cc:Work>
    <dc:type rdf:resource="http://purl.org/dc/dcmitype/StillImage"/>
    <dc:date>2021-02-11T11:09:38.149416</dc:date>
    <dc:format>image/svg+xml</dc:format>
    <dc:creator>
     <cc:Agent>
      <dc:title>Matplotlib v3.3.2, https://matplotlib.org/</dc:title>
     </cc:Agent>
    </dc:creator>
   </cc:Work>
  </rdf:RDF>
 </metadata>
 <defs>
  <style type="text/css">*{stroke-linecap:butt;stroke-linejoin:round;}</style>
 </defs>
 <g id="figure_1">
  <g id="patch_1">
   <path d="M 0 144 
L 864 144 
L 864 0 
L 0 0 
z
" style="fill:#ffffff;"/>
  </g>
  <g id="axes_1">
   <g id="line2d_1">
    <path clip-path="url(#p5dfdfae887)" d="M 121.834711 123.086179 
L 134.348519 122.933605 
L 141.300635 122.679594 
L 146.862328 122.282764 
L 151.033598 121.799987 
L 155.204867 121.085588 
L 157.985714 120.439624 
L 160.76656 119.624043 
L 163.547406 118.606124 
L 166.328253 117.35039 
L 169.109099 115.819432 
L 171.889946 113.975076 
L 174.670792 111.779901 
L 177.451638 109.199113 
L 180.232485 106.202731 
L 183.013331 102.768009 
L 185.794177 98.881996 
L 188.575024 94.544088 
L 191.35587 89.768402 
L 194.136717 84.585788 
L 198.307986 76.161288 
L 203.869679 64.119506 
L 210.821795 48.971087 
L 213.602641 43.297061 
L 216.383488 38.052448 
L 219.164334 33.37434 
L 221.94518 29.390505 
L 223.335604 27.694889 
L 224.726027 26.213615 
L 226.11645 24.957539 
L 227.506873 23.935957 
L 228.897296 23.156489 
L 230.28772 22.624985 
L 231.678143 22.345451 
L 233.068566 22.32 
L 234.458989 22.548825 
L 235.849412 23.030196 
L 237.239836 23.760481 
L 238.630259 24.734194 
L 240.020682 25.944063 
L 241.411105 27.381118 
L 242.801528 29.034805 
L 244.191951 30.893112 
L 246.972798 35.169148 
L 249.753644 40.089845 
L 252.534491 45.522997 
L 256.70576 54.328699 
L 267.829146 78.473988 
L 272.000415 86.704946 
L 274.781262 91.72963 
L 277.562108 96.33293 
L 280.342954 100.4909 
L 283.123801 104.195577 
L 285.904647 107.452802 
L 288.685494 110.279756 
L 291.46634 112.702379 
L 294.247186 114.752858 
L 297.028033 116.467284 
L 299.808879 117.883584 
L 302.589725 119.039789 
L 305.370572 119.972655 
L 308.151418 120.716637 
L 312.322688 121.546354 
L 316.493957 122.11278 
L 322.05565 122.583717 
L 329.007766 122.889561 
L 338.740728 123.056478 
L 359.597076 123.117353 
L 398.528926 123.119998 
L 398.528926 123.119998 
" style="fill:none;stroke:#1f77b4;stroke-linecap:square;stroke-width:1.5;"/>
   </g>
   <g id="line2d_2">
    <path clip-path="url(#p5dfdfae887)" d="M 121.834711 123.12 
L 351.254537 123.047328 
L 355.425807 122.785314 
L 358.206653 122.363023 
L 360.987499 121.663398 
L 367.939615 119.430924 
L 369.330039 119.184568 
L 370.720462 119.088 
L 372.110885 119.152638 
L 373.501308 119.37082 
L 376.282155 120.154043 
L 381.843847 121.976964 
L 384.624694 122.563165 
L 387.40554 122.889216 
L 391.57681 123.07452 
L 398.528926 123.118647 
L 398.528926 123.118647 
" style="fill:none;stroke:#ff7f0e;stroke-linecap:square;stroke-width:1.5;"/>
   </g>
   <g id="line2d_3">
    <path clip-path="url(#p5dfdfae887)" d="M 121.834711 123.086179 
L 134.348519 122.933605 
L 141.300635 122.679594 
L 146.862328 122.282764 
L 151.033598 121.799987 
L 155.204867 121.085588 
L 157.985714 120.439624 
L 160.76656 119.624043 
L 163.547406 118.606124 
L 166.328253 117.35039 
L 169.109099 115.819432 
L 171.889946 113.975076 
L 174.670792 111.779901 
L 177.451638 109.199113 
L 180.232485 106.202731 
L 183.013331 102.768009 
L 185.794177 98.881996 
L 188.575024 94.544088 
L 191.35587 89.768402 
L 194.136717 84.585788 
L 198.307986 76.161288 
L 203.869679 64.119506 
L 210.821795 48.971087 
L 213.602641 43.297061 
L 216.383488 38.052448 
L 219.164334 33.37434 
L 221.94518 29.390505 
L 223.335604 27.694889 
L 224.726027 26.213615 
L 226.11645 24.957539 
L 227.506873 23.935957 
L 228.897296 23.156489 
L 230.28772 22.624985 
L 231.678143 22.345451 
L 233.068566 22.32 
L 234.458989 22.548825 
L 235.849412 23.030196 
L 237.239836 23.760481 
L 238.630259 24.734194 
L 240.020682 25.944063 
L 241.411105 27.381118 
L 242.801528 29.034805 
L 244.191951 30.893112 
L 246.972798 35.169148 
L 249.753644 40.089845 
L 252.534491 45.522997 
L 256.70576 54.328699 
L 267.829146 78.473988 
L 272.000415 86.704946 
L 274.781262 91.72963 
L 277.562108 96.33293 
L 280.342954 100.4909 
L 283.123801 104.195577 
L 285.904647 107.452802 
L 288.685494 110.279756 
L 291.46634 112.702379 
L 294.247186 114.752858 
L 297.028033 116.467284 
L 299.808879 117.883584 
L 302.589725 119.039789 
L 305.370572 119.972655 
L 308.151418 120.716637 
L 312.322688 121.546354 
L 316.493957 122.11278 
L 322.05565 122.583717 
L 329.007766 122.889561 
L 338.740728 123.056394 
L 349.864114 123.067193 
L 354.035384 122.904013 
L 356.81623 122.602212 
L 359.597076 122.04587 
L 362.377923 121.216606 
L 366.549192 119.797985 
L 367.939615 119.430291 
L 369.330039 119.184073 
L 370.720462 119.087615 
L 372.110885 119.152339 
L 373.501308 119.370588 
L 376.282155 120.153905 
L 381.843847 121.976916 
L 384.624694 122.563137 
L 387.40554 122.8892 
L 391.57681 123.074513 
L 398.528926 123.118646 
L 398.528926 123.118646 
" style="fill:none;stroke:#2ca02c;stroke-dasharray:1.5,2.475;stroke-dashoffset:0;stroke-width:1.5;"/>
   </g>
   <g id="text_1">
    <!-- (a) -->
    <g transform="translate(251.823068 142.55925)scale(0.12 -0.12)">
     <defs>
      <path d="M 31 75.875 
Q 24.46875 64.65625 21.28125 53.65625 
Q 18.109375 42.671875 18.109375 31.390625 
Q 18.109375 20.125 21.3125 9.0625 
Q 24.515625 -2 31 -13.1875 
L 23.1875 -13.1875 
Q 15.875 -1.703125 12.234375 9.375 
Q 8.59375 20.453125 8.59375 31.390625 
Q 8.59375 42.28125 12.203125 53.3125 
Q 15.828125 64.359375 23.1875 75.875 
z
" id="DejaVuSans-40"/>
      <path d="M 34.28125 27.484375 
Q 23.390625 27.484375 19.1875 25 
Q 14.984375 22.515625 14.984375 16.5 
Q 14.984375 11.71875 18.140625 8.90625 
Q 21.296875 6.109375 26.703125 6.109375 
Q 34.1875 6.109375 38.703125 11.40625 
Q 43.21875 16.703125 43.21875 25.484375 
L 43.21875 27.484375 
z
M 52.203125 31.203125 
L 52.203125 0 
L 43.21875 0 
L 43.21875 8.296875 
Q 40.140625 3.328125 35.546875 0.953125 
Q 30.953125 -1.421875 24.3125 -1.421875 
Q 15.921875 -1.421875 10.953125 3.296875 
Q 6 8.015625 6 15.921875 
Q 6 25.140625 12.171875 29.828125 
Q 18.359375 34.515625 30.609375 34.515625 
L 43.21875 34.515625 
L 43.21875 35.40625 
Q 43.21875 41.609375 39.140625 45 
Q 35.0625 48.390625 27.6875 48.390625 
Q 23 48.390625 18.546875 47.265625 
Q 14.109375 46.140625 10.015625 43.890625 
L 10.015625 52.203125 
Q 14.9375 54.109375 19.578125 55.046875 
Q 24.21875 56 28.609375 56 
Q 40.484375 56 46.34375 49.84375 
Q 52.203125 43.703125 52.203125 31.203125 
z
" id="DejaVuSans-97"/>
      <path d="M 8.015625 75.875 
L 15.828125 75.875 
Q 23.140625 64.359375 26.78125 53.3125 
Q 30.421875 42.28125 30.421875 31.390625 
Q 30.421875 20.453125 26.78125 9.375 
Q 23.140625 -1.703125 15.828125 -13.1875 
L 8.015625 -13.1875 
Q 14.5 -2 17.703125 9.0625 
Q 20.90625 20.125 20.90625 31.390625 
Q 20.90625 42.671875 17.703125 53.65625 
Q 14.5 64.65625 8.015625 75.875 
z
" id="DejaVuSans-41"/>
     </defs>
     <use xlink:href="#DejaVuSans-40"/>
     <use x="39.013672" xlink:href="#DejaVuSans-97"/>
     <use x="100.292969" xlink:href="#DejaVuSans-41"/>
    </g>
   </g>
  </g>
  <g id="axes_2">
   <g id="line2d_4">
    <path clip-path="url(#p5ba4d31683)" d="M 487.071074 123.086179 
L 499.584883 122.933608 
L 506.536999 122.679602 
L 512.098692 122.28278 
L 516.269961 121.800011 
L 520.441231 121.085626 
L 523.222077 120.439673 
L 526.002924 119.624108 
L 528.78377 118.606207 
L 531.564616 117.350496 
L 534.345463 115.819567 
L 537.126309 113.975245 
L 539.907156 111.78011 
L 542.688002 109.19937 
L 545.468848 106.203043 
L 548.249695 102.768384 
L 551.030541 98.882443 
L 553.811388 94.544615 
L 556.592234 89.769018 
L 559.37308 84.586499 
L 563.54435 76.162154 
L 569.106043 64.120595 
L 576.058159 48.972456 
L 578.839005 43.298534 
L 581.619851 38.054018 
L 584.400698 33.375996 
L 587.181544 29.392235 
L 588.571967 27.69665 
L 589.96239 26.215403 
L 591.352814 24.95935 
L 592.743237 23.937787 
L 594.13366 23.158333 
L 595.524083 22.626839 
L 596.914506 22.34731 
L 598.30493 22.32186 
L 599.695353 22.550681 
L 601.085776 23.032042 
L 602.476199 23.762314 
L 603.866622 24.73601 
L 605.257046 25.945856 
L 606.647469 27.382885 
L 608.037892 29.036541 
L 609.428315 30.894814 
L 612.209162 35.170771 
L 614.990008 40.091377 
L 617.770854 45.524429 
L 621.942124 54.329968 
L 633.065509 78.474812 
L 637.236779 86.705618 
L 640.017625 91.730209 
L 642.798472 96.333425 
L 645.579318 100.491318 
L 648.360164 104.195926 
L 651.141011 107.453091 
L 653.921857 110.279993 
L 656.702704 112.702571 
L 659.48355 114.753013 
L 662.264396 116.467407 
L 665.045243 117.883681 
L 667.826089 119.039865 
L 670.606936 119.972713 
L 673.387782 120.716681 
L 677.559051 121.546384 
L 681.730321 122.112799 
L 687.292014 122.583727 
L 694.24413 122.889565 
L 703.977092 123.056479 
L 724.83344 123.117353 
L 763.765289 123.119998 
L 763.765289 123.119998 
" style="fill:none;stroke:#1f77b4;stroke-linecap:square;stroke-width:1.5;"/>
   </g>
   <g id="line2d_5">
    <path clip-path="url(#p5ba4d31683)" d="M 487.071074 123.12 
L 606.647469 123.018458 
L 609.428315 122.841184 
L 612.209162 122.468671 
L 614.990008 121.825517 
L 619.161277 120.441209 
L 621.942124 119.565599 
L 623.332547 119.266458 
L 624.72297 119.107575 
L 626.113393 119.107575 
L 627.503817 119.266458 
L 630.284663 119.971338 
L 635.846356 121.825517 
L 638.627202 122.468671 
L 641.408049 122.841184 
L 645.579318 123.062324 
L 653.921857 123.119171 
L 763.765289 123.12 
L 763.765289 123.12 
" style="fill:none;stroke:#ff7f0e;stroke-linecap:square;stroke-width:1.5;"/>
   </g>
   <g id="line2d_6">
    <path clip-path="url(#p5ba4d31683)" d="M 487.071074 123.086179 
L 499.584883 122.933608 
L 506.536999 122.679602 
L 512.098692 122.28278 
L 516.269961 121.800011 
L 520.441231 121.085626 
L 523.222077 120.439673 
L 526.002924 119.624108 
L 528.78377 118.606207 
L 531.564616 117.350496 
L 534.345463 115.819567 
L 537.126309 113.975245 
L 539.907156 111.78011 
L 542.688002 109.19937 
L 545.468848 106.203043 
L 548.249695 102.768384 
L 551.030541 98.882443 
L 553.811388 94.544615 
L 556.592234 89.769018 
L 559.37308 84.586499 
L 563.54435 76.162154 
L 569.106043 64.120595 
L 576.058159 48.972456 
L 578.839005 43.298534 
L 581.619851 38.054018 
L 584.400698 33.375996 
L 587.181544 29.392234 
L 588.571967 27.696647 
L 589.96239 26.215395 
L 591.352814 24.959328 
L 592.743237 23.937729 
L 594.13366 23.158187 
L 595.524083 22.626484 
L 596.914506 22.346481 
L 598.30493 22.32 
L 599.695353 22.546673 
L 601.085776 23.023749 
L 602.476199 23.745831 
L 603.866622 24.704547 
L 605.257046 25.888181 
L 606.647469 27.281342 
L 609.428315 30.615998 
L 612.209162 34.519441 
L 614.990008 38.796894 
L 619.161277 45.710954 
L 621.942124 50.775567 
L 624.72297 56.421966 
L 627.503817 62.717646 
L 635.846356 82.753108 
L 638.627202 88.617085 
L 641.408049 93.807567 
L 644.188895 98.367343 
L 646.969741 102.368751 
L 649.750588 105.871307 
L 652.531434 108.917019 
L 655.31228 111.539573 
L 658.093127 113.772062 
L 660.873973 115.649858 
L 663.65482 117.210415 
L 666.435666 118.491943 
L 669.216512 119.531989 
L 671.997359 120.366265 
L 676.168628 121.303231 
L 680.339898 121.948325 
L 684.511167 122.38134 
L 690.07286 122.734574 
L 698.415399 122.985326 
L 712.319631 123.100925 
L 762.374866 123.119998 
L 763.765289 123.119998 
L 763.765289 123.119998 
" style="fill:none;stroke:#2ca02c;stroke-dasharray:1.5,2.475;stroke-dashoffset:0;stroke-width:1.5;"/>
   </g>
   <g id="text_2">
    <!-- (b) -->
    <g transform="translate(616.927244 142.55925)scale(0.12 -0.12)">
     <defs>
      <path d="M 48.6875 27.296875 
Q 48.6875 37.203125 44.609375 42.84375 
Q 40.53125 48.484375 33.40625 48.484375 
Q 26.265625 48.484375 22.1875 42.84375 
Q 18.109375 37.203125 18.109375 27.296875 
Q 18.109375 17.390625 22.1875 11.75 
Q 26.265625 6.109375 33.40625 6.109375 
Q 40.53125 6.109375 44.609375 11.75 
Q 48.6875 17.390625 48.6875 27.296875 
z
M 18.109375 46.390625 
Q 20.953125 51.265625 25.265625 53.625 
Q 29.59375 56 35.59375 56 
Q 45.5625 56 51.78125 48.09375 
Q 58.015625 40.1875 58.015625 27.296875 
Q 58.015625 14.40625 51.78125 6.484375 
Q 45.5625 -1.421875 35.59375 -1.421875 
Q 29.59375 -1.421875 25.265625 0.953125 
Q 20.953125 3.328125 18.109375 8.203125 
L 18.109375 0 
L 9.078125 0 
L 9.078125 75.984375 
L 18.109375 75.984375 
z
" id="DejaVuSans-98"/>
     </defs>
     <use xlink:href="#DejaVuSans-40"/>
     <use x="39.013672" xlink:href="#DejaVuSans-98"/>
     <use x="102.490234" xlink:href="#DejaVuSans-41"/>
    </g>
   </g>
   <g id="legend_1">
    <g id="patch_2">
     <path d="M 678.945312 69.314375 
L 770.6 69.314375 
Q 772.6 69.314375 772.6 67.314375 
L 772.6 24.28 
Q 772.6 22.28 770.6 22.28 
L 678.945312 22.28 
Q 676.945312 22.28 676.945312 24.28 
L 676.945312 67.314375 
Q 676.945312 69.314375 678.945312 69.314375 
z
" style="fill:#ffffff;opacity:0.8;stroke:#cccccc;stroke-linejoin:miter;"/>
    </g>
    <g id="line2d_7">
     <path d="M 680.945312 30.378438 
L 700.945312 30.378438 
" style="fill:none;stroke:#1f77b4;stroke-linecap:square;stroke-width:1.5;"/>
    </g>
    <g id="line2d_8"/>
    <g id="text_3">
     <!-- Background -->
     <g transform="translate(708.945312 33.878438)scale(0.1 -0.1)">
      <defs>
       <path d="M 19.671875 34.8125 
L 19.671875 8.109375 
L 35.5 8.109375 
Q 43.453125 8.109375 47.28125 11.40625 
Q 51.125 14.703125 51.125 21.484375 
Q 51.125 28.328125 47.28125 31.5625 
Q 43.453125 34.8125 35.5 34.8125 
z
M 19.671875 64.796875 
L 19.671875 42.828125 
L 34.28125 42.828125 
Q 41.5 42.828125 45.03125 45.53125 
Q 48.578125 48.25 48.578125 53.8125 
Q 48.578125 59.328125 45.03125 62.0625 
Q 41.5 64.796875 34.28125 64.796875 
z
M 9.8125 72.90625 
L 35.015625 72.90625 
Q 46.296875 72.90625 52.390625 68.21875 
Q 58.5 63.53125 58.5 54.890625 
Q 58.5 48.1875 55.375 44.234375 
Q 52.25 40.28125 46.1875 39.3125 
Q 53.46875 37.75 57.5 32.78125 
Q 61.53125 27.828125 61.53125 20.40625 
Q 61.53125 10.640625 54.890625 5.3125 
Q 48.25 0 35.984375 0 
L 9.8125 0 
z
" id="DejaVuSans-66"/>
       <path d="M 48.78125 52.59375 
L 48.78125 44.1875 
Q 44.96875 46.296875 41.140625 47.34375 
Q 37.3125 48.390625 33.40625 48.390625 
Q 24.65625 48.390625 19.8125 42.84375 
Q 14.984375 37.3125 14.984375 27.296875 
Q 14.984375 17.28125 19.8125 11.734375 
Q 24.65625 6.203125 33.40625 6.203125 
Q 37.3125 6.203125 41.140625 7.25 
Q 44.96875 8.296875 48.78125 10.40625 
L 48.78125 2.09375 
Q 45.015625 0.34375 40.984375 -0.53125 
Q 36.96875 -1.421875 32.421875 -1.421875 
Q 20.0625 -1.421875 12.78125 6.34375 
Q 5.515625 14.109375 5.515625 27.296875 
Q 5.515625 40.671875 12.859375 48.328125 
Q 20.21875 56 33.015625 56 
Q 37.15625 56 41.109375 55.140625 
Q 45.0625 54.296875 48.78125 52.59375 
z
" id="DejaVuSans-99"/>
       <path d="M 9.078125 75.984375 
L 18.109375 75.984375 
L 18.109375 31.109375 
L 44.921875 54.6875 
L 56.390625 54.6875 
L 27.390625 29.109375 
L 57.625 0 
L 45.90625 0 
L 18.109375 26.703125 
L 18.109375 0 
L 9.078125 0 
z
" id="DejaVuSans-107"/>
       <path d="M 45.40625 27.984375 
Q 45.40625 37.75 41.375 43.109375 
Q 37.359375 48.484375 30.078125 48.484375 
Q 22.859375 48.484375 18.828125 43.109375 
Q 14.796875 37.75 14.796875 27.984375 
Q 14.796875 18.265625 18.828125 12.890625 
Q 22.859375 7.515625 30.078125 7.515625 
Q 37.359375 7.515625 41.375 12.890625 
Q 45.40625 18.265625 45.40625 27.984375 
z
M 54.390625 6.78125 
Q 54.390625 -7.171875 48.1875 -13.984375 
Q 42 -20.796875 29.203125 -20.796875 
Q 24.46875 -20.796875 20.265625 -20.09375 
Q 16.0625 -19.390625 12.109375 -17.921875 
L 12.109375 -9.1875 
Q 16.0625 -11.328125 19.921875 -12.34375 
Q 23.78125 -13.375 27.78125 -13.375 
Q 36.625 -13.375 41.015625 -8.765625 
Q 45.40625 -4.15625 45.40625 5.171875 
L 45.40625 9.625 
Q 42.625 4.78125 38.28125 2.390625 
Q 33.9375 0 27.875 0 
Q 17.828125 0 11.671875 7.65625 
Q 5.515625 15.328125 5.515625 27.984375 
Q 5.515625 40.671875 11.671875 48.328125 
Q 17.828125 56 27.875 56 
Q 33.9375 56 38.28125 53.609375 
Q 42.625 51.21875 45.40625 46.390625 
L 45.40625 54.6875 
L 54.390625 54.6875 
z
" id="DejaVuSans-103"/>
       <path d="M 41.109375 46.296875 
Q 39.59375 47.171875 37.8125 47.578125 
Q 36.03125 48 33.890625 48 
Q 26.265625 48 22.1875 43.046875 
Q 18.109375 38.09375 18.109375 28.8125 
L 18.109375 0 
L 9.078125 0 
L 9.078125 54.6875 
L 18.109375 54.6875 
L 18.109375 46.1875 
Q 20.953125 51.171875 25.484375 53.578125 
Q 30.03125 56 36.53125 56 
Q 37.453125 56 38.578125 55.875 
Q 39.703125 55.765625 41.0625 55.515625 
z
" id="DejaVuSans-114"/>
       <path d="M 30.609375 48.390625 
Q 23.390625 48.390625 19.1875 42.75 
Q 14.984375 37.109375 14.984375 27.296875 
Q 14.984375 17.484375 19.15625 11.84375 
Q 23.34375 6.203125 30.609375 6.203125 
Q 37.796875 6.203125 41.984375 11.859375 
Q 46.1875 17.53125 46.1875 27.296875 
Q 46.1875 37.015625 41.984375 42.703125 
Q 37.796875 48.390625 30.609375 48.390625 
z
M 30.609375 56 
Q 42.328125 56 49.015625 48.375 
Q 55.71875 40.765625 55.71875 27.296875 
Q 55.71875 13.875 49.015625 6.21875 
Q 42.328125 -1.421875 30.609375 -1.421875 
Q 18.84375 -1.421875 12.171875 6.21875 
Q 5.515625 13.875 5.515625 27.296875 
Q 5.515625 40.765625 12.171875 48.375 
Q 18.84375 56 30.609375 56 
z
" id="DejaVuSans-111"/>
       <path d="M 8.5 21.578125 
L 8.5 54.6875 
L 17.484375 54.6875 
L 17.484375 21.921875 
Q 17.484375 14.15625 20.5 10.265625 
Q 23.53125 6.390625 29.59375 6.390625 
Q 36.859375 6.390625 41.078125 11.03125 
Q 45.3125 15.671875 45.3125 23.6875 
L 45.3125 54.6875 
L 54.296875 54.6875 
L 54.296875 0 
L 45.3125 0 
L 45.3125 8.40625 
Q 42.046875 3.421875 37.71875 1 
Q 33.40625 -1.421875 27.6875 -1.421875 
Q 18.265625 -1.421875 13.375 4.4375 
Q 8.5 10.296875 8.5 21.578125 
z
M 31.109375 56 
z
" id="DejaVuSans-117"/>
       <path d="M 54.890625 33.015625 
L 54.890625 0 
L 45.90625 0 
L 45.90625 32.71875 
Q 45.90625 40.484375 42.875 44.328125 
Q 39.84375 48.1875 33.796875 48.1875 
Q 26.515625 48.1875 22.3125 43.546875 
Q 18.109375 38.921875 18.109375 30.90625 
L 18.109375 0 
L 9.078125 0 
L 9.078125 54.6875 
L 18.109375 54.6875 
L 18.109375 46.1875 
Q 21.34375 51.125 25.703125 53.5625 
Q 30.078125 56 35.796875 56 
Q 45.21875 56 50.046875 50.171875 
Q 54.890625 44.34375 54.890625 33.015625 
z
" id="DejaVuSans-110"/>
       <path d="M 45.40625 46.390625 
L 45.40625 75.984375 
L 54.390625 75.984375 
L 54.390625 0 
L 45.40625 0 
L 45.40625 8.203125 
Q 42.578125 3.328125 38.25 0.953125 
Q 33.9375 -1.421875 27.875 -1.421875 
Q 17.96875 -1.421875 11.734375 6.484375 
Q 5.515625 14.40625 5.515625 27.296875 
Q 5.515625 40.1875 11.734375 48.09375 
Q 17.96875 56 27.875 56 
Q 33.9375 56 38.25 53.625 
Q 42.578125 51.265625 45.40625 46.390625 
z
M 14.796875 27.296875 
Q 14.796875 17.390625 18.875 11.75 
Q 22.953125 6.109375 30.078125 6.109375 
Q 37.203125 6.109375 41.296875 11.75 
Q 45.40625 17.390625 45.40625 27.296875 
Q 45.40625 37.203125 41.296875 42.84375 
Q 37.203125 48.484375 30.078125 48.484375 
Q 22.953125 48.484375 18.875 42.84375 
Q 14.796875 37.203125 14.796875 27.296875 
z
" id="DejaVuSans-100"/>
      </defs>
      <use xlink:href="#DejaVuSans-66"/>
      <use x="68.603516" xlink:href="#DejaVuSans-97"/>
      <use x="129.882812" xlink:href="#DejaVuSans-99"/>
      <use x="184.863281" xlink:href="#DejaVuSans-107"/>
      <use x="242.773438" xlink:href="#DejaVuSans-103"/>
      <use x="306.25" xlink:href="#DejaVuSans-114"/>
      <use x="345.113281" xlink:href="#DejaVuSans-111"/>
      <use x="406.294922" xlink:href="#DejaVuSans-117"/>
      <use x="469.673828" xlink:href="#DejaVuSans-110"/>
      <use x="533.052734" xlink:href="#DejaVuSans-100"/>
     </g>
    </g>
    <g id="line2d_9">
     <path d="M 680.945312 45.056563 
L 700.945312 45.056563 
" style="fill:none;stroke:#ff7f0e;stroke-linecap:square;stroke-width:1.5;"/>
    </g>
    <g id="line2d_10"/>
    <g id="text_4">
     <!-- Features -->
     <g transform="translate(708.945312 48.556563)scale(0.1 -0.1)">
      <defs>
       <path d="M 9.8125 72.90625 
L 51.703125 72.90625 
L 51.703125 64.59375 
L 19.671875 64.59375 
L 19.671875 43.109375 
L 48.578125 43.109375 
L 48.578125 34.8125 
L 19.671875 34.8125 
L 19.671875 0 
L 9.8125 0 
z
" id="DejaVuSans-70"/>
       <path d="M 56.203125 29.59375 
L 56.203125 25.203125 
L 14.890625 25.203125 
Q 15.484375 15.921875 20.484375 11.0625 
Q 25.484375 6.203125 34.421875 6.203125 
Q 39.59375 6.203125 44.453125 7.46875 
Q 49.3125 8.734375 54.109375 11.28125 
L 54.109375 2.78125 
Q 49.265625 0.734375 44.1875 -0.34375 
Q 39.109375 -1.421875 33.890625 -1.421875 
Q 20.796875 -1.421875 13.15625 6.1875 
Q 5.515625 13.8125 5.515625 26.8125 
Q 5.515625 40.234375 12.765625 48.109375 
Q 20.015625 56 32.328125 56 
Q 43.359375 56 49.78125 48.890625 
Q 56.203125 41.796875 56.203125 29.59375 
z
M 47.21875 32.234375 
Q 47.125 39.59375 43.09375 43.984375 
Q 39.0625 48.390625 32.421875 48.390625 
Q 24.90625 48.390625 20.390625 44.140625 
Q 15.875 39.890625 15.1875 32.171875 
z
" id="DejaVuSans-101"/>
       <path d="M 18.3125 70.21875 
L 18.3125 54.6875 
L 36.8125 54.6875 
L 36.8125 47.703125 
L 18.3125 47.703125 
L 18.3125 18.015625 
Q 18.3125 11.328125 20.140625 9.421875 
Q 21.96875 7.515625 27.59375 7.515625 
L 36.8125 7.515625 
L 36.8125 0 
L 27.59375 0 
Q 17.1875 0 13.234375 3.875 
Q 9.28125 7.765625 9.28125 18.015625 
L 9.28125 47.703125 
L 2.6875 47.703125 
L 2.6875 54.6875 
L 9.28125 54.6875 
L 9.28125 70.21875 
z
" id="DejaVuSans-116"/>
       <path d="M 44.28125 53.078125 
L 44.28125 44.578125 
Q 40.484375 46.53125 36.375 47.5 
Q 32.28125 48.484375 27.875 48.484375 
Q 21.1875 48.484375 17.84375 46.4375 
Q 14.5 44.390625 14.5 40.28125 
Q 14.5 37.15625 16.890625 35.375 
Q 19.28125 33.59375 26.515625 31.984375 
L 29.59375 31.296875 
Q 39.15625 29.25 43.1875 25.515625 
Q 47.21875 21.78125 47.21875 15.09375 
Q 47.21875 7.46875 41.1875 3.015625 
Q 35.15625 -1.421875 24.609375 -1.421875 
Q 20.21875 -1.421875 15.453125 -0.5625 
Q 10.6875 0.296875 5.421875 2 
L 5.421875 11.28125 
Q 10.40625 8.6875 15.234375 7.390625 
Q 20.0625 6.109375 24.8125 6.109375 
Q 31.15625 6.109375 34.5625 8.28125 
Q 37.984375 10.453125 37.984375 14.40625 
Q 37.984375 18.0625 35.515625 20.015625 
Q 33.0625 21.96875 24.703125 23.78125 
L 21.578125 24.515625 
Q 13.234375 26.265625 9.515625 29.90625 
Q 5.8125 33.546875 5.8125 39.890625 
Q 5.8125 47.609375 11.28125 51.796875 
Q 16.75 56 26.8125 56 
Q 31.78125 56 36.171875 55.265625 
Q 40.578125 54.546875 44.28125 53.078125 
z
" id="DejaVuSans-115"/>
      </defs>
      <use xlink:href="#DejaVuSans-70"/>
      <use x="52.019531" xlink:href="#DejaVuSans-101"/>
      <use x="113.542969" xlink:href="#DejaVuSans-97"/>
      <use x="174.822266" xlink:href="#DejaVuSans-116"/>
      <use x="214.03125" xlink:href="#DejaVuSans-117"/>
      <use x="277.410156" xlink:href="#DejaVuSans-114"/>
      <use x="316.273438" xlink:href="#DejaVuSans-101"/>
      <use x="377.796875" xlink:href="#DejaVuSans-115"/>
     </g>
    </g>
    <g id="line2d_11">
     <path d="M 680.945312 59.734688 
L 700.945312 59.734688 
" style="fill:none;stroke:#2ca02c;stroke-dasharray:1.5,2.475;stroke-dashoffset:0;stroke-width:1.5;"/>
    </g>
    <g id="line2d_12"/>
    <g id="text_5">
     <!-- Observed -->
     <g transform="translate(708.945312 63.234688)scale(0.1 -0.1)">
      <defs>
       <path d="M 39.40625 66.21875 
Q 28.65625 66.21875 22.328125 58.203125 
Q 16.015625 50.203125 16.015625 36.375 
Q 16.015625 22.609375 22.328125 14.59375 
Q 28.65625 6.59375 39.40625 6.59375 
Q 50.140625 6.59375 56.421875 14.59375 
Q 62.703125 22.609375 62.703125 36.375 
Q 62.703125 50.203125 56.421875 58.203125 
Q 50.140625 66.21875 39.40625 66.21875 
z
M 39.40625 74.21875 
Q 54.734375 74.21875 63.90625 63.9375 
Q 73.09375 53.65625 73.09375 36.375 
Q 73.09375 19.140625 63.90625 8.859375 
Q 54.734375 -1.421875 39.40625 -1.421875 
Q 24.03125 -1.421875 14.8125 8.828125 
Q 5.609375 19.09375 5.609375 36.375 
Q 5.609375 53.65625 14.8125 63.9375 
Q 24.03125 74.21875 39.40625 74.21875 
z
" id="DejaVuSans-79"/>
       <path d="M 2.984375 54.6875 
L 12.5 54.6875 
L 29.59375 8.796875 
L 46.6875 54.6875 
L 56.203125 54.6875 
L 35.6875 0 
L 23.484375 0 
z
" id="DejaVuSans-118"/>
      </defs>
      <use xlink:href="#DejaVuSans-79"/>
      <use x="78.710938" xlink:href="#DejaVuSans-98"/>
      <use x="142.1875" xlink:href="#DejaVuSans-115"/>
      <use x="194.287109" xlink:href="#DejaVuSans-101"/>
      <use x="255.810547" xlink:href="#DejaVuSans-114"/>
      <use x="296.923828" xlink:href="#DejaVuSans-118"/>
      <use x="356.103516" xlink:href="#DejaVuSans-101"/>
      <use x="417.626953" xlink:href="#DejaVuSans-100"/>
     </g>
    </g>
   </g>
  </g>
 </g>
 <defs>
  <clipPath id="p5dfdfae887">
   <rect height="110.88" width="304.363636" x="108" y="17.28"/>
  </clipPath>
  <clipPath id="p5ba4d31683">
   <rect height="110.88" width="304.363636" x="473.236364" y="17.28"/>
  </clipPath>
 </defs>
</svg>
