<?xml version="1.0" encoding="UTF-8" standalone="no"?>
<svg
   xmlns:dc="http://purl.org/dc/elements/1.1/"
   xmlns:cc="http://creativecommons.org/ns#"
   xmlns:rdf="http://www.w3.org/1999/02/22-rdf-syntax-ns#"
   xmlns:svg="http://www.w3.org/2000/svg"
   xmlns="http://www.w3.org/2000/svg"
   xmlns:sodipodi="http://sodipodi.sourceforge.net/DTD/sodipodi-0.dtd"
   xmlns:inkscape="http://www.inkscape.org/namespaces/inkscape"
   sodipodi:docname="datascientists.svg"
   inkscape:version="1.0 (4035a4f, 2020-05-01)"
   id="svg3066"
   version="1.1"
   viewBox="0 0 90.131302 39.277687"
   height="39.277687mm"
   width="90.131302mm">
  <defs
     id="defs3060" />
  <sodipodi:namedview
     inkscape:window-maximized="0"
     inkscape:window-y="25"
     inkscape:window-x="45"
     inkscape:window-height="943"
     inkscape:window-width="1252"
     fit-margin-bottom="2"
     fit-margin-right="2"
     fit-margin-left="2"
     fit-margin-top="2"
     showgrid="false"
     inkscape:document-rotation="0"
     inkscape:current-layer="layer1"
     inkscape:document-units="mm"
     inkscape:cy="491.66683"
     inkscape:cx="340.58954"
     inkscape:zoom="0.5"
     inkscape:pageshadow="2"
     inkscape:pageopacity="0.0"
     borderopacity="1.0"
     bordercolor="#666666"
     pagecolor="#ffffff"
     id="base" />
  <metadata
     id="metadata3063">
    <rdf:RDF>
      <cc:Work
         rdf:about="">
        <dc:format>image/svg+xml</dc:format>
        <dc:type
           rdf:resource="http://purl.org/dc/dcmitype/StillImage" />
        <dc:title></dc:title>
      </cc:Work>
    </rdf:RDF>
  </metadata>
  <g
     transform="translate(-15.719017,-18.079817)"
     id="layer1"
     inkscape:groupmode="layer"
     inkscape:label="Layer 1">
    <g
       id="g2927"
       transform="matrix(0.35277777,0,0,0.35277777,17.719229,20.079725)">
      <path
         id="path2875"
         d="m 18.859,28.367 c -2.2461,0 -4.2422,-0.84766 -5.9336,-2.5273 -3.2344,-3.207 -4.707,-9.0898 -4.707,-13.199 0,-1.0195 0.14062,-1.9922 0.41797,-2.8906 0.27344,-0.88672 1.2148,-1.3828 2.1055,-1.1133 0.89062,0.27344 1.3867,1.2148 1.1133,2.1055 -0.17578,0.57812 -0.26562,1.2188 -0.26562,1.9023 0,3.543 1.2734,8.3945 3.7109,10.809 1.0625,1.0547 2.2305,1.6055 3.6094,1.5469 5.1914,-0.04297 7.3516,-8.0703 7.3516,-12.355 0,-0.68359 -0.08984,-1.3242 -0.26562,-1.9023 -0.27344,-0.89063 0.22266,-1.832 1.1133,-2.1055 0.89453,-0.26953 1.832,0.22656 2.1055,1.1133 0.27734,0.89844 0.41797,1.8711 0.41797,2.8906 0,6.4922 -3.3164,15.66 -10.688,15.727 h -0.08594 z" />
      <path
         id="path2877"
         d="m 10.242,11.93 c -0.83203,0 -1.5547,-0.61719 -1.668,-1.4648 -0.12109,-0.92188 0.52734,-1.7695 1.4492,-1.8906 3.8125,-0.50391 7.2344,-1.2852 10.164,-2.3164 0.89062,-0.3125 1.8398,0.15234 2.1484,1.0273 0.30859,0.87891 -0.15234,1.8398 -1.0273,2.1484 -3.1484,1.1094 -6.7969,1.9453 -10.844,2.4805 -0.07422,0.01172 -0.14844,0.01563 -0.22266,0.01563 z" />
      <path
         id="path2879"
         d="m 10.246,11.93 c -0.64062,0 -1.2539,-0.36719 -1.5352,-0.99219 -1.3867,-3.0781 -0.62891,-5.3516 0.25391,-6.7148 1.707,-2.6445 5.4297,-4.2227 9.957,-4.2227 0.92969,0 1.6836,0.75391 1.6836,1.6836 0,0.92969 -0.75391,1.6836 -1.6836,1.6836 -3.2773,0 -6.0742,1.0547 -7.125,2.6836 -0.625,0.96094 -0.62891,2.1406 -0.01563,3.5039 0.38281,0.84766 0.0039,1.8438 -0.84375,2.2266 -0.22656,0.10156 -0.46094,0.14844 -0.69141,0.14844 z" />
      <path
         id="path2881"
         d="m 27.598,11.93 c -0.23047,0 -0.46875,-0.04688 -0.69141,-0.14844 -0.84766,-0.38281 -1.2266,-1.3789 -0.84375,-2.2266 0.61328,-1.3633 0.60938,-2.5391 -0.01563,-3.5039 -1.0547,-1.6328 -3.8516,-2.6836 -7.1289,-2.6836 -0.92969,0 -1.6836,-0.75391 -1.6836,-1.6836 0.0039,-0.92969 0.75781,-1.6836 1.6875,-1.6836 4.5234,0 8.2461,1.5781 9.957,4.2227 0.88281,1.3633 1.6406,3.6367 0.25391,6.7148 -0.28125,0.62109 -0.89453,0.99219 -1.5352,0.99219 z" />
      <path
         id="path2883"
         d="m 27.602,11.93 c -0.02344,0 -0.04687,0 -0.07031,-0.0039 -3.1484,-0.125 -5.793,-1.0625 -7.8633,-2.7852 -0.71484,-0.59766 -0.8125,-1.6562 -0.21484,-2.3711 0.60156,-0.71484 1.6602,-0.80859 2.3711,-0.21484 1.4844,1.2383 3.4492,1.9141 5.8398,2.0078 0.92969,0.039062 1.6523,0.82031 1.6172,1.75 -0.03906,0.90625 -0.78125,1.6172 -1.6797,1.6172 z" />
      <path
         id="path2885"
         d="m 36.16,46.348 c -0.92969,0 -1.6836,-0.75391 -1.6836,-1.6836 v -6.9648 c 0,-2.8789 -2.3438,-5.2227 -5.2266,-5.2227 -0.92969,0 -1.6836,-0.75391 -1.6836,-1.6836 0,-0.92969 0.75391,-1.6836 1.6836,-1.6836 4.7383,0 8.5898,3.8555 8.5898,8.5898 v 6.9648 c 0.0039,0.92969 -0.75,1.6836 -1.6797,1.6836 z m -34.477,0 c -0.92969,0 -1.6836,-0.75391 -1.6836,-1.6836 v -6.9648 c 0,-4.7344 3.8555,-8.5898 8.5898,-8.5898 0.92969,0 1.6836,0.75391 1.6836,1.6836 0,0.92969 -0.75391,1.6836 -1.6836,1.6836 -2.8789,0 -5.2266,2.3438 -5.2266,5.2227 v 6.9648 c 0.00391,0.92969 -0.75,1.6836 -1.6797,1.6836 z" />
      <path
         id="path2887"
         d="m 8.5898,32.477 c -0.92969,0 -1.6836,-0.75391 -1.6836,-1.6836 0,-0.92969 0.75391,-1.6836 1.6836,-1.6836 4.3516,0 4.543,-0.65234 5.3594,-3.4062 l 0.10547,-0.35547 c 0.26172,-0.89062 1.1953,-1.3984 2.0938,-1.1328 0.89062,0.26562 1.3984,1.2031 1.1289,2.0938 l -0.10156,0.34766 c -1.0664,3.6094 -2.0508,5.8203 -8.5859,5.8203 z" />
      <path
         id="path2889"
         d="m 29.25,32.477 c -6.5352,0 -7.5195,-2.2148 -8.5898,-5.8242 l -0.10156,-0.34375 c -0.26562,-0.89062 0.24219,-1.8281 1.1328,-2.0938 0.89453,-0.26562 1.832,0.24219 2.0977,1.1328 l 0.10547,0.35156 c 0.8125,2.7578 1.0078,3.4102 5.3594,3.4102 0.92969,0 1.6836,0.75391 1.6836,1.6836 -0.0039,0.92969 -0.75391,1.6836 -1.6875,1.6836 z" />
      <path
         id="path2891"
         d="M 16.867,100 H 11.7303 C 9.6678,100 7.992,98.3477 7.992,96.3203 v -55.824 c 0,-0.92969 0.75391,-1.6836 1.6836,-1.6836 0.92969,0 1.6836,0.75391 1.6836,1.6836 v 55.824 c 0,0.14844 0.16016,0.31641 0.37109,0.31641 h 5.1367 c 0.21875,0 0.37109,-0.16406 0.37109,-0.31641 v -27.113 c 0,-0.92969 0.75391,-1.6836 1.6836,-1.6836 0.92969,0 1.6836,0.75391 1.6836,1.6836 v 27.113 c 0,2.0273 -1.6797,3.6797 -3.7383,3.6797 z" />
      <path
         id="path2893"
         d="m 26.172,100 h -5.1953 c -2.0625,0 -3.7383,-1.6523 -3.7383,-3.6797 v -27.113 c 0,-0.92969 0.75391,-1.6836 1.6836,-1.6836 0.92969,0 1.6836,0.75391 1.6836,1.6836 v 27.113 c 0,0.14844 0.16016,0.31641 0.37109,0.31641 h 5.1953 c 0.15234,0 0.31641,-0.16016 0.31641,-0.31641 l -0.0039,-55.824 c 0,-0.92969 0.75391,-1.6836 1.6836,-1.6836 0.92969,0 1.6836,0.75391 1.6836,1.6836 v 55.824 c 0,2.0273 -1.6523,3.6797 -3.6797,3.6797 z" />
      <path
         id="path2895"
         d="M 9.6758,67.406 H 3.8516 C 1.7266,67.406 0,65.6794 0,63.5544 v -18.891 c 0,-0.92969 0.75391,-1.6836 1.6836,-1.6836 0.92969,0 1.6836,0.75391 1.6836,1.6836 v 18.891 c 0,0.26562 0.21875,0.48437 0.48437,0.48437 h 5.8242 c 0.92969,0 1.6836,0.75391 1.6836,1.6836 0,0.92969 -0.75391,1.6836 -1.6836,1.6836 z" />
      <path
         id="path2897"
         d="M 9.6758,74.086 H 7.1641 c -2.7539,0 -4.9961,-2.2656 -4.9961,-5.0508 v -3.3125 c 0,-0.92969 0.75391,-1.6836 1.6836,-1.6836 0.92969,0 1.6836,0.75391 1.6836,1.6836 v 3.3125 c 0,0.91406 0.74609,1.6836 1.6289,1.6836 h 2.5117 c 0.92969,0 1.6836,0.75391 1.6836,1.6836 0,0.93359 -0.75391,1.6836 -1.6836,1.6836 z" />
      <path
         id="path2899"
         d="m 34.047,67.406 h -5.8789 c -0.92969,0 -1.6836,-0.75391 -1.6836,-1.6836 0,-0.92969 0.75391,-1.6836 1.6836,-1.6836 h 5.8789 c 0.20312,0 0.42969,-0.20703 0.42969,-0.48437 v -18.891 c 0,-0.92969 0.75391,-1.6836 1.6836,-1.6836 0.92969,0 1.6836,0.75391 1.6836,1.6836 v 18.891 c 0,2.125 -1.7031,3.8516 -3.7969,3.8516 z" />
      <path
         id="path2901"
         d="m 30.68,74.086 h -2.5117 c -0.92969,0 -1.6836,-0.75391 -1.6836,-1.6836 0,-0.92969 0.75391,-1.6836 1.6836,-1.6836 H 30.68 c 0.89844,0 1.6836,-0.78906 1.6836,-1.6836 v -3.3125 c 0,-0.92969 0.75391,-1.6836 1.6836,-1.6836 0.92969,0 1.6836,0.75391 1.6836,1.6836 v 3.3125 c 0,2.7383 -2.3125,5.0508 -5.0508,5.0508 z" />
      <path
         id="path2903"
         d="m 18.922,58.219 c -0.48438,0 -0.94531,-0.21094 -1.2656,-0.57422 l -3.6523,-4.168 c -0.35156,-0.39844 -0.49219,-0.9375 -0.38281,-1.457 l 3.6523,-17.293 c 0.16406,-0.77734 0.85156,-1.3359 1.6484,-1.3359 0.79684,0 1.4844,0.55859 1.6484,1.3359 l 3.6523,17.293 c 0.10938,0.51953 -0.03125,1.0586 -0.38281,1.457 l -3.6523,4.168 c -0.32031,0.36719 -0.78125,0.57422 -1.2656,0.57422 z m -1.832,-6.3242 1.832,2.0898 1.832,-2.0898 -1.832,-8.668 z" />
      <path
         id="path2905"
         d="m 18.922,36.758 c -0.375,0 -0.75391,-0.125 -1.0664,-0.38281 l -5.9922,-4.9102 c -0.71875,-0.58984 -0.82422,-1.6523 -0.23438,-2.3711 0.58984,-0.7188 1.6484,-0.82422 2.3711,-0.23438 l 5.9922,4.9102 c 0.71875,0.58984 0.82422,1.6523 0.23437,2.3711 -0.33594,0.40625 -0.82031,0.61719 -1.3047,0.61719 z" />
      <path
         id="path2907"
         d="m 18.922,36.758 c -0.48438,0 -0.96875,-0.21094 -1.3008,-0.61719 -0.58984,-0.71875 -0.48438,-1.7812 0.23438,-2.3711 l 5.9922,-4.9102 c 0.72266,-0.58984 1.7812,-0.48828 2.3711,0.23438 0.58984,0.71875 0.48438,1.7812 -0.23438,2.3711 l -5.9922,4.9102 C 19.67199,36.633 19.29699,36.758 18.922,36.758 Z" />
      <path
         id="path2909"
         d="M 98.316,84.645 H 33.648 c -0.92969,0 -1.6836,-0.75391 -1.6836,-1.6836 0,-0.92969 0.75391,-1.6836 1.6836,-1.6836 h 62.988 l -0.0039,-68.32 h -62.816 c -0.92969,0 -1.6836,-0.75391 -1.6836,-1.6836 0,-0.92969 0.75391,-1.6836 1.6836,-1.6836 h 64.5 c 0.92969,0 1.6836,0.75391 1.6836,1.6836 v 71.688 c 0,0.92969 -0.75391,1.6836 -1.6836,1.6836 z" />
      <path
         id="path2911"
         d="m 43.578,35.844 c -0.3125,0 -0.625,-0.08594 -0.90625,-0.26562 -0.78125,-0.5 -1.0117,-1.543 -0.50781,-2.3281 l 7.3047,-11.414 c 0.42188,-0.66016 1.2422,-0.94141 1.9766,-0.67969 l 5.4805,1.9258 6.5859,-4.9922 c 0.63281,-0.47656 1.5117,-0.45312 2.1094,0.0625 l 6.4531,5.5156 4.4023,-3.3008 c 0.375,-0.28125 0.84375,-0.38672 1.3047,-0.3125 l 5.1367,0.90625 7.0781,-4.9141 c 0.76562,-0.53125 1.8125,-0.33984 2.3438,0.42188 0.53125,0.76562 0.34375,1.8125 -0.42188,2.3438 l -7.6484,5.3086 c -0.36328,0.25391 -0.8125,0.35156 -1.2539,0.27344 l -5.1016,-0.90234 -4.8945,3.6719 c -0.63281,0.47656 -1.5078,0.44531 -2.1055,-0.06641 l -6.4453,-5.5117 -6.2266,4.7188 c -0.44922,0.33984 -1.0391,0.43359 -1.5742,0.24609 l -5.0781,-1.7852 -6.5859,10.293 c -0.32812,0.51172 -0.87109,0.78516 -1.4258,0.78516 z" />
      <path
         id="path2913"
         d="M 91.523,77.566 H 43.179 c -0.92969,0 -1.6836,-0.75391 -1.6836,-1.6836 0,-0.92969 0.75391,-1.6836 1.6836,-1.6836 h 48.344 c 0.92969,0 1.6836,0.75391 1.6836,1.6836 0,0.93359 -0.75391,1.6836 -1.6836,1.6836 z" />
      <path
         id="path2915"
         d="m 55.508,77.566 c -0.92969,0 -1.6836,-0.75391 -1.6836,-1.6836 v -10.387 c 0,-0.92969 0.75391,-1.6836 1.6836,-1.6836 0.92969,0 1.6836,0.75391 1.6836,1.6836 v 10.387 c 0,0.93359 -0.75391,1.6836 -1.6836,1.6836 z m -7.9336,0 c -0.92969,0 -1.6836,-0.75391 -1.6836,-1.6836 v -4.6211 c 0,-0.92969 0.75391,-1.6836 1.6836,-1.6836 0.92969,0 1.6836,0.75391 1.6836,1.6836 v 4.6211 c 0,0.93359 -0.75391,1.6836 -1.6836,1.6836 z m 0,-16.094 c -0.92969,0 -1.6836,-0.75391 -1.6836,-1.6836 v -10.504 c 0,-0.92969 0.75391,-1.6836 1.6836,-1.6836 h 7.9336 c 0.92969,0 1.6836,0.75391 1.6836,1.6836 v 5.1953 c 0,0.92969 -0.75391,1.6836 -1.6836,1.6836 -0.92969,0 -1.6836,-0.75391 -1.6836,-1.6836 V 50.968 H 49.258 v 8.8164 c 0,0.93359 -0.75391,1.6875 -1.6836,1.6875 z" />
      <path
         id="path2917"
         d="m 55.508,50.969 c -0.92969,0 -1.6836,-0.75391 -1.6836,-1.6836 v -6.793 c 0,-0.92969 0.75391,-1.6836 1.6836,-1.6836 h 7.875 c 0.92969,0 1.6836,0.75391 1.6836,1.6836 v 2.7969 c 0,0.92969 -0.75391,1.6836 -1.6836,1.6836 -0.92969,0 -1.6836,-0.75391 -1.6836,-1.6836 V 44.176 h -4.5078 v 5.1094 c 0,0.92969 -0.75391,1.6836 -1.6836,1.6836 z" />
      <path
         id="path2919"
         d="m 71.32,77.566 c -0.92969,0 -1.6836,-0.75391 -1.6836,-1.6836 v -13.469 c 0,-0.92969 0.75391,-1.6836 1.6836,-1.6836 0.92969,0 1.6836,0.75391 1.6836,1.6836 v 13.469 C 72.9997,76.81599 72.24969,77.566 71.32,77.566 Z m -7.9375,0 c -0.92969,0 -1.6836,-0.75391 -1.6836,-1.6836 v -6.8477 c 0,-0.92969 0.75391,-1.6836 1.6836,-1.6836 0.92969,0 1.6836,0.75391 1.6836,1.6836 v 6.8477 c 0,0.93359 -0.75391,1.6836 -1.6836,1.6836 z m 0,-18.719 c -0.92969,0 -1.6836,-0.75391 -1.6836,-1.6836 v -11.871 c 0,-0.92969 0.75391,-1.6836 1.6836,-1.6836 h 7.9336 c 0.92969,0 1.6836,0.75391 1.6836,1.6836 v 5.5352 c 0,0.92969 -0.75391,1.6836 -1.6836,1.6836 -0.92969,0 -1.6836,-0.75391 -1.6836,-1.6836 V 46.976 h -4.5664 v 10.188 c 0,0.92969 -0.75391,1.6836 -1.6836,1.6836 z" />
      <path
         id="path2921"
         d="m 87.129,77.566 c -0.92969,0 -1.6836,-0.75391 -1.6836,-1.6836 v -20.602 c 0,-0.92969 0.75391,-1.6836 1.6836,-1.6836 0.92969,0 1.6836,0.75391 1.6836,1.6836 v 20.605 c 0,0.92969 -0.75391,1.6797 -1.6836,1.6797 z m -7.9336,0 c -0.92969,0 -1.6836,-0.75391 -1.6836,-1.6836 v -12.387 c 0,-0.92969 0.75391,-1.6836 1.6836,-1.6836 0.92969,0 1.6836,0.75391 1.6836,1.6836 v 12.387 c 0,0.93359 -0.75391,1.6836 -1.6836,1.6836 z m 0,-25.57 c -0.92969,0 -1.6836,-0.75391 -1.6836,-1.6836 v -13.07 c 0,-0.92969 0.75391,-1.6836 1.6836,-1.6836 h 7.9336 c 0.92969,0 1.6836,0.75391 1.6836,1.6836 v 3.6523 c 0,0.92969 -0.75391,1.6836 -1.6836,1.6836 -0.92969,0 -1.6836,-0.75391 -1.6836,-1.6836 V 38.9259 H 80.879 v 11.387 c 0,0.92969 -0.75391,1.6836 -1.6836,1.6836 z" />
      <path
         id="path2923"
         d="m 71.32,46.977 c -0.92969,0 -1.6836,-0.75391 -1.6836,-1.6836 v -12.73 c 0,-0.92969 0.75391,-1.6836 1.6836,-1.6836 h 7.8789 c 0.92969,0 1.6836,0.75391 1.6836,1.6836 v 4.6797 c 0,0.92969 -0.75391,1.6836 -1.6836,1.6836 -0.92969,0 -1.6836,-0.75391 -1.6836,-1.6836 V 34.247 H 73.0036 V 45.29 c -0.0039,0.93359 -0.75391,1.6875 -1.6836,1.6875 z" />
      <path
         id="path2925"
         d="m 47.574,67.293 c -0.33984,0 -0.67578,-0.10156 -0.96875,-0.30469 l -4.3945,-3.082 c -0.76172,-0.53125 -0.94531,-1.582 -0.41016,-2.3438 0.53125,-0.76172 1.582,-0.94531 2.3477,-0.41016 l 3.3984,2.3867 6.9609,-5.1562 c 0.51563,-0.38281 1.2031,-0.4375 1.7734,-0.14453 l 6.7773,3.4883 7.0664,-7.1172 c 0.46094,-0.46094 1.1445,-0.61328 1.7617,-0.39844 l 6.6562,2.3633 7.1992,-10.465 c 0.26953,-0.39062 0.69141,-0.65234 1.1641,-0.71484 0.46484,-0.06641 0.94531,0.07422 1.3086,0.38281 l 4.3945,3.7109 c 0.71094,0.60156 0.80078,1.6641 0.19922,2.375 -0.60156,0.71094 -1.6641,0.79688 -2.3711,0.19922 l -2.9766,-2.5117 -6.8789,10 c -0.43359,0.62891 -1.2344,0.89062 -1.9492,0.63281 l -6.8711,-2.4414 -7.1797,7.2305 c -0.51953,0.51953 -1.3125,0.64453 -1.9648,0.3125 l -6.9414,-3.5703 -7.0938,5.2539 c -0.30078,0.21484 -0.65625,0.32422 -1.0078,0.32422 z" />
    </g>
    <g
       id="g3034"
       transform="matrix(0.35277777,0,0,0.35277777,69.124246,20.079794)">
      <path
         id="path3020"
         d="m 35.938,40.625 c 0,1.7266 -1.3984,3.125 -3.125,3.125 -1.7266,0 -3.125,-1.3984 -3.125,-3.125 v -1.5625 h -3.125 v 1.5625 c 0,3.4531 2.7969,6.25 6.25,6.25 3.4531,0 6.25,-2.7969 6.25,-6.25 v -1.5625 h -3.125 z" />
      <path
         id="path3022"
         d="m 37.5,73.438 h 3.125 v 3.125 H 37.5 Z" />
      <path
         id="path3024"
         d="m 37.5,79.688 h 3.125 v 3.125 H 37.5 Z" />
      <path
         id="path3026"
         d="M 96.875,64.062 H 59.781 C 55.9763,59.105 50.074,56.2143 43.828,56.2495 h -3.2031 v -3.125 h 0.26953 c 6.7539,0 12.23,-5.4766 12.23,-12.234 v -0.26562 h 1.5625 c 2.5898,0 4.6875,-2.0977 4.6875,-4.6875 v -3.125 c -0.0078,-2.4961 -1.9727,-4.5469 -4.4648,-4.6641 2.9062,-3.9219 4.4727,-8.6719 4.4648,-13.551 V 13.7965 c 0,-6.7578 -5.4766,-12.234 -12.23,-12.234 H 46.8749 c -0.41406,0 -0.8125,0.16406 -1.1055,0.45703 l -2.0195,2.0195 -2.0195,-2.0195 C 41.43743,1.72656 41.03899,1.5625 40.6249,1.5625 h -22.145 c -6.7539,0 -12.23,5.4766 -12.23,12.234 v 0.80469 -0.0039 c -0.00781,4.8789 1.5586,9.6289 4.4648,13.551 -2.4922,0.11719 -4.457,2.168 -4.4648,4.6641 v 3.125 c 0,2.5898 2.0977,4.6875 4.6875,4.6875 h 1.5625 v 0.26562 c 0,6.7578 5.4766,12.234 12.23,12.234 h 0.26953 v 3.125 h -3.2031 c -5.3672,0 -10.512,2.1328 -14.309,5.9258 -3.793,3.7969 -5.9258,8.9414 -5.9258,14.309 v 15.703 c 0,0.41406 0.16406,0.8125 0.45703,1.1055 0.29297,0.293 0.69141,0.45703 1.1055,0.45703 h 45.312 v 3.125 c 0,0.41406 0.16406,0.8125 0.45703,1.1055 0.29297,0.293 0.69141,0.45703 1.1055,0.45703 h 46.875 c 0.41406,0 0.8125,-0.16406 1.1055,-0.45703 0.293,-0.29297 0.45703,-0.69141 0.45703,-1.1055 v -31.25 c 0,-0.41406 -0.16406,-0.8125 -0.45703,-1.1055 -0.29297,-0.293 -0.69141,-0.45703 -1.1055,-0.45703 z m -1.5625,9.375 h -43.75 v -6.25 h 43.75 z m -50.688,-14.023 -7.125,7.125 -2.4766,-2.4766 4.6875,-4.6875 h 4.1172 c 0.26953,0 0.53125,0.02734 0.79688,0.03906 z m 2.0273,-31.289 c -0.69922,-2.7578 -3.1836,-4.6875 -6.0273,-4.6875 -2.8437,0 -5.3281,1.9297 -6.0273,4.6875 h -3.5703 c -0.69922,-2.7578 -3.1836,-4.6875 -6.0273,-4.6875 -2.8437,0 -5.3281,1.9297 -6.0273,4.6875 H 15.6246 V 17.836 l 2.0195,2.0195 c 0.60938,0.60938 1.6016,0.60938 2.2109,0 l 3.582,-3.582 3.582,3.582 c 0.60938,0.60938 1.6016,0.60938 2.2109,0 l 3.582,-3.582 3.582,3.582 c 0.60938,0.60938 1.6016,0.60938 2.2109,0 l 3.582,-3.582 3.582,3.582 c 0.60938,0.60938 1.6016,0.60938 2.2109,0 l 2.0195,-2.0195 v 10.289 z m -2.9023,1.5625 c 0,1.2656 -0.76172,2.4023 -1.9297,2.8867 -1.168,0.48438 -2.5117,0.21484 -3.4062,-0.67578 -0.89062,-0.89453 -1.1602,-2.2383 -0.67578,-3.4062 0.48438,-1.168 1.6211,-1.9297 2.8867,-1.9297 0.82812,0 1.625,0.32812 2.2109,0.91406 0.58594,0.58594 0.91406,1.3828 0.91406,2.2109 z m -15.625,0 c 0,1.2656 -0.76172,2.4023 -1.9297,2.8867 -1.168,0.48438 -2.5117,0.21484 -3.4062,-0.67578 -0.89062,-0.89453 -1.1602,-2.2383 -0.67578,-3.4062 0.48438,-1.168 1.6211,-1.9297 2.8867,-1.9297 0.82812,0 1.625,0.32812 2.2109,0.91406 0.58594,0.58594 0.91406,1.3828 0.91406,2.2109 z m 28.125,3.125 v 3.125 c 0,0.41406 -0.16406,0.8125 -0.45703,1.1055 -0.29297,0.293 -0.69141,0.45703 -1.1055,0.45703 h -1.5625 v -6.25 h 1.5625 c 0.41406,0 0.8125,0.16406 1.1055,0.45703 0.293,0.29297 0.45703,0.69141 0.45703,1.1055 z M 9.3745,13.7965 c 0,-2.418 0.95703,-4.7344 2.668,-6.4414 1.707,-1.707 4.0234,-2.668 6.4375,-2.668 h 21.496 l 2.668,2.668 c 0.60938,0.60938 1.6016,0.60938 2.2109,0 l 2.6562,-2.6562 c 4.8828,0.19531 8.7383,4.2109 8.7383,9.0977 v 0.80469 -0.0039 c 0.0039,3.7812 -1.0781,7.4805 -3.125,10.656 v -11.191 c 0,-0.63281 -0.37891,-1.2031 -0.96484,-1.4414 -0.58203,-0.24219 -1.2539,-0.10938 -1.7031,0.33594 l -3.582,3.582 -3.582,-3.582 c -0.60938,-0.60938 -1.6016,-0.60938 -2.2109,0 l -3.582,3.582 -3.582,-3.582 c -0.60938,-0.60938 -1.6016,-0.60938 -2.2109,0 l -3.582,3.582 -3.582,-3.582 c -0.60938,-0.60938 -1.6016,-0.60938 -2.2109,0 l -3.582,3.582 -3.582,-3.582 c -0.44922,-0.44531 -1.1211,-0.57812 -1.7031,-0.33594 -0.58594,0.23828 -0.96484,0.80859 -0.96484,1.4414 v 11.191 c -2.0469,-3.1758 -3.1289,-6.875 -3.125,-10.656 z m 1.5625,23.703 c -0.86328,0 -1.5625,-0.69922 -1.5625,-1.5625 v -3.125 c 0,-0.86328 0.69922,-1.5625 1.5625,-1.5625 h 1.5625 v 6.25 z m 7.3555,9.832 c -1.7148,-1.7031 -2.6758,-4.0234 -2.668,-6.4414 v -9.6406 h 3.3477 c 0.69922,2.7578 3.1836,4.6875 6.0273,4.6875 2.8437,0 5.3281,-1.9297 6.0273,-4.6875 h 3.5703 c 0.69922,2.7578 3.1836,4.6875 6.0273,4.6875 2.8437,0 5.3281,-1.9297 6.0273,-4.6875 h 3.3477 v 9.6406 c 0,2.418 -0.95703,4.7344 -2.668,6.4414 -1.707,1.707 -4.0234,2.668 -6.4375,2.668 h -16.164 c -2.4141,0.0078 -4.7344,-0.95312 -6.4375,-2.668 z m 19.207,5.793 v 4.0391 l -4.6875,4.6875 -4.6875,-4.6875 v -4.0391 z m -11.586,6.25 4.6875,4.6875 -2.4766,2.4766 -7.125,-7.125 c 0.26562,-0.01172 0.53125,-0.03906 0.79688,-0.03906 z m -21.227,17.109 c 0,-3.7344 1.2188,-7.3633 3.4766,-10.34 2.2578,-2.9727 5.4258,-5.125 9.0234,-6.1289 l 9.8438,9.8438 c 0.60938,0.60938 1.5977,0.60938 2.2109,0 L 31.249,67.835 V 90.624 H 14.061 V 73.436 h -3.125 v 17.188 h -6.25 z m 29.688,14.141 v -22.789 l 2.0195,2.0195 c 0.60938,0.60938 1.6016,0.60938 2.2109,0 l 9.8438,-9.8438 c 2.668,0.75 5.1133,2.1406 7.1211,4.0508 h -5.5703 c -0.86328,0 -1.5625,0.69922 -1.5625,1.5625 v 25 z m 17.188,4.6875 v -18.75 h 43.75 v 18.75 z" />
      <path
         id="path3028"
         d="m 64.52,78.582 -6.25,6.25 c -0.60938,0.60938 -0.60938,1.6016 0,2.2109 l 6.25,6.25 2.2109,-2.2109 -5.1445,-5.1445 5.1445,-5.1445 z" />
      <path
         id="path3030"
         d="m 82.355,78.582 -2.2109,2.2109 5.1445,5.1445 -5.1445,5.1445 2.2109,2.2109 6.25,-6.25 c 0.60938,-0.60938 0.60938,-1.6016 0,-2.2109 z" />
      <path
         id="path3032"
         d="m 68.75,84.375 h 9.375 V 87.5 H 68.75 Z" />
    </g>
  </g>
</svg>
