<?xml version="1.0" encoding="UTF-8"?>
<svg width="100pt" height="100pt" version="1.1" viewBox="0 0 100 100" xmlns="http://www.w3.org/2000/svg">
 <g>
  <path d="m4.6875 96.875h18.75c0.86328 0 1.5625-0.69922 1.5625-1.5625v-13.469c0-2.7891-1.6758-5.1914-4.0703-6.2578 0.92187-1.6797 1.1953-3.6523 0.71484-5.625-0.68359-2.8203-2.9531-5.0547-5.7734-5.6953-2.375-0.53906-4.8086 0.007813-6.6797 1.5-1.8711 1.4961-2.9414 3.7188-2.9414 6.1094 0 1.3047 0.33594 2.5781 0.95312 3.707-2.3984 1.0664-4.0781 3.4688-4.0781 6.2617v13.469c0 0.86328 0.69922 1.5625 1.5625 1.5625zm6.4531-28.664c1.1406-0.91016 2.5742-1.2266 4.0391-0.89453 1.6484 0.375 3.0273 1.7344 3.4297 3.3828 0.42188 1.7461-0.125 3.4922-1.4609 4.6719l-3.0859 2.3516-3.0781-2.3516c-1.0352-0.91016-1.6094-2.1523-1.6094-3.4961 0-1.4336 0.64453-2.7695 1.7656-3.6641zm4.2422 16.277-1.3203 2.6445-1.3203-2.6445 1.3203-1.9844zm-9.1328-2.6445c0-1.8906 1.4219-3.4375 3.2539-3.6719l2.4453 1.8672-2.3125 3.4688c-0.3125 0.46484-0.34766 1.0625-0.097657 1.5664l3.125 6.25c0.26563 0.52734 0.80469 0.86328 1.3984 0.86328s1.1328-0.33594 1.3984-0.86328l3.125-6.25c0.25-0.5 0.21484-1.1016-0.097657-1.5664l-2.3125-3.4688 2.4453-1.8672c1.832 0.23438 3.2539 1.7812 3.2539 3.6719v11.906h-15.625z"/>
  <path d="m53.125 18.75c0 1.3047 0.33594 2.5781 0.95312 3.707-2.3984 1.0664-4.0781 3.4688-4.0781 6.2617v13.469c0 0.86328 0.69922 1.5625 1.5625 1.5625h18.75c0.86328 0 1.5625-0.69922 1.5625-1.5625v-13.469c0-2.7891-1.6758-5.1914-4.0703-6.2578 0.92187-1.6797 1.1953-3.6523 0.71484-5.625-0.68359-2.8203-2.9531-5.0547-5.7734-5.6953-2.3711-0.53906-4.8086 0.007813-6.6797 1.5-1.8711 1.4961-2.9414 3.7188-2.9414 6.1094zm15.625 9.9688v11.906h-15.625v-11.906c0-1.8906 1.4219-3.4375 3.2539-3.6719l2.4453 1.8672-2.3125 3.4688c-0.3125 0.46484-0.34766 1.0625-0.097657 1.5664l3.125 6.25c0.26563 0.52734 0.80469 0.86328 1.3984 0.86328s1.1328-0.33594 1.3984-0.86328l3.125-6.25c0.25-0.5 0.21484-1.1016-0.097657-1.5664l-2.3125-3.4688 2.4453-1.8672c1.832 0.23438 3.2539 1.7812 3.2539 3.6719zm-9.1328 2.6445 1.3203-1.9844 1.3203 1.9844-1.3203 2.6445zm-1.6016-16.277c1.1406-0.91016 2.5742-1.2266 4.0391-0.89453 1.6484 0.375 3.0273 1.7344 3.4297 3.3828 0.42188 1.7461-0.125 3.4922-1.4609 4.6719l-3.0859 2.3516-3.0781-2.3516c-1.0352-0.91016-1.6094-2.1523-1.6094-3.4961 0-1.4336 0.64453-2.7695 1.7656-3.6641z"/>
  <path d="m92.805 75.586c0.92187-1.6797 1.1953-3.6523 0.71484-5.625-0.68359-2.8203-2.9531-5.0547-5.7734-5.6953-2.3711-0.53906-4.8086 0.007813-6.6797 1.5-1.8711 1.4961-2.9414 3.7188-2.9414 6.1094 0 1.3047 0.33594 2.5781 0.95312 3.707-0.98828 0.4375-1.8398 1.1094-2.5156 1.9336-0.67578-0.82031-1.5234-1.4922-2.5078-1.9297 0.92187-1.6797 1.1953-3.6523 0.71484-5.625-0.68359-2.8203-2.9531-5.0547-5.7734-5.6953-2.375-0.53906-4.8125 0.007813-6.6797 1.5-1.8672 1.4961-2.9414 3.7188-2.9414 6.1094 0 1.3047 0.33594 2.5781 0.95312 3.707-0.98828 0.4375-1.8398 1.1094-2.5156 1.9336-0.67578-0.82031-1.5234-1.4922-2.5078-1.9297 0.92187-1.6797 1.1953-3.6523 0.71484-5.625-0.68359-2.8203-2.9531-5.0547-5.7734-5.6953-2.3711-0.53906-4.8086 0.007813-6.6797 1.5-1.8711 1.4961-2.9414 3.7188-2.9414 6.1094 0 1.3047 0.33594 2.5781 0.95312 3.707-2.3984 1.0664-4.0781 3.4688-4.0781 6.2617v13.469c0 0.86328 0.69922 1.5625 1.5625 1.5625h56.25c0.86328 0 1.5625-0.69922 1.5625-1.5625v-13.469c0-2.7891-1.6758-5.1914-4.0703-6.2578zm-47.289-7.375c1.1406-0.91016 2.5742-1.2266 4.0391-0.89453 1.6484 0.375 3.0273 1.7344 3.4297 3.3828 0.42188 1.7461-0.125 3.4922-1.4609 4.6719l-3.0859 2.3516-3.0781-2.3516c-1.0352-0.91016-1.6094-2.1523-1.6094-3.4961 0-1.4336 0.64453-2.7695 1.7656-3.6641zm4.2422 16.277-1.3203 2.6445-1.3203-2.6445 1.3203-1.9844zm6.4922 9.2617h-15.625v-11.906c0-1.8906 1.4219-3.4375 3.2539-3.6719l2.4453 1.8672-2.3125 3.4688c-0.3125 0.46484-0.34766 1.0625-0.097657 1.5664l3.125 6.25c0.26563 0.52734 0.80469 0.86328 1.3984 0.86328s1.1328-0.33594 1.3984-0.86328l3.125-6.25c0.25-0.5 0.21484-1.1016-0.097657-1.5664l-2.3125-3.4688 2.4453-1.8672c1.832 0.23438 3.2539 1.7812 3.2539 3.6719zm8.0156-25.539c1.1406-0.91016 2.5742-1.2266 4.0391-0.89453 1.6484 0.375 3.0273 1.7344 3.4297 3.3828 0.42188 1.7461-0.125 3.4922-1.4609 4.6719l-3.0859 2.3516-3.0781-2.3516c-1.0352-0.91016-1.6094-2.1523-1.6094-3.4961 0-1.4336 0.64453-2.7695 1.7656-3.6641zm4.2422 16.277-1.3203 2.6445-1.3203-2.6445 1.3203-1.9844zm6.4922 9.2617h-15.625v-11.906c0-1.8906 1.4219-3.4375 3.2539-3.6719l2.4453 1.8672-2.3125 3.4688c-0.3125 0.46484-0.34766 1.0625-0.097657 1.5664l3.125 6.25c0.26563 0.52734 0.80469 0.86328 1.3984 0.86328s1.1328-0.33594 1.3984-0.86328l3.125-6.25c0.25-0.5 0.21484-1.1016-0.097657-1.5664l-2.3125-3.4688 2.4453-1.8672c1.832 0.23438 3.2539 1.7812 3.2539 3.6719zm8.0156-25.539c1.1406-0.91016 2.5742-1.2266 4.0391-0.89453 1.6484 0.375 3.0273 1.7344 3.4297 3.3828 0.42188 1.7461-0.125 3.4922-1.4609 4.6719l-3.0859 2.3516-3.0781-2.3516c-1.0352-0.91016-1.6094-2.1523-1.6094-3.4961 0-1.4336 0.64453-2.7695 1.7656-3.6641zm4.2422 16.277-1.3203 2.6445-1.3203-2.6445 1.3203-1.9844zm6.4922 9.2617h-15.625v-11.906c0-1.8906 1.4219-3.4375 3.2539-3.6719l2.4453 1.8672-2.3125 3.4688c-0.3125 0.46484-0.34766 1.0625-0.097657 1.5664l3.125 6.25c0.26563 0.52734 0.80469 0.86328 1.3984 0.86328s1.1328-0.33594 1.3984-0.86328l3.125-6.25c0.25-0.5 0.21484-1.1016-0.097657-1.5664l-2.3125-3.4688 2.4453-1.8672c1.832 0.23438 3.2539 1.7812 3.2539 3.6719z"/>
  <path d="m59.375 3.125h3.125v4.6875h-3.125z"/>
  <path d="m67.824 7.9375 3.7773-2.7734 1.8477 2.5195-3.7773 2.7734z"/>
  <path d="m48.922 7.3242 2.1562-2.2617 3.3906 3.2383-2.1562 2.2617z"/>
  <path d="m71.875 15.625h4.6875v3.125h-4.6875z"/>
  <path d="m45.312 15.625h4.6875v3.125h-4.6875z"/>
  <path d="m14.062 59.375c6.0312 0 10.938-4.9062 10.938-10.938s-4.9062-10.938-10.938-10.938-10.938 4.9062-10.938 10.938 4.9062 10.938 10.938 10.938zm0-18.75c4.3086 0 7.8125 3.5039 7.8125 7.8125s-3.5039 7.8125-7.8125 7.8125-7.8125-3.5039-7.8125-7.8125 3.5039-7.8125 7.8125-7.8125z"/>
  <path d="m11.852 52.855 2.2109-2.207 2.2109 2.207 2.207-2.207-2.207-2.2109 2.207-2.2109-2.207-2.207-2.2109 2.207-2.2109-2.207-2.207 2.207 2.207 2.2109-2.207 2.2109z"/>
  <path d="m85.938 35.938c-6.0312 0-10.938 4.9062-10.938 10.938s4.9062 10.938 10.938 10.938 10.938-4.9062 10.938-10.938-4.9062-10.938-10.938-10.938zm0 18.75c-4.3086 0-7.8125-3.5039-7.8125-7.8125s3.5039-7.8125 7.8125-7.8125 7.8125 3.5039 7.8125 7.8125-3.5039 7.8125-7.8125 7.8125z"/>
  <path d="m89.465 42.703-4.6172 5.1328-2.5938-2.1641-2 2.3984 3.75 3.125c0.28906 0.25 0.64453 0.36719 0.99609 0.36719 0.42578 0 0.85156-0.17578 1.1602-0.51562l5.625-6.25z"/>
  <path d="m62.5 60.938v-7.1641l2.0195 2.0195 2.2109-2.2109-4.6875-4.6875c-0.60938-0.60938-1.5977-0.60938-2.2109 0l-4.6875 4.6875 2.2109 2.2109 2.0195-2.0195v7.1641z"/>
 </g>
</svg>
