<svg xmlns="http://www.w3.org/2000/svg" xmlns:xlink="http://www.w3.org/1999/xlink" width="810pt" height="1907pt" viewBox="0.00 0.00 607.27 1430.00">
<g id="graph0" class="graph" transform="scale(0.75 0.75) rotate(0) translate(4 1426)">
<title>G</title>
<polygon fill="white" stroke="transparent" points="-4,4 -4,-1426 603.27,-1426 603.27,4 -4,4"/>
<!-- 140390270291152 -->
<g id="node1" class="node">
<title>140390270291152</title>
<polygon fill="none" stroke="black" points="242.65,-1377.5 242.65,-1421.5 530.13,-1421.5 530.13,-1377.5 242.65,-1377.5"/>
<text text-anchor="middle" x="281.74" y="-1395.3" font-family="Times,serif" font-size="14.00">InputLayer</text>
<polyline fill="none" stroke="black" points="320.84,-1377.5 320.84,-1421.5 "/>
<text text-anchor="middle" x="348.67" y="-1406.3" font-family="Times,serif" font-size="14.00">input:</text>
<polyline fill="none" stroke="black" points="320.84,-1399.5 376.51,-1399.5 "/>
<text text-anchor="middle" x="348.67" y="-1384.3" font-family="Times,serif" font-size="14.00">output:</text>
<polyline fill="none" stroke="black" points="376.51,-1377.5 376.51,-1421.5 "/>
<text text-anchor="middle" x="453.32" y="-1406.3" font-family="Times,serif" font-size="14.00">[(None, None, None, 1)]</text>
<polyline fill="none" stroke="black" points="376.51,-1399.5 530.13,-1399.5 "/>
<text text-anchor="middle" x="453.32" y="-1384.3" font-family="Times,serif" font-size="14.00">[(None, None, None, 1)]</text>
</g>
<!-- 140389193978304 -->
<g id="node2" class="node">
<title>140389193978304</title>
<polygon fill="none" stroke="black" points="251.18,-1296.5 251.18,-1340.5 521.59,-1340.5 521.59,-1296.5 251.18,-1296.5"/>
<text text-anchor="middle" x="282.9" y="-1314.3" font-family="Times,serif" font-size="14.00">Conv2D</text>
<polyline fill="none" stroke="black" points="314.63,-1296.5 314.63,-1340.5 "/>
<text text-anchor="middle" x="342.46" y="-1325.3" font-family="Times,serif" font-size="14.00">input:</text>
<polyline fill="none" stroke="black" points="314.63,-1318.5 370.3,-1318.5 "/>
<text text-anchor="middle" x="342.46" y="-1303.3" font-family="Times,serif" font-size="14.00">output:</text>
<polyline fill="none" stroke="black" points="370.3,-1296.5 370.3,-1340.5 "/>
<text text-anchor="middle" x="445.95" y="-1325.3" font-family="Times,serif" font-size="14.00">(None, None, None, 1)</text>
<polyline fill="none" stroke="black" points="370.3,-1318.5 521.59,-1318.5 "/>
<text text-anchor="middle" x="445.95" y="-1303.3" font-family="Times,serif" font-size="14.00">(None, None, None, 32)</text>
</g>
<!-- 140390270291152&#45;&gt;140389193978304 -->
<g id="edge1" class="edge">
<title>140390270291152-&gt;140389193978304</title>
<path fill="none" stroke="black" d="M386.39,-1377.33C386.39,-1369.18 386.39,-1359.7 386.39,-1350.8"/>
<polygon fill="black" stroke="black" points="389.89,-1350.73 386.39,-1340.73 382.89,-1350.73 389.89,-1350.73"/>
</g>
<!-- 140389195098480 -->
<g id="node3" class="node">
<title>140389195098480</title>
<polygon fill="none" stroke="black" points="251.18,-1215.5 251.18,-1259.5 521.59,-1259.5 521.59,-1215.5 251.18,-1215.5"/>
<text text-anchor="middle" x="282.9" y="-1233.3" font-family="Times,serif" font-size="14.00">Conv2D</text>
<polyline fill="none" stroke="black" points="314.63,-1215.5 314.63,-1259.5 "/>
<text text-anchor="middle" x="342.46" y="-1244.3" font-family="Times,serif" font-size="14.00">input:</text>
<polyline fill="none" stroke="black" points="314.63,-1237.5 370.3,-1237.5 "/>
<text text-anchor="middle" x="342.46" y="-1222.3" font-family="Times,serif" font-size="14.00">output:</text>
<polyline fill="none" stroke="black" points="370.3,-1215.5 370.3,-1259.5 "/>
<text text-anchor="middle" x="445.95" y="-1244.3" font-family="Times,serif" font-size="14.00">(None, None, None, 32)</text>
<polyline fill="none" stroke="black" points="370.3,-1237.5 521.59,-1237.5 "/>
<text text-anchor="middle" x="445.95" y="-1222.3" font-family="Times,serif" font-size="14.00">(None, None, None, 32)</text>
</g>
<!-- 140389193978304&#45;&gt;140389195098480 -->
<g id="edge2" class="edge">
<title>140389193978304-&gt;140389195098480</title>
<path fill="none" stroke="black" d="M386.39,-1296.33C386.39,-1288.18 386.39,-1278.7 386.39,-1269.8"/>
<polygon fill="black" stroke="black" points="389.89,-1269.73 386.39,-1259.73 382.89,-1269.73 389.89,-1269.73"/>
</g>
<!-- 140389195099920 -->
<g id="node4" class="node">
<title>140389195099920</title>
<polygon fill="none" stroke="black" points="140.73,-1134.5 140.73,-1178.5 450.04,-1178.5 450.04,-1134.5 140.73,-1134.5"/>
<text text-anchor="middle" x="191.9" y="-1152.3" font-family="Times,serif" font-size="14.00">MaxPooling2D</text>
<polyline fill="none" stroke="black" points="243.07,-1134.5 243.07,-1178.5 "/>
<text text-anchor="middle" x="270.91" y="-1163.3" font-family="Times,serif" font-size="14.00">input:</text>
<polyline fill="none" stroke="black" points="243.07,-1156.5 298.74,-1156.5 "/>
<text text-anchor="middle" x="270.91" y="-1141.3" font-family="Times,serif" font-size="14.00">output:</text>
<polyline fill="none" stroke="black" points="298.74,-1134.5 298.74,-1178.5 "/>
<text text-anchor="middle" x="374.39" y="-1163.3" font-family="Times,serif" font-size="14.00">(None, None, None, 32)</text>
<polyline fill="none" stroke="black" points="298.74,-1156.5 450.04,-1156.5 "/>
<text text-anchor="middle" x="374.39" y="-1141.3" font-family="Times,serif" font-size="14.00">(None, None, None, 32)</text>
</g>
<!-- 140389195098480&#45;&gt;140389195099920 -->
<g id="edge3" class="edge">
<title>140389195098480-&gt;140389195099920</title>
<path fill="none" stroke="black" d="M362,-1215.33C351.39,-1206.12 338.82,-1195.2 327.46,-1185.35"/>
<polygon fill="black" stroke="black" points="329.69,-1182.64 319.84,-1178.73 325.1,-1187.93 329.69,-1182.64"/>
</g>
<!-- 140388949151072 -->
<g id="node15" class="node">
<title>140388949151072</title>
<polygon fill="none" stroke="black" points="155.5,-243.5 155.5,-287.5 599.27,-287.5 599.27,-243.5 155.5,-243.5"/>
<text text-anchor="middle" x="198.09" y="-261.3" font-family="Times,serif" font-size="14.00">Concatenate</text>
<polyline fill="none" stroke="black" points="240.69,-243.5 240.69,-287.5 "/>
<text text-anchor="middle" x="268.52" y="-272.3" font-family="Times,serif" font-size="14.00">input:</text>
<polyline fill="none" stroke="black" points="240.69,-265.5 296.36,-265.5 "/>
<text text-anchor="middle" x="268.52" y="-250.3" font-family="Times,serif" font-size="14.00">output:</text>
<polyline fill="none" stroke="black" points="296.36,-243.5 296.36,-287.5 "/>
<text text-anchor="middle" x="447.81" y="-272.3" font-family="Times,serif" font-size="14.00">[(None, None, None, 32), (None, None, None, 64)]</text>
<polyline fill="none" stroke="black" points="296.36,-265.5 599.27,-265.5 "/>
<text text-anchor="middle" x="447.5" y="-250.3" font-family="Times,serif" font-size="14.00">(None, None, None, 96)</text>
</g>
<!-- 140389195098480&#45;&gt;140388949151072 -->
<g id="edge15" class="edge">
<title>140389195098480-&gt;140388949151072</title>
<path fill="none" stroke="black" d="M423.1,-1215.49C436.51,-1206.01 450.54,-1193.64 459.39,-1179 483.34,-1139.34 478.39,-1122.83 478.39,-1076.5 478.39,-1076.5 478.39,-1076.5 478.39,-426.5 478.39,-379.28 476.47,-363.37 450.39,-324 442.79,-312.53 432.15,-302.33 421.35,-293.81"/>
<polygon fill="black" stroke="black" points="423.2,-290.83 413.1,-287.64 419.01,-296.43 423.2,-290.83"/>
</g>
<!-- 140390271396016 -->
<g id="node5" class="node">
<title>140390271396016</title>
<polygon fill="none" stroke="black" points="160.18,-1053.5 160.18,-1097.5 430.59,-1097.5 430.59,-1053.5 160.18,-1053.5"/>
<text text-anchor="middle" x="191.9" y="-1071.3" font-family="Times,serif" font-size="14.00">Conv2D</text>
<polyline fill="none" stroke="black" points="223.63,-1053.5 223.63,-1097.5 "/>
<text text-anchor="middle" x="251.46" y="-1082.3" font-family="Times,serif" font-size="14.00">input:</text>
<polyline fill="none" stroke="black" points="223.63,-1075.5 279.3,-1075.5 "/>
<text text-anchor="middle" x="251.46" y="-1060.3" font-family="Times,serif" font-size="14.00">output:</text>
<polyline fill="none" stroke="black" points="279.3,-1053.5 279.3,-1097.5 "/>
<text text-anchor="middle" x="354.95" y="-1082.3" font-family="Times,serif" font-size="14.00">(None, None, None, 32)</text>
<polyline fill="none" stroke="black" points="279.3,-1075.5 430.59,-1075.5 "/>
<text text-anchor="middle" x="354.95" y="-1060.3" font-family="Times,serif" font-size="14.00">(None, None, None, 64)</text>
</g>
<!-- 140389195099920&#45;&gt;140390271396016 -->
<g id="edge4" class="edge">
<title>140389195099920-&gt;140390271396016</title>
<path fill="none" stroke="black" d="M295.39,-1134.33C295.39,-1126.18 295.39,-1116.7 295.39,-1107.8"/>
<polygon fill="black" stroke="black" points="298.89,-1107.73 295.39,-1097.73 291.89,-1107.73 298.89,-1107.73"/>
</g>
<!-- 140389766725744 -->
<g id="node6" class="node">
<title>140389766725744</title>
<polygon fill="none" stroke="black" points="160.18,-972.5 160.18,-1016.5 430.59,-1016.5 430.59,-972.5 160.18,-972.5"/>
<text text-anchor="middle" x="191.9" y="-990.3" font-family="Times,serif" font-size="14.00">Conv2D</text>
<polyline fill="none" stroke="black" points="223.63,-972.5 223.63,-1016.5 "/>
<text text-anchor="middle" x="251.46" y="-1001.3" font-family="Times,serif" font-size="14.00">input:</text>
<polyline fill="none" stroke="black" points="223.63,-994.5 279.3,-994.5 "/>
<text text-anchor="middle" x="251.46" y="-979.3" font-family="Times,serif" font-size="14.00">output:</text>
<polyline fill="none" stroke="black" points="279.3,-972.5 279.3,-1016.5 "/>
<text text-anchor="middle" x="354.95" y="-1001.3" font-family="Times,serif" font-size="14.00">(None, None, None, 64)</text>
<polyline fill="none" stroke="black" points="279.3,-994.5 430.59,-994.5 "/>
<text text-anchor="middle" x="354.95" y="-979.3" font-family="Times,serif" font-size="14.00">(None, None, None, 64)</text>
</g>
<!-- 140390271396016&#45;&gt;140389766725744 -->
<g id="edge5" class="edge">
<title>140390271396016-&gt;140389766725744</title>
<path fill="none" stroke="black" d="M295.39,-1053.33C295.39,-1045.18 295.39,-1035.7 295.39,-1026.8"/>
<polygon fill="black" stroke="black" points="298.89,-1026.73 295.39,-1016.73 291.89,-1026.73 298.89,-1026.73"/>
</g>
<!-- 140389766785344 -->
<g id="node7" class="node">
<title>140389766785344</title>
<polygon fill="none" stroke="black" points="16.73,-891.5 16.73,-935.5 326.04,-935.5 326.04,-891.5 16.73,-891.5"/>
<text text-anchor="middle" x="67.9" y="-909.3" font-family="Times,serif" font-size="14.00">MaxPooling2D</text>
<polyline fill="none" stroke="black" points="119.07,-891.5 119.07,-935.5 "/>
<text text-anchor="middle" x="146.91" y="-920.3" font-family="Times,serif" font-size="14.00">input:</text>
<polyline fill="none" stroke="black" points="119.07,-913.5 174.74,-913.5 "/>
<text text-anchor="middle" x="146.91" y="-898.3" font-family="Times,serif" font-size="14.00">output:</text>
<polyline fill="none" stroke="black" points="174.74,-891.5 174.74,-935.5 "/>
<text text-anchor="middle" x="250.39" y="-920.3" font-family="Times,serif" font-size="14.00">(None, None, None, 64)</text>
<polyline fill="none" stroke="black" points="174.74,-913.5 326.04,-913.5 "/>
<text text-anchor="middle" x="250.39" y="-898.3" font-family="Times,serif" font-size="14.00">(None, None, None, 64)</text>
</g>
<!-- 140389766725744&#45;&gt;140389766785344 -->
<g id="edge6" class="edge">
<title>140389766725744-&gt;140389766785344</title>
<path fill="none" stroke="black" d="M262.16,-972.33C247.15,-962.77 229.24,-951.36 213.32,-941.22"/>
<polygon fill="black" stroke="black" points="215.02,-938.15 204.71,-935.73 211.26,-944.05 215.02,-938.15"/>
</g>
<!-- 140388946055024 -->
<g id="node11" class="node">
<title>140388946055024</title>
<polygon fill="none" stroke="black" points="0,-567.5 0,-611.5 450.77,-611.5 450.77,-567.5 0,-567.5"/>
<text text-anchor="middle" x="42.59" y="-585.3" font-family="Times,serif" font-size="14.00">Concatenate</text>
<polyline fill="none" stroke="black" points="85.19,-567.5 85.19,-611.5 "/>
<text text-anchor="middle" x="113.02" y="-596.3" font-family="Times,serif" font-size="14.00">input:</text>
<polyline fill="none" stroke="black" points="85.19,-589.5 140.86,-589.5 "/>
<text text-anchor="middle" x="113.02" y="-574.3" font-family="Times,serif" font-size="14.00">output:</text>
<polyline fill="none" stroke="black" points="140.86,-567.5 140.86,-611.5 "/>
<text text-anchor="middle" x="295.81" y="-596.3" font-family="Times,serif" font-size="14.00">[(None, None, None, 64), (None, None, None, 128)]</text>
<polyline fill="none" stroke="black" points="140.86,-589.5 450.77,-589.5 "/>
<text text-anchor="middle" x="295.5" y="-574.3" font-family="Times,serif" font-size="14.00">(None, None, None, 192)</text>
</g>
<!-- 140389766725744&#45;&gt;140388946055024 -->
<g id="edge10" class="edge">
<title>140389766725744-&gt;140388946055024</title>
<path fill="none" stroke="black" d="M313.31,-972.4C321.23,-962.04 329.95,-949.02 335.39,-936 353.24,-893.25 354.39,-879.83 354.39,-833.5 354.39,-833.5 354.39,-833.5 354.39,-750.5 354.39,-704.17 362.91,-685.27 335.39,-648 325.69,-634.87 312.09,-624.47 297.76,-616.34"/>
<polygon fill="black" stroke="black" points="299.24,-613.16 288.76,-611.57 295.96,-619.35 299.24,-613.16"/>
</g>
<!-- 140389766824144 -->
<g id="node8" class="node">
<title>140389766824144</title>
<polygon fill="none" stroke="black" points="31.68,-810.5 31.68,-854.5 309.09,-854.5 309.09,-810.5 31.68,-810.5"/>
<text text-anchor="middle" x="63.4" y="-828.3" font-family="Times,serif" font-size="14.00">Conv2D</text>
<polyline fill="none" stroke="black" points="95.13,-810.5 95.13,-854.5 "/>
<text text-anchor="middle" x="122.96" y="-839.3" font-family="Times,serif" font-size="14.00">input:</text>
<polyline fill="none" stroke="black" points="95.13,-832.5 150.8,-832.5 "/>
<text text-anchor="middle" x="122.96" y="-817.3" font-family="Times,serif" font-size="14.00">output:</text>
<polyline fill="none" stroke="black" points="150.8,-810.5 150.8,-854.5 "/>
<text text-anchor="middle" x="229.95" y="-839.3" font-family="Times,serif" font-size="14.00">(None, None, None, 64)</text>
<polyline fill="none" stroke="black" points="150.8,-832.5 309.09,-832.5 "/>
<text text-anchor="middle" x="229.95" y="-817.3" font-family="Times,serif" font-size="14.00">(None, None, None, 128)</text>
</g>
<!-- 140389766785344&#45;&gt;140389766824144 -->
<g id="edge7" class="edge">
<title>140389766785344-&gt;140389766824144</title>
<path fill="none" stroke="black" d="M171.12,-891.33C171.02,-883.18 170.9,-873.7 170.78,-864.8"/>
<polygon fill="black" stroke="black" points="174.28,-864.68 170.66,-854.73 167.28,-864.77 174.28,-864.68"/>
</g>
<!-- 140389766827216 -->
<g id="node9" class="node">
<title>140389766827216</title>
<polygon fill="none" stroke="black" points="29.68,-729.5 29.68,-773.5 307.09,-773.5 307.09,-729.5 29.68,-729.5"/>
<text text-anchor="middle" x="61.4" y="-747.3" font-family="Times,serif" font-size="14.00">Conv2D</text>
<polyline fill="none" stroke="black" points="93.13,-729.5 93.13,-773.5 "/>
<text text-anchor="middle" x="120.96" y="-758.3" font-family="Times,serif" font-size="14.00">input:</text>
<polyline fill="none" stroke="black" points="93.13,-751.5 148.8,-751.5 "/>
<text text-anchor="middle" x="120.96" y="-736.3" font-family="Times,serif" font-size="14.00">output:</text>
<polyline fill="none" stroke="black" points="148.8,-729.5 148.8,-773.5 "/>
<text text-anchor="middle" x="227.95" y="-758.3" font-family="Times,serif" font-size="14.00">(None, None, None, 128)</text>
<polyline fill="none" stroke="black" points="148.8,-751.5 307.09,-751.5 "/>
<text text-anchor="middle" x="227.95" y="-736.3" font-family="Times,serif" font-size="14.00">(None, None, None, 128)</text>
</g>
<!-- 140389766824144&#45;&gt;140389766827216 -->
<g id="edge8" class="edge">
<title>140389766824144-&gt;140389766827216</title>
<path fill="none" stroke="black" d="M169.85,-810.33C169.64,-802.18 169.4,-792.7 169.18,-783.8"/>
<polygon fill="black" stroke="black" points="172.68,-783.64 168.92,-773.73 165.68,-783.81 172.68,-783.64"/>
</g>
<!-- 140389766826928 -->
<g id="node10" class="node">
<title>140389766826928</title>
<polygon fill="none" stroke="black" points="8.46,-648.5 8.46,-692.5 326.31,-692.5 326.31,-648.5 8.46,-648.5"/>
<text text-anchor="middle" x="60.4" y="-666.3" font-family="Times,serif" font-size="14.00">UpSampling2D</text>
<polyline fill="none" stroke="black" points="112.35,-648.5 112.35,-692.5 "/>
<text text-anchor="middle" x="140.18" y="-677.3" font-family="Times,serif" font-size="14.00">input:</text>
<polyline fill="none" stroke="black" points="112.35,-670.5 168.02,-670.5 "/>
<text text-anchor="middle" x="140.18" y="-655.3" font-family="Times,serif" font-size="14.00">output:</text>
<polyline fill="none" stroke="black" points="168.02,-648.5 168.02,-692.5 "/>
<text text-anchor="middle" x="247.17" y="-677.3" font-family="Times,serif" font-size="14.00">(None, None, None, 128)</text>
<polyline fill="none" stroke="black" points="168.02,-670.5 326.31,-670.5 "/>
<text text-anchor="middle" x="247.17" y="-655.3" font-family="Times,serif" font-size="14.00">(None, None, None, 128)</text>
</g>
<!-- 140389766827216&#45;&gt;140389766826928 -->
<g id="edge9" class="edge">
<title>140389766827216-&gt;140389766826928</title>
<path fill="none" stroke="black" d="M168.12,-729.33C168.02,-721.18 167.9,-711.7 167.78,-702.8"/>
<polygon fill="black" stroke="black" points="171.28,-702.68 167.66,-692.73 164.28,-702.77 171.28,-702.68"/>
</g>
<!-- 140389766826928&#45;&gt;140388946055024 -->
<g id="edge11" class="edge">
<title>140389766826928-&gt;140388946055024</title>
<path fill="none" stroke="black" d="M182.93,-648.33C189.3,-639.65 196.79,-629.46 203.68,-620.06"/>
<polygon fill="black" stroke="black" points="206.7,-621.86 209.8,-611.73 201.06,-617.72 206.7,-621.86"/>
</g>
<!-- 140389766728960 -->
<g id="node12" class="node">
<title>140389766728960</title>
<polygon fill="none" stroke="black" points="95.68,-486.5 95.68,-530.5 373.09,-530.5 373.09,-486.5 95.68,-486.5"/>
<text text-anchor="middle" x="127.4" y="-504.3" font-family="Times,serif" font-size="14.00">Conv2D</text>
<polyline fill="none" stroke="black" points="159.13,-486.5 159.13,-530.5 "/>
<text text-anchor="middle" x="186.96" y="-515.3" font-family="Times,serif" font-size="14.00">input:</text>
<polyline fill="none" stroke="black" points="159.13,-508.5 214.8,-508.5 "/>
<text text-anchor="middle" x="186.96" y="-493.3" font-family="Times,serif" font-size="14.00">output:</text>
<polyline fill="none" stroke="black" points="214.8,-486.5 214.8,-530.5 "/>
<text text-anchor="middle" x="293.95" y="-515.3" font-family="Times,serif" font-size="14.00">(None, None, None, 192)</text>
<polyline fill="none" stroke="black" points="214.8,-508.5 373.09,-508.5 "/>
<text text-anchor="middle" x="293.95" y="-493.3" font-family="Times,serif" font-size="14.00">(None, None, None, 64)</text>
</g>
<!-- 140388946055024&#45;&gt;140389766728960 -->
<g id="edge12" class="edge">
<title>140388946055024-&gt;140389766728960</title>
<path fill="none" stroke="black" d="M227.8,-567.33C228.73,-559.18 229.81,-549.7 230.82,-540.8"/>
<polygon fill="black" stroke="black" points="234.31,-541.06 231.97,-530.73 227.36,-540.27 234.31,-541.06"/>
</g>
<!-- 140389766849920 -->
<g id="node13" class="node">
<title>140389766849920</title>
<polygon fill="none" stroke="black" points="134.18,-405.5 134.18,-449.5 404.59,-449.5 404.59,-405.5 134.18,-405.5"/>
<text text-anchor="middle" x="165.9" y="-423.3" font-family="Times,serif" font-size="14.00">Conv2D</text>
<polyline fill="none" stroke="black" points="197.63,-405.5 197.63,-449.5 "/>
<text text-anchor="middle" x="225.46" y="-434.3" font-family="Times,serif" font-size="14.00">input:</text>
<polyline fill="none" stroke="black" points="197.63,-427.5 253.3,-427.5 "/>
<text text-anchor="middle" x="225.46" y="-412.3" font-family="Times,serif" font-size="14.00">output:</text>
<polyline fill="none" stroke="black" points="253.3,-405.5 253.3,-449.5 "/>
<text text-anchor="middle" x="328.95" y="-434.3" font-family="Times,serif" font-size="14.00">(None, None, None, 64)</text>
<polyline fill="none" stroke="black" points="253.3,-427.5 404.59,-427.5 "/>
<text text-anchor="middle" x="328.95" y="-412.3" font-family="Times,serif" font-size="14.00">(None, None, None, 64)</text>
</g>
<!-- 140389766728960&#45;&gt;140389766849920 -->
<g id="edge13" class="edge">
<title>140389766728960-&gt;140389766849920</title>
<path fill="none" stroke="black" d="M243.77,-486.33C247.49,-477.92 251.85,-468.08 255.91,-458.93"/>
<polygon fill="black" stroke="black" points="259.13,-460.29 259.98,-449.73 252.73,-457.45 259.13,-460.29"/>
</g>
<!-- 140389766880800 -->
<g id="node14" class="node">
<title>140389766880800</title>
<polygon fill="none" stroke="black" points="130.96,-324.5 130.96,-368.5 441.81,-368.5 441.81,-324.5 130.96,-324.5"/>
<text text-anchor="middle" x="182.9" y="-342.3" font-family="Times,serif" font-size="14.00">UpSampling2D</text>
<polyline fill="none" stroke="black" points="234.85,-324.5 234.85,-368.5 "/>
<text text-anchor="middle" x="262.68" y="-353.3" font-family="Times,serif" font-size="14.00">input:</text>
<polyline fill="none" stroke="black" points="234.85,-346.5 290.52,-346.5 "/>
<text text-anchor="middle" x="262.68" y="-331.3" font-family="Times,serif" font-size="14.00">output:</text>
<polyline fill="none" stroke="black" points="290.52,-324.5 290.52,-368.5 "/>
<text text-anchor="middle" x="366.17" y="-353.3" font-family="Times,serif" font-size="14.00">(None, None, None, 64)</text>
<polyline fill="none" stroke="black" points="290.52,-346.5 441.81,-346.5 "/>
<text text-anchor="middle" x="366.17" y="-331.3" font-family="Times,serif" font-size="14.00">(None, None, None, 64)</text>
</g>
<!-- 140389766849920&#45;&gt;140389766880800 -->
<g id="edge14" class="edge">
<title>140389766849920-&gt;140389766880800</title>
<path fill="none" stroke="black" d="M273.94,-405.33C275.71,-397.09 277.78,-387.49 279.71,-378.51"/>
<polygon fill="black" stroke="black" points="283.14,-379.24 281.82,-368.73 276.29,-377.77 283.14,-379.24"/>
</g>
<!-- 140389766880800&#45;&gt;140388949151072 -->
<g id="edge16" class="edge">
<title>140389766880800-&gt;140388949151072</title>
<path fill="none" stroke="black" d="M310.77,-324.33C321.38,-315.12 333.96,-304.2 345.31,-294.35"/>
<polygon fill="black" stroke="black" points="347.68,-296.93 352.93,-287.73 343.09,-291.64 347.68,-296.93"/>
</g>
<!-- 140389766878928 -->
<g id="node16" class="node">
<title>140389766878928</title>
<polygon fill="none" stroke="black" points="242.18,-162.5 242.18,-206.5 512.59,-206.5 512.59,-162.5 242.18,-162.5"/>
<text text-anchor="middle" x="273.9" y="-180.3" font-family="Times,serif" font-size="14.00">Conv2D</text>
<polyline fill="none" stroke="black" points="305.63,-162.5 305.63,-206.5 "/>
<text text-anchor="middle" x="333.46" y="-191.3" font-family="Times,serif" font-size="14.00">input:</text>
<polyline fill="none" stroke="black" points="305.63,-184.5 361.3,-184.5 "/>
<text text-anchor="middle" x="333.46" y="-169.3" font-family="Times,serif" font-size="14.00">output:</text>
<polyline fill="none" stroke="black" points="361.3,-162.5 361.3,-206.5 "/>
<text text-anchor="middle" x="436.95" y="-191.3" font-family="Times,serif" font-size="14.00">(None, None, None, 96)</text>
<polyline fill="none" stroke="black" points="361.3,-184.5 512.59,-184.5 "/>
<text text-anchor="middle" x="436.95" y="-169.3" font-family="Times,serif" font-size="14.00">(None, None, None, 32)</text>
</g>
<!-- 140388949151072&#45;&gt;140389766878928 -->
<g id="edge17" class="edge">
<title>140388949151072-&gt;140389766878928</title>
<path fill="none" stroke="black" d="M377.39,-243.33C377.39,-235.18 377.39,-225.7 377.39,-216.8"/>
<polygon fill="black" stroke="black" points="380.89,-216.73 377.39,-206.73 373.89,-216.73 380.89,-216.73"/>
</g>
<!-- 140389766908512 -->
<g id="node17" class="node">
<title>140389766908512</title>
<polygon fill="none" stroke="black" points="242.18,-81.5 242.18,-125.5 512.59,-125.5 512.59,-81.5 242.18,-81.5"/>
<text text-anchor="middle" x="273.9" y="-99.3" font-family="Times,serif" font-size="14.00">Conv2D</text>
<polyline fill="none" stroke="black" points="305.63,-81.5 305.63,-125.5 "/>
<text text-anchor="middle" x="333.46" y="-110.3" font-family="Times,serif" font-size="14.00">input:</text>
<polyline fill="none" stroke="black" points="305.63,-103.5 361.3,-103.5 "/>
<text text-anchor="middle" x="333.46" y="-88.3" font-family="Times,serif" font-size="14.00">output:</text>
<polyline fill="none" stroke="black" points="361.3,-81.5 361.3,-125.5 "/>
<text text-anchor="middle" x="436.95" y="-110.3" font-family="Times,serif" font-size="14.00">(None, None, None, 32)</text>
<polyline fill="none" stroke="black" points="361.3,-103.5 512.59,-103.5 "/>
<text text-anchor="middle" x="436.95" y="-88.3" font-family="Times,serif" font-size="14.00">(None, None, None, 32)</text>
</g>
<!-- 140389766878928&#45;&gt;140389766908512 -->
<g id="edge18" class="edge">
<title>140389766878928-&gt;140389766908512</title>
<path fill="none" stroke="black" d="M377.39,-162.33C377.39,-154.18 377.39,-144.7 377.39,-135.8"/>
<polygon fill="black" stroke="black" points="380.89,-135.73 377.39,-125.73 373.89,-135.73 380.89,-135.73"/>
</g>
<!-- 140389766851456 -->
<g id="node18" class="node">
<title>140389766851456</title>
<polygon fill="none" stroke="black" points="242.18,-0.5 242.18,-44.5 512.59,-44.5 512.59,-0.5 242.18,-0.5"/>
<text text-anchor="middle" x="273.9" y="-18.3" font-family="Times,serif" font-size="14.00">Conv2D</text>
<polyline fill="none" stroke="black" points="305.63,-0.5 305.63,-44.5 "/>
<text text-anchor="middle" x="333.46" y="-29.3" font-family="Times,serif" font-size="14.00">input:</text>
<polyline fill="none" stroke="black" points="305.63,-22.5 361.3,-22.5 "/>
<text text-anchor="middle" x="333.46" y="-7.3" font-family="Times,serif" font-size="14.00">output:</text>
<polyline fill="none" stroke="black" points="361.3,-0.5 361.3,-44.5 "/>
<text text-anchor="middle" x="436.95" y="-29.3" font-family="Times,serif" font-size="14.00">(None, None, None, 32)</text>
<polyline fill="none" stroke="black" points="361.3,-22.5 512.59,-22.5 "/>
<text text-anchor="middle" x="436.95" y="-7.3" font-family="Times,serif" font-size="14.00">(None, None, None, 1)</text>
</g>
<!-- 140389766908512&#45;&gt;140389766851456 -->
<g id="edge19" class="edge">
<title>140389766908512-&gt;140389766851456</title>
<path fill="none" stroke="black" d="M377.39,-81.33C377.39,-73.18 377.39,-63.7 377.39,-54.8"/>
<polygon fill="black" stroke="black" points="380.89,-54.73 377.39,-44.73 373.89,-54.73 380.89,-54.73"/>
</g>
</g>
</svg>