<?xml version="1.0" encoding="UTF-8" standalone="no"?>
<!DOCTYPE svg PUBLIC "-//W3C//DTD SVG 1.1//EN"
 "http://www.w3.org/Graphics/SVG/1.1/DTD/svg11.dtd">
<!-- Generated by graphviz version 2.42.3 (20191010.1750)
 -->
<!-- Title: Tree Pages: 1 -->
<svg width="320pt" height="258pt"
 viewBox="0.00 0.00 319.54 258.00" xmlns="http://www.w3.org/2000/svg" xmlns:xlink="http://www.w3.org/1999/xlink">
<g id="graph0" class="graph" transform="scale(1 1) rotate(0) translate(4 254)">
<title>Tree</title>
<polygon fill="white" stroke="transparent" points="-4,4 -4,-254 315.54,-254 315.54,4 -4,4"/>
<!-- 0 -->
<g id="node1" class="node">
<title>0</title>
<polygon fill="none" stroke="black" points="186.31,-250 60.23,-250 60.23,-186 186.31,-186 186.31,-250"/>
<text text-anchor="middle" x="123.27" y="-234.8" font-family="Times,serif" font-size="14.00">X[1] &lt;= &#45;6.472</text>
<text text-anchor="middle" x="123.27" y="-220.8" font-family="Times,serif" font-size="14.00">gini = 0.667</text>
<text text-anchor="middle" x="123.27" y="-206.8" font-family="Times,serif" font-size="14.00">samples = 100</text>
<text text-anchor="middle" x="123.27" y="-192.8" font-family="Times,serif" font-size="14.00">value = [34, 33, 33]</text>
</g>
<!-- 1 -->
<g id="node2" class="node">
<title>1</title>
<polygon fill="none" stroke="black" points="112.31,-143 0.23,-143 0.23,-93 112.31,-93 112.31,-143"/>
<text text-anchor="middle" x="56.27" y="-127.8" font-family="Times,serif" font-size="14.00">gini = 0.0</text>
<text text-anchor="middle" x="56.27" y="-113.8" font-family="Times,serif" font-size="14.00">samples = 34</text>
<text text-anchor="middle" x="56.27" y="-99.8" font-family="Times,serif" font-size="14.00">value = [34, 0, 0]</text>
</g>
<!-- 0&#45;&gt;1 -->
<g id="edge1" class="edge">
<title>0&#45;&gt;1</title>
<path fill="none" stroke="black" d="M102.07,-185.99C94.63,-175.11 86.25,-162.85 78.71,-151.82"/>
<polygon fill="black" stroke="black" points="81.41,-149.57 72.87,-143.29 75.63,-153.52 81.41,-149.57"/>
<text text-anchor="middle" x="68.26" y="-163.66" font-family="Times,serif" font-size="14.00">True</text>
</g>
<!-- 2 -->
<g id="node3" class="node">
<title>2</title>
<polygon fill="none" stroke="black" points="249.81,-150 130.73,-150 130.73,-86 249.81,-86 249.81,-150"/>
<text text-anchor="middle" x="190.27" y="-134.8" font-family="Times,serif" font-size="14.00">X[1] &lt;= &#45;1.399</text>
<text text-anchor="middle" x="190.27" y="-120.8" font-family="Times,serif" font-size="14.00">gini = 0.5</text>
<text text-anchor="middle" x="190.27" y="-106.8" font-family="Times,serif" font-size="14.00">samples = 66</text>
<text text-anchor="middle" x="190.27" y="-92.8" font-family="Times,serif" font-size="14.00">value = [0, 33, 33]</text>
</g>
<!-- 0&#45;&gt;2 -->
<g id="edge2" class="edge">
<title>0&#45;&gt;2</title>
<path fill="none" stroke="black" d="M144.47,-185.99C150.46,-177.23 157.05,-167.58 163.33,-158.4"/>
<polygon fill="black" stroke="black" points="166.22,-160.37 168.98,-150.14 160.44,-156.42 166.22,-160.37"/>
<text text-anchor="middle" x="173.59" y="-170.51" font-family="Times,serif" font-size="14.00">False</text>
</g>
<!-- 3 -->
<g id="node4" class="node">
<title>3</title>
<polygon fill="none" stroke="black" points="180.31,-50 68.23,-50 68.23,0 180.31,0 180.31,-50"/>
<text text-anchor="middle" x="124.27" y="-34.8" font-family="Times,serif" font-size="14.00">gini = 0.0</text>
<text text-anchor="middle" x="124.27" y="-20.8" font-family="Times,serif" font-size="14.00">samples = 33</text>
<text text-anchor="middle" x="124.27" y="-6.8" font-family="Times,serif" font-size="14.00">value = [0, 33, 0]</text>
</g>
<!-- 2&#45;&gt;3 -->
<g id="edge3" class="edge">
<title>2&#45;&gt;3</title>
<path fill="none" stroke="black" d="M167.74,-85.94C161.29,-77.04 154.24,-67.32 147.73,-58.35"/>
<polygon fill="black" stroke="black" points="150.4,-56.07 141.7,-50.03 144.73,-60.18 150.4,-56.07"/>
</g>
<!-- 4 -->
<g id="node5" class="node">
<title>4</title>
<polygon fill="none" stroke="black" points="311.31,-50 199.23,-50 199.23,0 311.31,0 311.31,-50"/>
<text text-anchor="middle" x="255.27" y="-34.8" font-family="Times,serif" font-size="14.00">gini = 0.0</text>
<text text-anchor="middle" x="255.27" y="-20.8" font-family="Times,serif" font-size="14.00">samples = 33</text>
<text text-anchor="middle" x="255.27" y="-6.8" font-family="Times,serif" font-size="14.00">value = [0, 0, 33]</text>
</g>
<!-- 2&#45;&gt;4 -->
<g id="edge4" class="edge">
<title>2&#45;&gt;4</title>
<path fill="none" stroke="black" d="M212.46,-85.94C218.81,-77.04 225.75,-67.32 232.16,-58.35"/>
<polygon fill="black" stroke="black" points="235.14,-60.2 238.1,-50.03 229.44,-56.13 235.14,-60.2"/>
</g>
</g>
</svg>
