<?xml version="1.0" encoding="UTF-8" standalone="no"?>
<!DOCTYPE svg PUBLIC "-//W3C//DTD SVG 1.1//EN"
 "http://www.w3.org/Graphics/SVG/1.1/DTD/svg11.dtd">
<!-- Generated by graphviz version 2.42.3 (20191010.1750)
 -->
<!-- Title: Tree Pages: 1 -->
<svg width="320pt" height="358pt"
 viewBox="0.00 0.00 319.54 358.00" xmlns="http://www.w3.org/2000/svg" xmlns:xlink="http://www.w3.org/1999/xlink">
<g id="graph0" class="graph" transform="scale(1 1) rotate(0) translate(4 354)">
<title>Tree</title>
<polygon fill="white" stroke="transparent" points="-4,4 -4,-354 315.54,-354 315.54,4 -4,4"/>
<!-- 0 -->
<g id="node1" class="node">
<title>0</title>
<polygon fill="none" stroke="black" points="146.31,-350 55.23,-350 55.23,-286 146.31,-286 146.31,-350"/>
<text text-anchor="middle" x="100.77" y="-334.8" font-family="Times,serif" font-size="14.00">X[0] &lt;= 0.5</text>
<text text-anchor="middle" x="100.77" y="-320.8" font-family="Times,serif" font-size="14.00">gini = 0.5</text>
<text text-anchor="middle" x="100.77" y="-306.8" font-family="Times,serif" font-size="14.00">samples = 4</text>
<text text-anchor="middle" x="100.77" y="-292.8" font-family="Times,serif" font-size="14.00">value = [2, 2]</text>
</g>
<!-- 1 -->
<g id="node2" class="node">
<title>1</title>
<polygon fill="none" stroke="black" points="91.31,-243 0.23,-243 0.23,-193 91.31,-193 91.31,-243"/>
<text text-anchor="middle" x="45.77" y="-227.8" font-family="Times,serif" font-size="14.00">gini = 0.0</text>
<text text-anchor="middle" x="45.77" y="-213.8" font-family="Times,serif" font-size="14.00">samples = 1</text>
<text text-anchor="middle" x="45.77" y="-199.8" font-family="Times,serif" font-size="14.00">value = [1, 0]</text>
</g>
<!-- 0&#45;&gt;1 -->
<g id="edge1" class="edge">
<title>0&#45;&gt;1</title>
<path fill="none" stroke="black" d="M83.37,-285.99C77.32,-275.22 70.51,-263.09 64.37,-252.15"/>
<polygon fill="black" stroke="black" points="67.35,-250.3 59.4,-243.29 61.24,-253.72 67.35,-250.3"/>
<text text-anchor="middle" x="52.64" y="-263.16" font-family="Times,serif" font-size="14.00">True</text>
</g>
<!-- 2 -->
<g id="node3" class="node">
<title>2</title>
<polygon fill="none" stroke="black" points="201.31,-250 110.23,-250 110.23,-186 201.31,-186 201.31,-250"/>
<text text-anchor="middle" x="155.77" y="-234.8" font-family="Times,serif" font-size="14.00">X[0] &lt;= 1.5</text>
<text text-anchor="middle" x="155.77" y="-220.8" font-family="Times,serif" font-size="14.00">gini = 0.444</text>
<text text-anchor="middle" x="155.77" y="-206.8" font-family="Times,serif" font-size="14.00">samples = 3</text>
<text text-anchor="middle" x="155.77" y="-192.8" font-family="Times,serif" font-size="14.00">value = [1, 2]</text>
</g>
<!-- 0&#45;&gt;2 -->
<g id="edge2" class="edge">
<title>0&#45;&gt;2</title>
<path fill="none" stroke="black" d="M118.17,-285.99C122.99,-277.41 128.28,-267.98 133.34,-258.97"/>
<polygon fill="black" stroke="black" points="136.45,-260.58 138.29,-250.14 130.34,-257.15 136.45,-260.58"/>
<text text-anchor="middle" x="145.05" y="-270.01" font-family="Times,serif" font-size="14.00">False</text>
</g>
<!-- 3 -->
<g id="node4" class="node">
<title>3</title>
<polygon fill="none" stroke="black" points="146.31,-143 55.23,-143 55.23,-93 146.31,-93 146.31,-143"/>
<text text-anchor="middle" x="100.77" y="-127.8" font-family="Times,serif" font-size="14.00">gini = 0.0</text>
<text text-anchor="middle" x="100.77" y="-113.8" font-family="Times,serif" font-size="14.00">samples = 1</text>
<text text-anchor="middle" x="100.77" y="-99.8" font-family="Times,serif" font-size="14.00">value = [0, 1]</text>
</g>
<!-- 2&#45;&gt;3 -->
<g id="edge3" class="edge">
<title>2&#45;&gt;3</title>
<path fill="none" stroke="black" d="M138.37,-185.99C132.32,-175.22 125.51,-163.09 119.37,-152.15"/>
<polygon fill="black" stroke="black" points="122.35,-150.3 114.4,-143.29 116.24,-153.72 122.35,-150.3"/>
</g>
<!-- 4 -->
<g id="node5" class="node">
<title>4</title>
<polygon fill="none" stroke="black" points="256.31,-150 165.23,-150 165.23,-86 256.31,-86 256.31,-150"/>
<text text-anchor="middle" x="210.77" y="-134.8" font-family="Times,serif" font-size="14.00">X[0] &lt;= 2.5</text>
<text text-anchor="middle" x="210.77" y="-120.8" font-family="Times,serif" font-size="14.00">gini = 0.5</text>
<text text-anchor="middle" x="210.77" y="-106.8" font-family="Times,serif" font-size="14.00">samples = 2</text>
<text text-anchor="middle" x="210.77" y="-92.8" font-family="Times,serif" font-size="14.00">value = [1, 1]</text>
</g>
<!-- 2&#45;&gt;4 -->
<g id="edge4" class="edge">
<title>2&#45;&gt;4</title>
<path fill="none" stroke="black" d="M173.17,-185.99C177.99,-177.41 183.28,-167.98 188.34,-158.97"/>
<polygon fill="black" stroke="black" points="191.45,-160.58 193.29,-150.14 185.34,-157.15 191.45,-160.58"/>
</g>
<!-- 5 -->
<g id="node6" class="node">
<title>5</title>
<polygon fill="none" stroke="black" points="201.31,-50 110.23,-50 110.23,0 201.31,0 201.31,-50"/>
<text text-anchor="middle" x="155.77" y="-34.8" font-family="Times,serif" font-size="14.00">gini = 0.0</text>
<text text-anchor="middle" x="155.77" y="-20.8" font-family="Times,serif" font-size="14.00">samples = 1</text>
<text text-anchor="middle" x="155.77" y="-6.8" font-family="Times,serif" font-size="14.00">value = [1, 0]</text>
</g>
<!-- 4&#45;&gt;5 -->
<g id="edge5" class="edge">
<title>4&#45;&gt;5</title>
<path fill="none" stroke="black" d="M191.99,-85.94C186.67,-77.13 180.87,-67.52 175.49,-58.63"/>
<polygon fill="black" stroke="black" points="178.46,-56.78 170.29,-50.03 172.47,-60.4 178.46,-56.78"/>
</g>
<!-- 6 -->
<g id="node7" class="node">
<title>6</title>
<polygon fill="none" stroke="black" points="311.31,-50 220.23,-50 220.23,0 311.31,0 311.31,-50"/>
<text text-anchor="middle" x="265.77" y="-34.8" font-family="Times,serif" font-size="14.00">gini = 0.0</text>
<text text-anchor="middle" x="265.77" y="-20.8" font-family="Times,serif" font-size="14.00">samples = 1</text>
<text text-anchor="middle" x="265.77" y="-6.8" font-family="Times,serif" font-size="14.00">value = [0, 1]</text>
</g>
<!-- 4&#45;&gt;6 -->
<g id="edge6" class="edge">
<title>4&#45;&gt;6</title>
<path fill="none" stroke="black" d="M229.54,-85.94C234.86,-77.13 240.67,-67.52 246.05,-58.63"/>
<polygon fill="black" stroke="black" points="249.07,-60.4 251.24,-50.03 243.08,-56.78 249.07,-60.4"/>
</g>
</g>
</svg>
