<?xml version="1.0" encoding="UTF-8"?>
<svg width="100pt" height="100pt" version="1.1" viewBox="0 0 100 100" xmlns="http://www.w3.org/2000/svg">
 <g>
  <path d="m26 60h8v29h-8z"/>
  <path d="m73.199 61.5c-1.1992-1.3984-3.1992-1.5-4.1992-1.5h-12.602c0.60156-7 0.80078-12.398-1.3008-14.801-0.69922-0.80078-1.5-1.1992-2.5-1.3008-2.8008 0-3.1016 2.6992-3.6016 5-0.80078 3.8984-2 9.3008-11 11.602l0.003906 23.5h1.3008c4 0 5.3008 0.89844 7.1016 2 2.1016 1.3008 4.5 2.8984 11.199 2.8984 15.102 0 15.398-3.6992 16.602-19.398l0.30078-3.3984c0.097656-1.9023-0.30469-3.6016-1.3047-4.6016z"/>
  <path d="m57.102 11.699l-3.1992-1.8984c-0.5-0.30078-1.1016-0.39844-1.6992-0.39844-2.3008 0-5 2.1016-6.8984 5.3008-1.1016 1.8984-1.6992 3.8984-1.8008 5.6016-0.10156 2 0.60156 3.5 1.8984 4.1992l3.1992 1.8984c0.5 0.30078 1.1016 0.39844 1.6992 0.39844 0.89844 0 1.8984-0.30078 2.8984-0.89844 1.5-0.89844 2.8984-2.5 4-4.3008 1.1016-1.8008 1.6992-3.8984 1.8008-5.6016 0-2-0.69922-3.5-1.8984-4.3008zm-0.20312 4.1992c0 1-0.30078 2-0.69922 3.1016l-1.5-0.89844c0.60156-1.3984 0.89844-2.8008 1-4v-0.80078l0.39844 0.19922c0.50391 0.30078 0.90234 1.1992 0.80078 2.3984zm-2.3984 6.1016l-1.5-0.89844c0.30078-0.39844 0.5-0.80078 0.80078-1.1992l1.5 0.89844c-0.19922 0.39844-0.5 0.80078-0.80078 1.1992zm-1.8008 1.8008l-1.3984-0.80078c0.10156-0.10156 0.30078-0.19922 0.39844-0.30078l1.3984 0.80078c-0.097656 0.10156-0.19922 0.19922-0.39844 0.30078zm-5.6992-8.1016c1.6016-2.8008 3.8008-4.3008 5.1992-4.3008 0.30078 0 0.5 0.10156 0.69922 0.19922 0.60156 0.30078 0.89844 1.1992 0.89844 2.3984 0 1.3984-0.60156 3.1016-1.5 4.6992-1.6016 2.8008-3.8008 4.3008-5.1992 4.3008-0.30078 0-0.5-0.10156-0.69922-0.19922-0.60156-0.30078-0.89844-1.1992-0.89844-2.3984 0-1.5 0.5-3.0977 1.5-4.6992zm2.6016 9l-0.39844-0.19922c0.10156-0.10156 0.19922-0.10156 0.39844-0.19922l1 0.60156c-0.40234-0.003906-0.80078-0.10156-1-0.20312z"/>
 </g>
</svg>
