<?xml version="1.0" encoding="UTF-8"?>
<svg width="100pt" height="100pt" version="1.1" viewBox="0 0 100 100" xmlns="http://www.w3.org/2000/svg">
 <g>
  <path d="m95.832 4.168h-81.25v35.207h4.168v-31.043h72.918v62.5h-16.875v4.168h21.039z"/>
  <path d="m15.625 56.25c0 6.875 5.625 12.5 12.5 12.5s12.5-5.625 12.5-12.5-5.625-12.5-12.5-12.5-12.5 5.625-12.5 12.5z"/>
  <path d="m52.082 85.625c0-7.5-5.625-13.125-13.645-13.75h-0.9375l-0.625 0.625c-2.3945 2.293-5.5195 3.543-8.75 3.543s-6.3555-1.25-8.75-3.543l-0.625-0.625h-0.9375c-8.0195 0.625-13.645 6.25-13.645 13.75v10.207h47.918z"/>
  <path d="m44.793 60.418c0 5.7305 4.6875 10.418 10.418 10.418 5.7305 0 10.418-4.6875 10.418-10.418s-4.6875-10.418-10.418-10.418c-5.7305 0-10.418 4.6875-10.418 10.418z"/>
  <path d="m73.957 84.375c0-5.7305-4.6875-10.418-10.418-10.418h-1.9805l-0.625 0.625c-1.5586 1.668-3.4336 2.5-5.7266 2.5v4.168c3.125 0 5.9375-1.043 8.125-3.125h0.21094c3.4375 0 6.25 2.8125 6.25 6.25v3.125h-14.586v4.168h18.75z"/>
  <path d="m62.5 17.188c-3.75 0-7.1875 1.457-9.8945 4.0625-2.6055 2.6055-4.0625 6.1445-4.0625 9.8945 0 7.707 6.25 13.957 13.957 13.957 3.75 0 7.1875-1.457 9.8945-4.0625 2.707-2.6055 4.0625-6.1445 4.0625-9.8945v-1.5625h-12.395v-12.395z"/>
  <path d="m81.668 26.145c0-3.75-1.457-7.1875-4.0625-9.8945-2.6055-2.6055-6.1445-4.0625-9.8945-4.0625h-1.5625v15.52h15.52z"/>
  <path d="m28.855 23.125h13.23v3.125h-13.23z"/>
  <path d="m29.48 28.855h9.6875v3.125h-9.6875z"/>
  <path d="m29.48 34.582h7.6055v3.125h-7.6055z"/>
 </g>
</svg>
