<?xml version="1.0" encoding="UTF-8"?>
<svg width="100pt" height="100pt" version="1.1" viewBox="0 0 100 100" xmlns="http://www.w3.org/2000/svg">
 <g>
  <path d="m87.938 4.6875h-75.875c-4.0742 0-7.375 3.3008-7.375 7.375v54c0 1.957 0.77734 3.832 2.1602 5.2148 1.3828 1.3828 3.2578 2.1602 5.2148 2.1602h30.125v12.5h-7.8125c-2.5898 0-4.6875 2.0977-4.6875 4.6875s2.0977 4.6875 4.6875 4.6875h31.25c2.5898 0 4.6875-2.0977 4.6875-4.6875s-2.0977-4.6875-4.6875-4.6875h-7.8125v-12.5h30.125c1.957 0 3.832-0.77734 5.2148-2.1602 1.3828-1.3828 2.1602-3.2578 2.1602-5.2148v-54c0-4.0742-3.3008-7.375-7.375-7.375zm-75.875 3.125h75.875c2.3477 0 4.25 1.9023 4.25 4.25v45.75h-84.375v-45.75c0-2.3477 1.9023-4.25 4.25-4.25zm53.562 81.25c0.86328 0 1.5625 0.69922 1.5625 1.5625s-0.69922 1.5625-1.5625 1.5625h-31.25c-0.86328 0-1.5625-0.69922-1.5625-1.5625s0.69922-1.5625 1.5625-1.5625zm-10.938-3.125h-9.375v-12.5h9.375zm33.25-15.625h-75.875c-2.3477 0-4.25-1.9023-4.25-4.25v-5.125h84.375v5.125c0 2.3477-1.9023 4.25-4.25 4.25z"/>
  <path d="m52.219 65.625c0 2.957-4.4375 2.957-4.4375 0s4.4375-2.957 4.4375 0"/>
  <path d="m50 51.562c4.9727 0 9.7422-1.9766 13.258-5.4922 3.5156-3.5156 5.4922-8.2852 5.4922-13.258v-0.4375-0.1875c0.011719-0.16797 0.011719-0.33203 0-0.5 0-6.6992-3.5742-12.887-9.375-16.238-5.8008-3.3477-12.949-3.3477-18.75 0-5.8008 3.3516-9.375 9.5391-9.375 16.238-0.011719 0.16797-0.011719 0.33203 0 0.5v0.1875 0.4375c0 4.9727 1.9766 9.7422 5.4922 13.258 3.5156 3.5156 8.2852 5.4922 13.258 5.4922zm-8.6562-23.438c-0.17578 1.5977-0.26953 3.2031-0.28125 4.8125v3.5625c-4.1562-1.0312-6.625-2.6875-6.7812-4.0312v-0.40625c0.46875-1.4688 2.9375-3.0625 7.0625-3.9375zm8.6562-10.938c1.75 0 3.5938 2.7188 4.75 6.9688-3.1133-0.36328-6.2617-0.36328-9.375 0 1.0312-4.25 2.875-6.9688 4.625-6.9688zm0 9.8125c1.7969 0.003906 3.5938 0.12891 5.375 0.375 0.28125 1.8008 0.42578 3.6172 0.4375 5.4375-0.011719 1.3984-0.10547 2.7969-0.28125 4.1875-1.832 0.28906-3.6797 0.45312-5.5312 0.5-1.8516-0.003906-3.6992-0.12891-5.5312-0.375-0.17578-1.3906-0.26953-2.7891-0.28125-4.1875 0.011719-1.8203 0.15625-3.6367 0.4375-5.4375 1.7773-0.28906 3.5742-0.45312 5.375-0.5zm15.625 4.9375v0.40625c-0.15625 1.3438-2.625 3.125-6.7812 4.0312 0-1.1562 0.15625-2.3438 0.15625-3.5625-0.035156-1.5664-0.15234-3.1328-0.34375-4.6875 4.125 0.875 6.5938 2.4688 6.9688 3.8125zm-15.625 16.5c-1.9062 0-3.9375-3.125-5.0312-8.2188 1.668 0.23047 3.3477 0.36719 5.0312 0.40625 1.6797 0 3.3594-0.09375 5.0312-0.28125-1.0938 4.8438-3.125 8.0938-5.0312 8.0938zm-14.875-10.938c2.0586 1.0625 4.2578 1.832 6.5312 2.2812 0.41016 2.6602 1.2773 5.2305 2.5625 7.5938-4.3633-1.7539-7.7031-5.3828-9.0938-9.875zm20.656 9.875c1.2852-2.3633 2.1523-4.9336 2.5625-7.5938 2.2734-0.44922 4.4727-1.2188 6.5312-2.2812-1.4141 4.457-4.75 8.0469-9.0938 9.7812zm8.625-20.531c-1.9844-0.96875-4.0859-1.6719-6.25-2.0938-0.4375-2.1914-1.2188-4.3008-2.3125-6.25 3.8281 1.5156 6.9062 4.4805 8.5625 8.25zm-20.188-8.5c-1.0938 1.9492-1.875 4.0586-2.3125 6.25-2.1641 0.42188-4.2656 1.125-6.25 2.0938 1.6367-3.8047 4.7148-6.8086 8.5625-8.3438z"/>
 </g>
</svg>
