<?xml version="1.0" encoding="UTF-8"?>
<svg width="100pt" height="100pt" version="1.1" viewBox="0 0 100 100" xmlns="http://www.w3.org/2000/svg">
 <g>
  <path d="m80.777 69.047c1 0 1.8086-0.80859 1.8086-1.8086s-0.80859-1.8086-1.8086-1.8086h-7.6719c-1 0-1.8086 0.80859-1.8086 1.8086 0 0.99609 0.80859 1.8086 1.8086 1.8086z"/>
  <path d="m81.941 73.156v7.9258h-2.0195l0.003906-10.176h-6.0352c-0.023437 0.11328-0.035156 0.23047-0.035156 0.34766v1.9766c-3.6055 0.38672-5.7773 2.0781-5.7773 4.6133v4.3242c0 0.99609 0.80859 1.8086 1.8086 1.8086h14.066c1 0 1.8086-0.80859 1.8086-1.8086v-5.4375c-0.003907-1.1406-0.57812-2.8828-3.8203-3.5742z"/>
  <path d="m26.785 65.59h10.777l-1.2344-3.6172h-10.801z"/>
  <path d="m39.535 54.863h-16.48l1.2578 3.6172h16.457z"/>
  <path d="m95.383 9.625c-0.003906-0.33594-0.18359-0.64453-0.46875-0.81641-0.28516-0.17578-0.64062-0.1875-0.9375-0.039063-0.55469 0.27734-12.078 6.2422-32.852 30.008-0.76562 0.84766-1.543 1.7227-2.3398 2.625-10.008 11.355-17.566 21.18-17.641 21.277-0.60938 0.79297-0.46094 1.9258 0.33203 2.5352 0.11328 0.085937 0.23047 0.15625 0.35547 0.21094 0.74609 0.33984 1.6562 0.13281 2.1797-0.54688 0.046875-0.0625 3.1367-4.0781 7.957-9.9102l11.094 0.39453c0.99609 0.035157 1.8359-0.74609 1.8711-1.7422s-0.74609-1.8359-1.7422-1.8711l-8.2891-0.29688c0.54297-0.64453 1.0977-1.3008 1.668-1.9727l12.707 0.36719c0.45703-0.41016 0.91406-0.87891 1.375-1.418 6.7617-7.8906 12.602-15.289 16.473-20.199 8.2812-10.488 8.2656-18.281 8.2578-18.605z"/>
  <path d="m62.973 73.902h-8.7578c-0.41406-1.1445-2.3125-6.4062-4.2031-11.648-1.1367 1.418-2.0312 2.5547-2.6445 3.332 1.2227 3.3867 2.3594 6.543 3.0039 8.3164h-16.102c-1 0-1.8086 0.8125-1.8086 1.8086 0 0.066406 0.003906 0.12891 0.011718 0.19141-0.007812 0.0625-0.011718 0.12891-0.011718 0.19531 0 0.42969-0.097657 4.1992-3.4453 4.1992-1.0508 0-1.5312-0.89844-2.6445-3.9883-0.19922-0.57812-8.3008-24.324-8.9258-26.211l-0.019531-0.054687c-0.15234-0.46875-0.39062-1.1719-0.76953-1.9258 7.4258-0.015626 20.668-0.042969 21.762-0.046876 1.2852 0.003907 2.7461-0.003906 3.9727 3.6484 0.097656 0.28906 0.50391 1.4297 1.0859 3.0547 0.80469-0.99609 1.6992-2.0938 2.668-3.2734-0.16797-0.47266-0.28125-0.80078-0.32812-0.92969-1.8164-5.4062-4.8945-6.1133-7.3789-6.1133h-0.027344c-1.5234 0.003907-26.73 0.058594-26.73 0.058594v0.023437c-0.17969-0.015624-0.36328-0.023437-0.55469-0.023437-1.4844 0-2.8008 0.5625-3.8047 1.6367-2.6094 2.7852-2.3359 8.2422-2.2969 8.8555 0.0625 0.94922 0.85156 1.6914 1.8047 1.6914l9.0312-0.003907c2.5625 7.5234 6.8438 20.078 7.0898 20.801 0 0.003906 0.003906 0.007812 0.003906 0.011718 0.003906 0.007813 0.003906 0.011719 0.003906 0.015626 1.0781 3 2.3008 6.3984 6.0547 6.3984 0.13672 0 0.26953-0.007813 0.40234-0.011719 0.066407 0.007813 0.13281 0.011719 0.19922 0.011719h28.102c2.8789 0 5.1016-1.4531 6.2539-4.0898 0.78516-1.7969 0.80859-3.5352 0.80859-3.7266 0-0.066407-0.003906-0.13281-0.011719-0.19531 0.007813-0.0625 0.011719-0.12891 0.011719-0.19141 0.003906-1.0039-0.80469-1.8164-1.8047-1.8164zm-54.324-20.824c0.10156-1.582 0.45312-3.5391 1.3125-4.4531 0.32422-0.34766 0.67187-0.49219 1.1641-0.49219 1.5703 0 2.1992 1.0273 2.8672 3.0508l0.019531 0.054687c0.085937 0.25781 0.30469 0.90625 0.62109 1.8398zm52.012 25.301c-0.57812 1.3281-1.4844 1.9219-2.9375 1.9219h-22.664c0.47266-0.91797 0.75781-1.8945 0.89844-2.7812h24.996c-0.070313 0.27734-0.16406 0.57031-0.29297 0.85938z"/>
 </g>
</svg>
