<?xml version="1.0" encoding="UTF-8" standalone="no"?>
<svg
   xmlns:dc="http://purl.org/dc/elements/1.1/"
   xmlns:cc="http://creativecommons.org/ns#"
   xmlns:rdf="http://www.w3.org/1999/02/22-rdf-syntax-ns#"
   xmlns:svg="http://www.w3.org/2000/svg"
   xmlns="http://www.w3.org/2000/svg"
   xmlns:sodipodi="http://sodipodi.sourceforge.net/DTD/sodipodi-0.dtd"
   xmlns:inkscape="http://www.inkscape.org/namespaces/inkscape"
   width="204.68808mm"
   height="56.679829mm"
   viewBox="0 0 204.68808 56.679829"
   version="1.1"
   id="svg8"
   inkscape:version="1.0.1 (c497b03c, 2020-09-10)"
   sodipodi:docname="presentationmodes.svg">
  <defs
     id="defs2" />
  <sodipodi:namedview
     id="base"
     pagecolor="#ffffff"
     bordercolor="#666666"
     borderopacity="1.0"
     inkscape:pageopacity="0.0"
     inkscape:pageshadow="2"
     inkscape:zoom="0.88698413"
     inkscape:cx="356.08672"
     inkscape:cy="312.04031"
     inkscape:document-units="mm"
     inkscape:current-layer="layer1"
     inkscape:document-rotation="0"
     showgrid="false"
     fit-margin-top="5"
     fit-margin-left="5"
     fit-margin-right="5"
     fit-margin-bottom="5"
     inkscape:window-width="1252"
     inkscape:window-height="1174"
     inkscape:window-x="703"
     inkscape:window-y="103"
     inkscape:window-maximized="0" />
  <metadata
     id="metadata5">
    <rdf:RDF>
      <cc:Work
         rdf:about="">
        <dc:format>image/svg+xml</dc:format>
        <dc:type
           rdf:resource="http://purl.org/dc/dcmitype/StillImage" />
        <dc:title></dc:title>
      </cc:Work>
    </rdf:RDF>
  </metadata>
  <g
     inkscape:label="Layer 1"
     inkscape:groupmode="layer"
     id="layer1"
     transform="translate(18.14927,-65.939335)">
    <g
       id="g30"
       transform="matrix(0.35277776,0,0,0.35277776,41.930329,69.468957)">
      <path
         d="M 95.832,4.168 H 14.582 V 39.375 H 18.75 V 8.332 h 72.918 v 62.5 H 74.793 V 75 h 21.039 z"
         id="path10" />
      <path
         d="m 15.625,56.25 c 0,6.875 5.625,12.5 12.5,12.5 6.875,0 12.5,-5.625 12.5,-12.5 0,-6.875 -5.625,-12.5 -12.5,-12.5 -6.875,0 -12.5,5.625 -12.5,12.5 z"
         id="path12" />
      <path
         d="m 52.082,85.625 c 0,-7.5 -5.625,-13.125 -13.645,-13.75 h -0.9375 l -0.625,0.625 c -2.3945,2.293 -5.5195,3.543 -8.75,3.543 -3.2305,0 -6.3555,-1.25 -8.75,-3.543 l -0.625,-0.625 H 17.812 C 9.7925,72.5 4.167,78.125 4.167,85.625 v 10.207 h 47.918 z"
         id="path14" />
      <path
         d="m 44.793,60.418 c 0,5.7305 4.6875,10.418 10.418,10.418 5.7305,0 10.418,-4.6875 10.418,-10.418 C 65.629,54.6875 60.9415,50 55.211,50 49.4805,50 44.793,54.6875 44.793,60.418 Z"
         id="path16" />
      <path
         d="m 73.957,84.375 c 0,-5.7305 -4.6875,-10.418 -10.418,-10.418 h -1.9805 l -0.625,0.625 c -1.5586,1.668 -3.4336,2.5 -5.7266,2.5 v 4.168 c 3.125,0 5.9375,-1.043 8.125,-3.125 h 0.21094 c 3.4375,0 6.25,2.8125 6.25,6.25 V 87.5 h -14.586 v 4.168 h 18.75 z"
         id="path18" />
      <path
         d="m 62.5,17.188 c -3.75,0 -7.1875,1.457 -9.8945,4.0625 C 50,23.856 48.543,27.395 48.543,31.145 c 0,7.707 6.25,13.957 13.957,13.957 3.75,0 7.1875,-1.457 9.8945,-4.0625 2.707,-2.6055 4.0625,-6.1445 4.0625,-9.8945 V 29.5825 H 64.062 v -12.395 z"
         id="path20" />
      <path
         d="m 81.668,26.145 c 0,-3.75 -1.457,-7.1875 -4.0625,-9.8945 C 75,13.645 71.461,12.188 67.711,12.188 h -1.5625 v 15.52 h 15.52 z"
         id="path22" />
      <path
         d="m 28.855,23.125 h 13.23 v 3.125 h -13.23 z"
         id="path24" />
      <path
         d="m 29.48,28.855 h 9.6875 V 31.98 H 29.48 Z"
         id="path26" />
      <path
         d="m 29.48,34.582 h 7.6055 v 3.125 H 29.48 Z"
         id="path28" />
    </g>
    <g
       id="g63"
       transform="matrix(0.35277776,0,0,0.35277776,94.855271,70.76667)">
      <path
         d="m 80.777,69.047 c 1,0 1.8086,-0.80859 1.8086,-1.8086 0,-1.00001 -0.80859,-1.8086 -1.8086,-1.8086 h -7.6719 c -1,0 -1.8086,0.80859 -1.8086,1.8086 0,0.99609 0.80859,1.8086 1.8086,1.8086 z"
         id="path51" />
      <path
         d="m 81.941,73.156 v 7.9258 h -2.0195 l 0.0039,-10.176 h -6.0352 c -0.02344,0.11328 -0.03516,0.23047 -0.03516,0.34766 v 1.9766 c -3.6055,0.38672 -5.7773,2.0781 -5.7773,4.6133 v 4.3242 c 0,0.99609 0.80859,1.8086 1.8086,1.8086 h 14.066 c 1,0 1.8086,-0.80859 1.8086,-1.8086 v -5.4375 c -0.0039,-1.1406 -0.57812,-2.8828 -3.8203,-3.5742 z"
         id="path53" />
      <path
         d="M 26.785,65.59 H 37.562 L 36.3276,61.9728 H 25.5266 Z"
         id="path55" />
      <path
         d="m 39.535,54.863 h -16.48 l 1.2578,3.6172 h 16.457 z"
         id="path57" />
      <path
         d="M 95.383,9.625 C 95.3791,9.28906 95.19941,8.98047 94.91425,8.80859 94.62909,8.63281 94.27363,8.62109 93.97675,8.769527 c -0.55469,0.27734 -12.078,6.2422 -32.852,30.008 -0.76562,0.84766 -1.543,1.7227 -2.3398,2.625 -10.008,11.355 -17.566,21.18 -17.641,21.277 -0.60938,0.79297 -0.46094,1.9258 0.33203,2.5352 0.11328,0.08594 0.23047,0.15625 0.35547,0.21094 0.74609,0.33984 1.6562,0.13281 2.1797,-0.54688 0.04687,-0.0625 3.1367,-4.0781 7.957,-9.9102 l 11.094,0.39453 c 0.99609,0.03516 1.8359,-0.74609 1.8711,-1.7422 0.0352,-0.99611 -0.74609,-1.8359 -1.7422,-1.8711 l -8.2891,-0.29688 c 0.54297,-0.64453 1.0977,-1.3008 1.668,-1.9727 l 12.707,0.36719 c 0.45703,-0.41016 0.91406,-0.87891 1.375,-1.418 6.7617,-7.8906 12.602,-15.289 16.473,-20.199 8.2812,-10.488 8.2656,-18.281 8.2578,-18.605 z"
         id="path59" />
      <path
         d="m 62.973,73.902 h -8.7578 c -0.41406,-1.1445 -2.3125,-6.4062 -4.2031,-11.648 -1.1367,1.418 -2.0312,2.5547 -2.6445,3.332 1.2227,3.3867 2.3594,6.543 3.0039,8.3164 h -16.102 c -1,0 -1.8086,0.8125 -1.8086,1.8086 0,0.06641 0.0039,0.12891 0.01172,0.19141 -0.0078,0.0625 -0.01172,0.12891 -0.01172,0.19531 0,0.42969 -0.09766,4.1992 -3.4453,4.1992 -1.0508,0 -1.5312,-0.89844 -2.6445,-3.9883 -0.19922,-0.57812 -8.3008,-24.324 -8.9258,-26.211 l -0.01953,-0.05469 c -0.15234,-0.46875 -0.39062,-1.1719 -0.76953,-1.9258 7.4258,-0.01563 20.668,-0.04297 21.762,-0.04688 1.2852,0.0039 2.7461,-0.0039 3.9727,3.6484 0.09766,0.28906 0.50391,1.4297 1.0859,3.0547 0.80469,-0.99609 1.6992,-2.0938 2.668,-3.2734 -0.16797,-0.47266 -0.28125,-0.80078 -0.32812,-0.92969 -1.8164,-5.4062 -4.8945,-6.1133 -7.3789,-6.1133 h -0.02734 c -1.5234,0.0039 -26.73,0.05859 -26.73,0.05859 v 0.02344 c -0.17969,-0.01562 -0.36328,-0.02344 -0.55469,-0.02344 -1.4844,0 -2.8008,0.5625 -3.8047,1.6367 -2.6094,2.7852 -2.3359,8.2422 -2.2969,8.8555 0.0625,0.94922 0.85156,1.6914 1.8047,1.6914 l 9.0312,-0.0039 c 2.5625,7.5234 6.8438,20.078 7.0898,20.801 0,0.0039 0.0039,0.0078 0.0039,0.01172 0.0039,0.0078 0.0039,0.01172 0.0039,0.01563 1.0781,3 2.3008,6.3984 6.0547,6.3984 0.13672,0 0.26953,-0.0078 0.40234,-0.01172 0.06641,0.0078 0.13281,0.01172 0.19922,0.01172 h 28.102 c 2.8789,0 5.1016,-1.4531 6.2539,-4.0898 0.78516,-1.7969 0.80859,-3.5352 0.80859,-3.7266 0,-0.06641 -0.0039,-0.13281 -0.01172,-0.19531 0.0078,-0.0625 0.01172,-0.12891 0.01172,-0.19141 0.0039,-1.0039 -0.80469,-1.8164 -1.8047,-1.8164 z M 8.649,53.078 c 0.10156,-1.582 0.45312,-3.5391 1.3125,-4.4531 0.32422,-0.34766 0.67187,-0.49219 1.1641,-0.49219 1.5703,0 2.1992,1.0273 2.8672,3.0508 l 0.01953,0.05469 c 0.08594,0.25781 0.30469,0.90625 0.62109,1.8398 z m 52.012,25.301 c -0.57812,1.3281 -1.4844,1.9219 -2.9375,1.9219 h -22.664 c 0.47266,-0.91797 0.75781,-1.8945 0.89844,-2.7812 h 24.996 c -0.07031,0.27734 -0.16406,0.57031 -0.29297,0.85938 z"
         id="path61" />
    </g>
    <g
       id="g86"
       transform="matrix(0.35277776,0,0,0.35277776,147.91451,69.468957)">
      <path
         d="M 87.938,4.6875 H 12.063 c -4.0742,0 -7.375,3.3008 -7.375,7.375 v 54 c 0,1.957 0.77734,3.832 2.1602,5.2148 1.3828,1.3828 3.2578,2.1602 5.2148,2.1602 h 30.125 v 12.5 h -7.8125 c -2.5898,0 -4.6875,2.0977 -4.6875,4.6875 0,2.5898 2.0977,4.6875 4.6875,4.6875 h 31.25 c 2.5898,0 4.6875,-2.0977 4.6875,-4.6875 0,-2.5898 -2.0977,-4.6875 -4.6875,-4.6875 H 57.813 v -12.5 h 30.125 c 1.957,0 3.832,-0.77734 5.2148,-2.1602 1.3828,-1.3828 2.1602,-3.2578 2.1602,-5.2148 v -54 c 0,-4.0742 -3.3008,-7.375 -7.375,-7.375 z m -75.875,3.125 h 75.875 c 2.3477,0 4.25,1.9023 4.25,4.25 v 45.75 H 7.813 v -45.75 c 0,-2.3477 1.9023,-4.25 4.25,-4.25 z m 53.562,81.25 c 0.86328,0 1.5625,0.69922 1.5625,1.5625 0,0.86328 -0.69922,1.5625 -1.5625,1.5625 h -31.25 c -0.86328,0 -1.5625,-0.69922 -1.5625,-1.5625 0,-0.86328 0.69922,-1.5625 1.5625,-1.5625 z m -10.938,-3.125 h -9.375 v -12.5 h 9.375 z m 33.25,-15.625 H 12.062 c -2.3477,0 -4.25,-1.9023 -4.25,-4.25 v -5.125 h 84.375 v 5.125 c 0,2.3477 -1.9023,4.25 -4.25,4.25 z"
         id="path80" />
      <path
         d="m 52.219,65.625 c 0,2.957 -4.4375,2.957 -4.4375,0 0,-2.957 4.4375,-2.957 4.4375,0"
         id="path82" />
      <path
         d="m 50,51.562 c 4.9727,0 9.7422,-1.9766 13.258,-5.4922 3.5156,-3.5156 5.4922,-8.2852 5.4922,-13.258 v -0.4375 -0.1875 c 0.01172,-0.16797 0.01172,-0.33203 0,-0.5 0,-6.6992 -3.5742,-12.887 -9.375,-16.238 -5.8008,-3.3477 -12.949,-3.3477 -18.75,0 -5.8008,3.3516 -9.375,9.5391 -9.375,16.238 -0.01172,0.16797 -0.01172,0.33203 0,0.5 v 0.1875 0.4375 c 0,4.9727 1.9766,9.7422 5.4922,13.258 3.5156,3.5156 8.2852,5.4922 13.258,5.4922 z M 41.3438,28.124 c -0.17578,1.5977 -0.26953,3.2031 -0.28125,4.8125 v 3.5625 c -4.1562,-1.0312 -6.625,-2.6875 -6.7812,-4.0312 v -0.40625 c 0.46875,-1.4688 2.9375,-3.0625 7.0625,-3.9375 z M 50,17.186 c 1.75,0 3.5938,2.7188 4.75,6.9688 -3.1133,-0.36328 -6.2617,-0.36328 -9.375,0 1.0312,-4.25 2.875,-6.9688 4.625,-6.9688 z m 0,9.8125 c 1.7969,0.0039 3.5938,0.12891 5.375,0.375 0.28125,1.8008 0.42578,3.6172 0.4375,5.4375 -0.01172,1.3984 -0.10547,2.7969 -0.28125,4.1875 -1.832,0.28906 -3.6797,0.45312 -5.5312,0.5 -1.8516,-0.0039 -3.6992,-0.12891 -5.5312,-0.375 -0.17578,-1.3906 -0.26953,-2.7891 -0.28125,-4.1875 0.01172,-1.8203 0.15625,-3.6367 0.4375,-5.4375 1.7773,-0.28906 3.5742,-0.45312 5.375,-0.5 z m 15.625,4.9375 v 0.40625 c -0.15625,1.3438 -2.625,3.125 -6.7812,4.0312 0,-1.1562 0.15625,-2.3438 0.15625,-3.5625 -0.03516,-1.5664 -0.15234,-3.1328 -0.34375,-4.6875 4.125,0.875 6.5938,2.4688 6.9688,3.8125 z M 50,48.436 c -1.9062,0 -3.9375,-3.125 -5.0312,-8.2188 1.668,0.23047 3.3477,0.36719 5.0312,0.40625 1.6797,0 3.3594,-0.09375 5.0312,-0.28125 C 53.9374,45.186 51.9062,48.436 50,48.436 Z M 35.125,37.498 c 2.0586,1.0625 4.2578,1.832 6.5312,2.2812 0.41016,2.6602 1.2773,5.2305 2.5625,7.5938 -4.3633,-1.7539 -7.7031,-5.3828 -9.0938,-9.875 z m 20.656,9.875 c 1.2852,-2.3633 2.1523,-4.9336 2.5625,-7.5938 2.2734,-0.44922 4.4727,-1.2188 6.5312,-2.2812 -1.4141,4.457 -4.75,8.0469 -9.0938,9.7812 z m 8.625,-20.531 c -1.9844,-0.96875 -4.0859,-1.6719 -6.25,-2.0938 -0.4375,-2.1914 -1.2188,-4.3008 -2.3125,-6.25 3.8281,1.5156 6.9062,4.4805 8.5625,8.25 z m -20.188,-8.5 c -1.0938,1.9492 -1.875,4.0586 -2.3125,6.25 -2.1641,0.42188 -4.2656,1.125 -6.25,2.0938 1.6367,-3.8047 4.7148,-6.8086 8.5625,-8.3438 z"
         id="path84" />
    </g>
    <text
       xml:space="preserve"
       style="font-style:normal;font-weight:normal;font-size:10.5833px;line-height:1.25;font-family:sans-serif;fill:#000000;fill-opacity:1;stroke:none;stroke-width:0.264583"
       x="35.90815"
       y="116.73895"
       id="text102"><tspan
         sodipodi:role="line"
         id="tspan100"
         x="35.90815"
         y="116.73895"
         style="font-size:7.05556px;stroke-width:0.264583">Presentation</tspan></text>
    <text
       xml:space="preserve"
       style="font-style:normal;font-weight:normal;font-size:10.5833px;line-height:1.25;font-family:sans-serif;fill:#000000;fill-opacity:1;stroke:none;stroke-width:0.264583"
       x="93.007996"
       y="116.83713"
       id="text106"><tspan
         sodipodi:role="line"
         id="tspan104"
         x="93.007996"
         y="116.83713"
         style="font-size:7.05556px;stroke-width:0.264583">Publication</tspan></text>
    <text
       xml:space="preserve"
       style="font-style:normal;font-weight:normal;font-size:7.05556px;line-height:1.25;font-family:sans-serif;fill:#000000;fill-opacity:1;stroke:none;stroke-width:0.264583"
       x="146.5759"
       y="116.16189"
       id="text110"><tspan
         sodipodi:role="line"
         id="tspan108"
         x="146.5759"
         y="116.16189"
         style="font-size:7.05556px;stroke-width:0.264583">Web page</tspan></text>
    <g
       id="g130"
       transform="matrix(0.35277776,0,0,0.35277776,-11.359038,69.468959)">
      <path
         d="m 30.445,69.551 c -0.88672,-1.0977 -7.3828,-3.0586 -7.3828,-3.8047 v -4.3945 l -5.6328,-6.1445 1.3125,-1.207 6.0977,6.6484 c 0.125,0.01562 0.24609,0.05859 0.37109,0.05859 h 12.973 c 2.1484,0 3.8867,-0.07422 3.8867,-2.2188 0,-2.144581 -1.7383,-3.8867 -3.8867,-3.8867 l -11.059,0.0039 c 0,0 -5.0898,-10.816 -8.7266,-10.816 h -9.043 c -2.5742,0 -4.6641,2.0898 -4.6641,4.6641 v 24.027 c 0,2.5742 2.0859,4.6641 4.6641,4.6641 h 15.234 l 11.57,14.328 c 0.92188,1.1445 2.2695,1.7344 3.6289,1.7344 1.0273,0 2.0664,-0.33984 2.9297,-1.0352 2.0039,-1.6172 2.3164,-4.5547 0.69922,-6.5586 z"
         id="path112" />
      <path
         d="M 22.359,78.777 H 9.195 c -2.8164,0 -5.9648,-2.4141 -5.9648,-5.6445 v -13.102 c 0,-0.73828 -0.60156,-1.3398 -1.3398,-1.3398 -0.73824,0 -1.3398,0.60156 -1.3398,1.3398 v 13.102 c 0,4.9062 4.5547,8.3242 8.6445,8.3242 h 11.824 v 10.41 c 0,0.73828 0.60156,1.3398 1.3398,1.3398 0.73824,0 1.3398,-0.60156 1.3398,-1.3398 v -11.75 c 0,-0.73828 -0.59766,-1.3398 -1.3398,-1.3398 z"
         id="path114" />
      <path
         d="m 21.188,32.523 c 0,3.8047 -3.082,6.8906 -6.8867,6.8906 -3.8047,0 -6.8867,-3.0859 -6.8867,-6.8906 0,-3.8008 3.082,-6.8867 6.8867,-6.8867 3.8047,0 6.8867,3.0859 6.8867,6.8867"
         id="path116" />
      <path
         d="M 95.309,72.48 V 48.453 c 0,-2.5742 -2.0859,-4.6641 -4.6641,-4.6641 h -9.043 c -3.6367,0 -8.7266,10.816 -8.7266,10.816 h -11.055 c -2.1445,0 -3.8867,1.7383 -3.8867,3.8867 0,2.1445 1.7383,2.2188 3.8867,2.2188 h 12.973 c 0.125,0 0.24609,-0.04297 0.37109,-0.05859 l 6.0977,-6.6484 1.3125,1.207 -5.6328,6.1406 v 4.375 l -13.027,4.5781 3.0039,2.5156 -10.332,12.793 c -1.6211,2.0039 -1.3047,4.9414 0.69922,6.5586 0.86328,0.69531 1.8984,1.0352 2.9297,1.0352 1.3594,0 2.7109,-0.59375 3.6289,-1.7344 l 11.57,-14.328 h 15.234 c 2.5703,0 4.6602,-2.0898 4.6602,-4.6641 z"
         id="path118" />
      <path
         d="m 98.105,58.691 c -0.73828,0 -1.3398,0.60156 -1.3398,1.3398 v 13.102 c 0,3.2344 -3.1484,5.6445 -5.9648,5.6445 h -13.164 c -0.73828,0 -1.3398,0.60156 -1.3398,1.3398 v 11.75 c 0,0.73828 0.60156,1.3398 1.3398,1.3398 0.73824,0 1.3398,-0.60156 1.3398,-1.3398 v -10.41 h 11.824 c 4.0898,0 8.6445,-3.418 8.6445,-8.3242 v -13.102 c 0,-0.73828 -0.59766,-1.3398 -1.3398,-1.3398 z"
         id="path120" />
      <path
         d="m 31.363,64.281 c 0,0.98438 0.79688,1.7852 1.7852,1.7852 h 34.754 c 0.98828,0 1.7852,-0.80078 1.7852,-1.7852 0,-0.98828 -0.79688,-1.7852 -1.7852,-1.7852 h -34.754 c -0.98438,0 -1.7852,0.79688 -1.7852,1.7852 z"
         id="path122" />
      <path
         d="m 32.395,27.074 h 2.0039 v 6.4727 l 8.2227,-6.4727 h 12.078 c 1.3438,0 2.4336,-1.0859 2.4336,-2.4297 V 9.2263 c 0,-1.3438 -1.0859,-2.4336 -2.4336,-2.4336 h -22.305 c -1.3438,0 -2.4297,1.0898 -2.4297,2.4336 l -0.0039,15.418 c 0,1.3398 1.0898,2.4297 2.4336,2.4297 z"
         id="path124" />
      <path
         d="m 68.414,17.246 v 11.957 c 0,0.30078 -0.24609,0.54688 -0.54687,0.54688 h -1.5586 c -0.73828,0 -1.3398,0.60156 -1.3398,1.3398 v 2.2617 l -4.207,-3.3125 c -0.23438,-0.1875 -0.52734,-0.28516 -0.82812,-0.28516 h -12.539 c 0.26172,1.5195 1.5781,2.6797 3.168,2.6797 h 8.9062 l 6.0117,4.7305 c 0.24219,0.1875 0.53516,0.28516 0.82812,0.28516 0.19922,0 0.39844,-0.04297 0.58203,-0.13281 0.46094,-0.22656 0.75391,-0.69141 0.75391,-1.207 v -3.6797 h 0.21875 c 1.7773,0 3.2266,-1.4492 3.2266,-3.2266 l 0.0039,-11.957 c 0,-1.7773 -1.4453,-3.2266 -3.2266,-3.2266 h -8.0586 v 2.6797 h 8.0586 c 0.30078,0.0039 0.54687,0.24609 0.54687,0.54688 z"
         id="path126" />
      <path
         d="m 85.699,39.414 c 1.8516,0 3.5312,-0.73828 4.7695,-1.9336 h 3.6211 l -1.5,-4.957 c 0,-3.8047 -3.0859,-6.8906 -6.8867,-6.8906 -3.8047,0 -6.8906,3.0859 -6.8906,6.8906 l -1.4961,4.957 h 3.6172 c 1.2344,1.1914 2.9102,1.9336 4.7656,1.9336 z"
         id="path128" />
    </g>
    <text
       xml:space="preserve"
       style="font-style:normal;font-weight:normal;font-size:10.5833px;line-height:1.25;font-family:sans-serif;fill:#000000;fill-opacity:1;stroke:none;stroke-width:0.264583"
       x="-13.838289"
       y="116.73895"
       id="text102-5"><tspan
         sodipodi:role="line"
         id="tspan100-5"
         x="-13.838289"
         y="116.73895"
         style="font-size:7.05556px;stroke-width:0.264583">Discussions</tspan></text>
  </g>
</svg>
