<?xml version="1.0" encoding="UTF-8"?>
<svg width="100pt" height="100pt" version="1.1" viewBox="0 0 100 100" xmlns="http://www.w3.org/2000/svg">
 <g>
  <path d="m59.832 95.191h-19.664c-0.53125 0-0.96094-0.42969-0.96094-0.96094s0.42969-0.96094 0.96094-0.96094h19.66c0.53125 0 0.96094 0.42969 0.96094 0.96094 0.003907 0.53125-0.42578 0.96094-0.95703 0.96094z"/>
  <path d="m67.309 34.352h-42.309c-0.40234 0-0.75781-0.24609-0.90234-0.625-0.14062-0.375-0.035156-0.79687 0.26953-1.0625l6.8633-6.0078-6.8633-6.0078c-0.30078-0.26563-0.41016-0.6875-0.26953-1.0625 0.14453-0.37109 0.5-0.62109 0.90234-0.62109h42.309c0.23438 0 0.45703 0.085937 0.63281 0.23828l7.6914 6.7305c0.21094 0.18359 0.32813 0.44922 0.32813 0.72656s-0.12109 0.53906-0.32813 0.72266l-7.6914 6.7305c-0.17578 0.15234-0.40234 0.23828-0.63281 0.23828zm-39.75-1.9258h39.387l6.5938-5.7695-6.5938-5.7695-39.387 0.003906 5.7656 5.0469c0.21094 0.17969 0.32812 0.44531 0.32812 0.72266s-0.12109 0.53906-0.32812 0.72266z"/>
  <path d="m75 66.348h-42.309c-0.23438 0-0.45703-0.085937-0.63281-0.23828l-7.6914-6.7305c-0.21094-0.18359-0.32813-0.44922-0.32813-0.72656s0.12109-0.53906 0.32813-0.72266l7.6914-6.7305c0.17578-0.15234 0.40234-0.23828 0.63281-0.23828h42.309c0.40234 0 0.75781 0.24609 0.90234 0.625 0.14062 0.375 0.035156 0.79687-0.26953 1.0625l-6.8633 6.0039 6.8633 6.0078c0.30078 0.26562 0.41016 0.6875 0.26953 1.0625-0.14453 0.375-0.5 0.625-0.90234 0.625zm-41.945-1.9258h39.387l-5.7656-5.0469c-0.21094-0.17969-0.32812-0.44531-0.32812-0.72266s0.12109-0.53906 0.32812-0.72266l5.7656-5.0469h-39.387l-6.5938 5.7695z"/>
  <path d="m53.848 20.891h-7.6914c-0.53125 0-0.96094-0.42969-0.96094-0.96094l-0.003906-10.312c0-2.6523 2.1562-4.8086 4.8086-4.8086s4.8086 2.1562 4.8086 4.8086v10.312c0 0.53125-0.42969 0.96094-0.96094 0.96094zm-6.7305-1.9258h5.7695l-0.003907-9.3477c0-1.5898-1.293-2.8828-2.8828-2.8828-1.5898-0.003906-2.8828 1.2891-2.8828 2.8828z"/>
  <path d="m53.848 52.883h-7.6914c-0.53125 0-0.96094-0.42969-0.96094-0.96094v-18.535c0-0.53125 0.42969-0.96094 0.96094-0.96094h7.6914c0.53125 0 0.96094 0.42969 0.96094 0.96094v18.535c0 0.53125-0.42969 0.96094-0.96094 0.96094zm-6.7305-1.9219h5.7695v-16.609h-5.7695z"/>
  <path d="m53.848 95.191h-7.6914c-0.53125 0-0.96094-0.42969-0.96094-0.96094l-0.003906-28.848c0-0.53125 0.42969-0.96094 0.96094-0.96094h7.6914c0.53125 0 0.96094 0.42969 0.96094 0.96094v28.848c0.003906 0.53125-0.42578 0.96094-0.95703 0.96094zm-6.7305-1.9219h5.7695v-26.922h-5.7695z"/>
 </g>
</svg>
