<?xml version="1.0" encoding="UTF-8" standalone="no"?>
<svg
   xmlns:dc="http://purl.org/dc/elements/1.1/"
   xmlns:cc="http://creativecommons.org/ns#"
   xmlns:rdf="http://www.w3.org/1999/02/22-rdf-syntax-ns#"
   xmlns:svg="http://www.w3.org/2000/svg"
   xmlns="http://www.w3.org/2000/svg"
   xmlns:sodipodi="http://sodipodi.sourceforge.net/DTD/sodipodi-0.dtd"
   xmlns:inkscape="http://www.inkscape.org/namespaces/inkscape"
   width="205.46017mm"
   height="69.096405mm"
   viewBox="0 0 205.46017 69.096405"
   version="1.1"
   id="svg8"
   inkscape:version="1.0.1 (c497b03c, 2020-09-10)"
   sodipodi:docname="image-formation.svg">
  <defs
     id="defs2" />
  <sodipodi:namedview
     id="base"
     pagecolor="#ffffff"
     bordercolor="#666666"
     borderopacity="1.0"
     inkscape:pageopacity="0.0"
     inkscape:pageshadow="2"
     inkscape:zoom="0.84162698"
     inkscape:cx="353.34479"
     inkscape:cy="252.55254"
     inkscape:document-units="mm"
     inkscape:current-layer="layer1"
     inkscape:document-rotation="0"
     showgrid="false"
     fit-margin-top="5"
     fit-margin-left="5"
     fit-margin-right="5"
     fit-margin-bottom="5"
     inkscape:window-width="1252"
     inkscape:window-height="1174"
     inkscape:window-x="1229"
     inkscape:window-y="140"
     inkscape:window-maximized="0" />
  <metadata
     id="metadata5">
    <rdf:RDF>
      <cc:Work
         rdf:about="">
        <dc:format>image/svg+xml</dc:format>
        <dc:type
           rdf:resource="http://purl.org/dc/dcmitype/StillImage" />
        <dc:title></dc:title>
      </cc:Work>
    </rdf:RDF>
  </metadata>
  <g
     inkscape:label="Layer 1"
     inkscape:groupmode="layer"
     id="layer1"
     transform="translate(-11.510857,-81.678808)">
    <g
       id="g843"
       transform="matrix(0.35277776,0,0,0.35277776,21.211004,98.895268)">
      <path
         d="m 86.867,23.582 -1.7148,1.7148 c 13.582,13.582 13.582,35.746 0,49.328 l 1.7148,1.7148 c 14.551,-14.473 14.551,-38.207 0,-52.758 z"
         id="path833" />
      <path
         d="m 79.254,31.121 -1.7148,1.7148 c 4.5508,4.5508 7.0898,10.672 7.0898,17.09 0,6.4922 -2.5391,12.539 -7.0898,17.09 l 1.7148,1.7148 c 10.371,-10.297 10.371,-27.164 0,-37.609 z"
         id="path835" />
      <path
         d="m 69.926,40.449 c 5.2227,5.2227 5.2227,13.805 0,19.105 l 1.7148,1.7148 c 6.1953,-6.1953 6.1953,-16.344 0,-22.539 z"
         id="path837" />
      <path
         d="m 58.879,42.312 c -3.8789,0 -7.0898,2.8359 -7.6133,6.5664 h -7.2344 l -6.4922,-17.016 c -0.14844,-0.44922 -0.67187,-0.82031 -1.1953,-0.82031 -0.52343,0 -0.96875,0.29688 -1.1211,0.82031 l -10.52,29.031 -6.8672,-28.879 c -0.14844,-0.52344 -0.59766,-0.89453 -1.1211,-0.96875 -0.52344,-0.07422 -1.043,0.29688 -1.2695,0.82031 l -6.9414,18.059 H 5.8199 5.745682 c -0.375,-0.44922 -0.89453,-0.82031 -1.5664,-0.82031 -1.043,0 -1.9414,0.89453 -1.9414,1.9414 0,1.043 0.89453,1.9414 1.9414,1.9414 0.59766,0 1.1211,-0.29688 1.4922,-0.67188 h 0.14844 3.582 c 0.52344,0 0.96875,-0.29688 1.1211,-0.82031 l 5.8203,-15.148 6.8672,29.031 c 0.14844,0.52344 0.59766,0.89453 1.1211,0.96875 h 0.07422 c 0.52344,0 0.96875,-0.29688 1.1953,-0.82031 l 10.891,-29.707 5.5977,14.703 c 0.14844,0.44922 0.67188,0.82031 1.1211,0.82031 h 8.0586 c 0.67188,3.6562 3.8047,6.3438 7.6133,6.3438 4.2539,0 7.6875,-3.4336 7.6875,-7.6875 0.07031,-4.2539 -3.4375,-7.6875 -7.6914,-7.6875 z m 0,12.91 c -2.9102,0 -5.2227,-2.3867 -5.2227,-5.2227 0,-2.836 2.3867,-5.2227 5.2227,-5.2227 2.9102,0 5.2227,2.3867 5.2227,5.2227 0.0039,2.8359 -2.3086,5.2227 -5.2227,5.2227 z"
         id="path839" />
      <path
         d="m 61.641,50 c 0,3.6797 -5.5195,3.6797 -5.5195,0 0,-3.6797 5.5195,-3.6797 5.5195,0"
         id="path841" />
    </g>
    <g
       id="g881"
       transform="matrix(0.35277776,0,0,0.35277776,120.323,98.881315)">
      <path
         d="M 84.844,49.219 C 80.3128,29.531 76.2502,10.938 66.719,10.938 c -9.5312,0 -13.75,18.594 -18.125,38.281 -3.9062,4.375 -7.8125,8.5938 -15.156,8.5938 -7.5,0 -11.25,-4.0625 -15.156,-8.5938 C 13.7508,29.531 9.532,10.938 0.001,10.938 v 3.125 c 3.4375,0 6.25,4.6875 8.75,11.562 -2.3438,-3.2812 -5.1562,-5.3125 -8.75,-5.3125 v 3.125 c 4.2188,0 7.3438,4.6875 10,11.25 -2.6562,-2.9688 -5.7812,-5 -10,-5 v 3.125 c 5.1562,0 8.5938,4.2188 11.562,10 -2.9688,-2.1875 -6.5625,-3.75 -11.562,-3.75 v 3.125 c 7.5,0 11.25,4.0625 15.156,8.5938 4.5312,19.688 8.5938,38.281 18.125,38.281 9.5312,0 13.75,-18.594 18.125,-38.281 3.9062,-4.375 7.8125,-8.5938 15.156,-8.5938 7.5,0 11.25,4.0625 15.156,8.5938 4.5312,19.688 8.75,38.281 18.281,38.281 v -3.125 c -3.4375,0 -6.25,-4.6875 -8.75,-11.562 2.3438,3.2812 5.1562,5.3125 8.75,5.3125 v -3.125 c -4.2188,0 -7.3438,-4.6875 -10,-11.25 2.6562,3.125 5.7812,5 10,5 v -3.125 c -5.1562,0 -8.5938,-4.2188 -11.562,-10 2.9688,2.1875 6.5625,3.75 11.562,3.75 v -3.125 c -7.5,0 -11.25,-4.0625 -15.156,-8.5938 z M 66.719,14.063 c 3.4375,0 6.25,4.6875 8.75,11.562 -2.5,-3.2812 -5.3125,-5.3125 -8.75,-5.3125 -3.5938,0 -6.4062,2.0312 -8.75,5.3125 2.3438,-6.875 5.1562,-11.562 8.75,-11.562 z m 10,20.625 c -2.6562,-3.125 -5.7812,-5 -10,-5 -4.2188,0 -7.3438,2.0312 -10,5 2.6562,-6.5625 5.7812,-11.25 10,-11.25 4.2188,0 7.3438,4.6875 10,11.25 z m -31.875,22.5 c -2.9688,5.7812 -6.4062,10 -11.562,10 -5.1558,0 -8.5938,-4.2188 -11.562,-10 2.9688,2.1875 6.5625,3.75 11.562,3.75 4.9995,0 8.5938,-1.5625 11.562,-3.75 z m -1.5625,8.125 c -2.6562,6.5625 -5.7812,11.25 -10,11.25 -4.2188,0 -7.3438,-4.6875 -10,-11.25 2.6562,3.125 5.7812,5 10,5 4.2188,0 7.3438,-2.0312 10,-5 z m -10,20.625 c -3.4375,0 -6.25,-4.6875 -8.75,-11.562 2.3438,3.2812 5.1562,5.3125 8.75,5.3125 3.5938,0 6.4062,-2.0312 8.75,-5.3125 -2.3438,6.875 -5.1562,11.562 -8.75,11.562 z m 21.875,-43.125 c 2.9688,-5.7812 6.4062,-10 11.562,-10 5.1558,0 8.5938,4.2188 11.562,10 -2.9688,-2.1875 -6.5625,-3.75 -11.562,-3.75 -4.9995,0 -8.5938,1.5625 -11.562,3.75 z"
         id="path859" />
      <path
         d="m 0,48.438 h 3.125 v 3.125 H 0 Z"
         id="path861" />
      <path
         d="m 6.25,48.438 h 3.125 v 3.125 H 6.25 Z"
         id="path863" />
      <path
         d="m 90.625,48.438 h 3.125 v 3.125 h -3.125 z"
         id="path865" />
      <path
         d="M 96.875,48.438 H 100 v 3.125 h -3.125 z"
         id="path867" />
      <path
         d="m 25,48.438 h 3.125 v 3.125 H 25 Z"
         id="path869" />
      <path
         d="m 31.25,48.438 h 3.125 v 3.125 H 31.25 Z"
         id="path871" />
      <path
         d="m 37.5,48.438 h 3.125 v 3.125 H 37.5 Z"
         id="path873" />
      <path
         d="M 59.375,48.438 H 62.5 v 3.125 h -3.125 z"
         id="path875" />
      <path
         d="m 65.625,48.438 h 3.125 v 3.125 h -3.125 z"
         id="path877" />
      <path
         d="M 71.875,48.438 H 75 v 3.125 h -3.125 z"
         id="path879" />
    </g>
    <g
       id="g907"
       transform="matrix(-0.35277776,0,0,0.35277776,207.30048,98.881213)">
      <path
         d="m 88.293,31.645 c -0.78125,-0.32031 -1.6797,-0.14062 -2.2734,0.46094 l -15.188,15.125 v -11.625 c 0,-2.7656 -1.0977,-5.4141 -3.0508,-7.3672 -1.9531,-1.9531 -4.6016,-3.0508 -7.3633,-3.0508 h -39.586 c -5.75,0 -10.414,4.6641 -10.414,10.418 v 39.207 h 4.1641 v -39.207 c 0,-3.4531 2.8008,-6.25 6.25,-6.25 h 39.586 c 3.4492,0 6.25,2.7969 6.25,6.25 v 28.789 c 0,3.4531 -2.8008,6.25 -6.25,6.25 h -31.25 v 4.168 h 31.25 c 2.7617,0 5.4102,-1.0977 7.3633,-3.0508 1.9531,-1.9531 3.0508,-4.6016 3.0508,-7.3672 v -11.625 l 15.125,15.125 c 0.39062,0.39844 0.92188,0.625 1.4805,0.625 0.55078,0 1.082,-0.21875 1.4727,-0.60938 0.3907,-0.39063 0.60938,-0.92188 0.60938,-1.4727 v -32.875 c 0.0078,-0.82422 -0.47266,-1.5781 -1.2266,-1.918 z M 85.418,61.395 74.02,50 85.418,38.605 Z"
         id="path903" />
      <path
         d="M 19.832,58.332 H 61.5 V 62.5 H 19.832 Z"
         id="path905" />
    </g>
    <text
       xml:space="preserve"
       style="font-style:normal;font-weight:normal;font-size:10.5833px;line-height:1.25;font-family:sans-serif;fill:#000000;fill-opacity:1;stroke:none;stroke-width:0.264583"
       x="15.477332"
       y="143.64615"
       id="text939"><tspan
         sodipodi:role="line"
         x="15.477332"
         y="143.64615"
         style="font-size:10.5833px;stroke-width:0.264583"
         id="tspan953">Exitation</tspan></text>
    <text
       xml:space="preserve"
       style="font-style:normal;font-weight:normal;font-size:10.5833px;line-height:1.25;font-family:sans-serif;fill:#000000;fill-opacity:1;stroke:none;stroke-width:0.264583"
       x="67.689125"
       y="94.719635"
       id="text943"><tspan
         sodipodi:role="line"
         id="tspan941"
         x="67.689125"
         y="94.719635"
         style="stroke-width:0.264583">Sample</tspan></text>
    <text
       xml:space="preserve"
       style="font-style:normal;font-weight:normal;font-size:10.5833px;line-height:1.25;font-family:sans-serif;fill:#000000;fill-opacity:1;stroke:none;stroke-width:0.264583"
       x="112.3408"
       y="143.64615"
       id="text947"><tspan
         sodipodi:role="line"
         id="tspan945"
         x="112.3408"
         y="143.64615"
         style="stroke-width:0.264583">Response</tspan></text>
    <text
       xml:space="preserve"
       style="font-style:normal;font-weight:normal;font-size:10.5833px;line-height:1.25;font-family:sans-serif;fill:#000000;fill-opacity:1;stroke:none;stroke-width:0.264583"
       x="166.3409"
       y="94.719635"
       id="text951"><tspan
         sodipodi:role="line"
         id="tspan949"
         x="166.3409"
         y="94.719635"
         style="stroke-width:0.264583">Detector</tspan></text>
    <path
       d="m 89.922846,102.55164 c -3.377244,0 -6.115115,2.73787 -6.115115,6.11511 0,2.74836 1.812794,5.07319 4.309278,5.84426 -2.20009,2.22691 -4.660172,2.22691 -7.275602,2.22691 -2.989916,0 -3.889101,-2.35989 -4.698696,-2.35989 -0.809565,0 -1.32635,1.12453 -1.32635,5.97953 0,4.85637 4.406035,7.19408 12.724466,7.19408 8.318433,0 13.263503,-2.60722 13.263503,-7.10419 0,-3.69798 -5.047507,-6.36119 -6.840503,-7.19049 0.555283,-0.48878 1.019565,-1.07673 1.36834,-1.73581 l 3.786668,-0.8084 -1.866457,-0.98922 c 1.388173,-2.02393 2.349413,-2.38325 2.271254,-4.60911 l -3.585984,2.44972 c -0.519111,-2.85102 -3.014404,-5.01137 -6.015967,-5.01137 z m 2.590882,3.55553 c -0.801412,0 -1.450014,0.6486 -1.450014,1.45002 0,0.80024 0.649766,1.45001 1.450014,1.45001 0.800248,0 1.450014,-0.64977 1.450014,-1.45001 0,-0.80142 -0.649766,-1.45002 -1.450014,-1.45002 z"
       fill-rule="evenodd"
       id="path957"
       style="stroke-width:0.298633" />
  </g>
</svg>
