<svg height='100px' width='100px'  fill="#000000" xmlns="http://www.w3.org/2000/svg" data-name="Layer 1" viewBox="0 0 128 128" x="0px" y="0px"><title>Miscellaneous 18 final</title><path d="M109,43A19,19,0,0,0,90.11,60H78.63a2,2,0,0,0-1.41.59l-1.54,1.54v-9.8H86a2,2,0,0,0,2-2V45.91a23,23,0,1,0-4,0v2.42H73.67a2,2,0,0,0-2,2V66c0,.05,0,.1,0,.15l-3.1,3.1A2,2,0,0,0,68,70.63V75H62.63V67.63A2,2,0,0,0,62,66.21l-3-3V50.33a2,2,0,0,0-2-2H42.67V43.8a20,20,0,1,0-4,.13v6.4a2,2,0,0,0,2,2H55v6.84l-1.59-1.59A2,2,0,0,0,52,57H35.88a18,18,0,1,0,0,4H51.17l7.45,7.45V75H42a4,4,0,0,0-4,4v8a2.52,2.52,0,0,0,.06.48.13.13,0,0,1,0,.06l10.89,39A2,2,0,0,0,50.88,128H77.12A2,2,0,0,0,79,126.54l10.89-39a.13.13,0,0,1,0-.06A2.52,2.52,0,0,0,90,87V79a4,4,0,0,0-4-4H72V71.45L79.45,64H90.11A19,19,0,1,0,109,43ZM67,23A19,19,0,1,1,86,42,19,19,0,0,1,67,23ZM40,40A16,16,0,1,1,56,24,16,16,0,0,1,40,40ZM18,73A14,14,0,1,1,32,59,14,14,0,0,1,18,73Zm57.6,51H52.4L42.63,89H85.37ZM86,79v6H42V79Zm23-2a15,15,0,1,1,15-15A15,15,0,0,1,109,77Z"></path><path d="M96,35V11a2,2,0,0,0-2-2H78a2,2,0,0,0-2,2V35a2,2,0,0,0,2,2H94A2,2,0,0,0,96,35Zm-4-2H80V13H92Z"></path><circle cx="86" cy="29" r="2"></circle><path d="M53.36,31.42a2,2,0,0,0-.14-2.07l-3.93-5.57a3.82,3.82,0,0,0,.21-1.2V15.32a3.88,3.88,0,0,0-3.87-3.87H34.37a3.88,3.88,0,0,0-3.87,3.87v7.25a3.82,3.82,0,0,0,.21,1.2l-3.93,5.57a2,2,0,0,0,1.63,3.15H51.59A2,2,0,0,0,53.36,31.42Zm-18.86-16h11v7h-11ZM32.27,28.5l1.41-2H46.32l1.41,2Z"></path><path d="M26.41,51.52a16.81,16.81,0,0,0-8.41.36,16.8,16.8,0,0,0-8.41-.36A2,2,0,0,0,8,53.74,2,2,0,0,0,8,54v9.47a2,2,0,0,0,2.41,2,12.42,12.42,0,0,1,6.78.4A2,2,0,0,0,18,66a3.78,3.78,0,0,0,.8-.17,12.41,12.41,0,0,1,6.78-.4,2,2,0,0,0,2.41-2s0-9.65,0-9.74A2.12,2.12,0,0,0,26.41,51.52ZM16,61.4a16.86,16.86,0,0,0-4-.21v-6a13,13,0,0,1,4,.27Zm8-.21a17,17,0,0,0-4,.21V55.47a13,13,0,0,1,4-.27Z"></path><path d="M109,50.81a11,11,0,1,0,11,11A11,11,0,0,0,109,50.81Zm-3.53,5A5.85,5.85,0,0,1,102,62.44c0-.21,0-.42,0-.63A7,7,0,0,1,105.47,55.78Zm-1.95,10.37a9.83,9.83,0,0,0,5.83-11.32,7,7,0,0,1,5.35,2.93,9.83,9.83,0,0,0-6.14,11A7,7,0,0,1,103.52,66.15Zm8.94,1.74A5.85,5.85,0,0,1,116,61.55c0,.09,0,.17,0,.26A7,7,0,0,1,112.46,67.89Z"></path></svg>