<svg height='100px' width='100px'  fill="#000000" xmlns="http://www.w3.org/2000/svg" xmlns:xlink="http://www.w3.org/1999/xlink" version="1.1" x="0px" y="0px" viewBox="0 0 492.073 237.184" style="enable-background:new 0 0 492.073 237.184;" xml:space="preserve"><g><path d="M236.599,77.511c5.809,8.876,8.643,22.813,8.668,42.613c0,4.407-0.146,9.146-0.434,14.088   c-0.239,4.138-3.675,7.378-7.816,7.378c-0.16,0-0.325-0.004-0.486-0.016c-2.04-0.119-3.933-1.029-5.319-2.557v50.191   c0,4.499,3.647,8.145,8.143,8.145c4.499,0,8.146-3.646,8.146-8.145v-59.469h3.053v59.469c0,4.499,3.648,8.145,8.145,8.145   c4.499,0,8.146-3.646,8.146-8.145V90.419c0.39,0.801,0.785,1.721,1.174,2.793c1.857,5.147,3.418,13.592,3.412,26.772   c0,3.632-0.115,7.624-0.372,12.004c-0.171,2.906,2.049,5.398,4.955,5.569c0.103,0.006,0.207,0.01,0.311,0.01   c2.77,0,5.093-2.163,5.257-4.964c0.268-4.567,0.391-8.761,0.391-12.619c-0.026-19.884-3.203-30.887-7.535-37.505   c-2.162-3.284-4.693-5.392-7.033-6.556c-2.207-1.115-4.152-1.381-5.347-1.406c-0.101-0.006-0.2-0.015-0.303-0.015h-25.452   c-0.102,0-0.201,0.009-0.3,0.015c-0.43,0.008-0.959,0.05-1.559,0.149C235.168,75.501,235.893,76.439,236.599,77.511z"></path><circle cx="249.028" cy="55.925" r="14.822"></circle><path d="M183.813,97.874c0.011-0.053,0.021-0.108,0.031-0.162c-0.011-0.063-0.021-0.133-0.031-0.195V97.874z"></path><path d="M202.433,120.116c0,4.891-0.161,10.155-0.48,15.653c-0.266,4.482-3.983,7.992-8.47,7.992c-0.17,0-0.34-0.004-0.509-0.016   c-2.364-0.138-4.448-1.243-5.895-2.906v55.915c0,4.981,4.037,9.016,9.015,9.016c4.979,0,9.017-4.035,9.017-9.016v-65.829h3.381   v65.829c0,4.981,4.038,9.016,9.015,9.016c4.98,0,9.017-4.035,9.017-9.016V87.4c0.433,0.887,0.869,1.905,1.301,3.092   c2.055,5.697,3.783,15.045,3.777,29.634c0,4.021-0.129,8.44-0.413,13.289c-0.188,3.216,2.269,5.976,5.485,6.164   c0.114,0.007,0.229,0.011,0.344,0.011c3.067,0,5.638-2.395,5.818-5.495c0.297-5.056,0.433-9.698,0.433-13.969   c-0.028-22.01-3.546-34.189-8.34-41.516c-2.394-3.635-5.195-5.969-7.786-7.257c-2.443-1.235-4.596-1.529-5.918-1.556   c-0.111-0.007-0.223-0.017-0.336-0.017h-28.173c-0.113,0-0.224,0.01-0.333,0.017c-0.473,0.009-1.054,0.056-1.714,0.164   c0.728,0.859,1.454,1.815,2.163,2.893C199.267,82.69,202.407,98.146,202.433,120.116z"></path><circle cx="206.801" cy="49.217" r="16.407"></circle><path d="M133.995,97.128c0.137-0.783,0.278-1.539,0.426-2.265c-0.138-0.798-0.28-1.564-0.426-2.293V97.128z"></path><path d="M154.653,120.017c0,5.404-0.18,11.242-0.539,17.353c-0.281,4.856-4.31,8.661-9.173,8.661c-0.181,0-0.36-0.004-0.538-0.016   c-2.456-0.144-4.707-1.233-6.34-3.068c-0.039-0.043-0.071-0.091-0.109-0.136v62.515c0,5.539,4.488,10.025,10.023,10.025   c5.538,0,10.027-4.487,10.027-10.025v-73.199h3.758v73.199c0,5.539,4.49,10.025,10.025,10.025c5.537,0,10.026-4.487,10.026-10.025   V83.727c0.481,0.987,0.967,2.119,1.446,3.439c2.285,6.336,4.207,16.729,4.199,32.953c0,4.472-0.143,9.385-0.459,14.776   c-0.209,3.577,2.523,6.646,6.1,6.855c0.127,0.008,0.256,0.012,0.383,0.012c3.408,0,6.269-2.663,6.471-6.11   c0.328-5.622,0.48-10.785,0.48-15.533c-0.032-24.475-3.943-38.018-9.273-46.164c-2.662-4.043-5.777-6.637-8.658-8.07   c-2.717-1.373-5.111-1.701-6.582-1.73c-0.123-0.007-0.246-0.019-0.372-0.019H144.22c-0.125,0-0.248,0.012-0.369,0.019   c-0.614,0.012-1.396,0.083-2.288,0.253c0.831,0.972,1.661,2.059,2.471,3.288C151.149,78.568,154.62,95.68,154.653,120.017z"></path><circle cx="159.884" cy="41.268" r="18.244"></circle><path d="M79.056,93.821c0.215-1.185,0.446-2.293,0.685-3.355c-0.221-1.185-0.449-2.305-0.685-3.344V93.821z"></path><path d="M102.019,119.737c0,6.013-0.201,12.497-0.598,19.277c-0.307,5.278-4.689,9.416-9.978,9.416   c-0.19,0-0.382-0.006-0.573-0.016c-2.68-0.156-5.127-1.342-6.902-3.338c-0.229-0.257-0.441-0.524-0.641-0.8v70.284   c0,6.146,4.981,11.124,11.124,11.124c6.144,0,11.125-4.977,11.125-11.124v-81.219h4.171v81.219c0,6.146,4.982,11.124,11.122,11.124   c6.144,0,11.126-4.977,11.126-11.124V79.64c0.532,1.094,1.072,2.349,1.604,3.815c2.535,7.028,4.668,18.562,4.659,36.562   c0,4.962-0.158,10.413-0.509,16.396c-0.232,3.968,2.799,7.373,6.768,7.606c0.141,0.008,0.283,0.012,0.424,0.012   c3.783,0,6.957-2.953,7.18-6.779c0.363-6.238,0.533-11.965,0.533-17.235c-0.035-27.156-4.375-42.183-10.289-51.222   c-2.954-4.486-6.41-7.363-9.607-8.955c-3.015-1.523-5.669-1.887-7.303-1.919c-0.137-0.008-0.272-0.02-0.412-0.02H90.281   c-0.139,0-0.275,0.013-0.411,0.02c-0.624,0.012-1.398,0.075-2.284,0.23c0.896,1.055,1.791,2.231,2.665,3.558   C98.135,73.753,101.981,92.733,102.019,119.737z"></path><circle cx="107.661" cy="32.529" r="20.244"></circle><path d="M16.569,137.961c-0.393-6.65-0.568-12.709-0.568-18.221c-0.035-24.212,3.496-37.816,6.963-44.917V224.82   c0,6.83,5.537,12.363,12.363,12.363c6.828,0,12.365-5.533,12.365-12.363v-90.271h4.635v90.271c0,6.83,5.537,12.363,12.363,12.363   c6.828,0,12.365-5.533,12.365-12.363V74.862c0.593,1.216,1.191,2.611,1.781,4.239c2.818,7.813,5.189,20.632,5.18,40.639   c0,5.515-0.176,11.573-0.564,18.223c-0.259,4.411,3.109,8.195,7.521,8.454c0.157,0.009,0.315,0.014,0.472,0.014   c4.204,0,7.732-3.281,7.98-7.534c0.404-6.934,0.592-13.299,0.592-19.156c-0.039-30.183-4.861-46.886-11.435-56.931   c-3.283-4.986-7.125-8.184-10.678-9.954c-3.352-1.692-6.303-2.096-8.117-2.133c-0.152-0.009-0.304-0.023-0.459-0.023H30.692   c-0.154,0-0.305,0.014-0.457,0.023c-1.813,0.036-4.766,0.439-8.122,2.131c-5.38,2.667-11.177,8.502-15.235,18.842   C2.772,82.075,0.015,97.08,0,119.74c0,5.855,0.189,12.224,0.595,19.158c0.249,4.251,3.775,7.532,7.98,7.533   c0.158,0,0.316-0.005,0.475-0.014C13.462,146.156,16.827,142.372,16.569,137.961z"></path><circle cx="50.01" cy="22.5" r="22.5"></circle><rect x="185.073" y="4.006" width="307" height="11.5"></rect><path d="M311.239,22.13h-33.332v21.334h33.332V22.13z M287.573,39.297h-5.625v-2.5h5.625V39.297z M287.573,34.047h-5.625v-2.5   h5.625V34.047z M287.573,28.797h-5.625v-2.5h5.625V28.797z M307.198,39.297h-17v-2.5h17V39.297z M307.198,34.047h-17v-2.5h17   V34.047z M307.198,28.797h-17v-2.5h17V28.797z"></path><path d="M357.573,22.13h-33.334v21.334h33.334V22.13z M333.907,39.297h-5.625v-2.5h5.625V39.297z M333.907,34.047h-5.625v-2.5   h5.625V34.047z M333.907,28.797h-5.625v-2.5h5.625V28.797z M353.532,39.297h-17v-2.5h17V39.297z M353.532,34.047h-17v-2.5h17   V34.047z M353.532,28.797h-17v-2.5h17V28.797z"></path><path d="M370.573,43.464h33.333V22.13h-33.333V43.464z M382.865,26.297h17v2.5h-17V26.297z M382.865,31.547h17v2.5h-17V31.547z    M382.865,36.797h17v2.5h-17V36.797z M374.615,26.297h5.625v2.5h-5.625V26.297z M374.615,31.547h5.625v2.5h-5.625V31.547z    M374.615,36.797h5.625v2.5h-5.625V36.797z"></path><path d="M416.906,43.464h33.333V22.13h-33.333V43.464z M429.198,26.297h17v2.5h-17V26.297z M429.198,31.547h17v2.5h-17V31.547z    M429.198,36.797h17v2.5h-17V36.797z M420.948,26.297h5.625v2.5h-5.625V26.297z M420.948,31.547h5.625v2.5h-5.625V31.547z    M420.948,36.797h5.625v2.5h-5.625V36.797z"></path><ellipse transform="matrix(0.2268 -0.9739 0.9739 0.2268 170.2201 392.9306)" cx="332.585" cy="89.258" rx="10.325" ry="10.325"></ellipse><path d="M320.148,113.221l-1.513,7.785h27.898l-1.51-7.773c0.096,0.118,0.191,0.229,0.288,0.353c1.371,1.76,2.831,4.171,4.208,7.42   h6.713c-2.17-5.88-4.735-9.954-7.254-12.766c-2.592-2.906-5.11-4.402-6.912-5.163l-7.139,11.886l-1.457-5.621l4.188-6.781   c-1.421-0.198-3.105-0.337-5.073-0.337c-1.969,0-3.653,0.139-5.074,0.337l4.188,6.78l-1.457,5.621l-7.14-11.886   c-1.802,0.761-4.32,2.257-6.911,5.163c-2.519,2.813-5.084,6.886-7.254,12.766h6.715   C317.125,117.531,318.694,115.014,320.148,113.221z"></path><ellipse transform="matrix(0.2268 -0.9739 0.9739 0.2268 220.0635 455.71)" cx="397.041" cy="89.258" rx="10.325" ry="10.325"></ellipse><path d="M384.604,113.22l-1.513,7.786h27.898l-1.51-7.772c0.096,0.118,0.19,0.228,0.287,0.352c1.371,1.76,2.832,4.171,4.209,7.42   h6.713c-2.17-5.88-4.735-9.954-7.254-12.766c-2.592-2.906-5.11-4.402-6.912-5.163l-7.139,11.886l-1.457-5.621l4.187-6.781   c-1.421-0.198-3.105-0.337-5.074-0.337c-1.969,0-3.653,0.139-5.074,0.337l4.187,6.78l-1.457,5.621l-7.139-11.886   c-1.801,0.761-4.32,2.257-6.912,5.163c-2.519,2.813-5.084,6.886-7.254,12.766h6.715C381.581,117.531,383.15,115.013,384.604,113.22   z"></path><rect x="293.573" y="125.672" width="141" height="51.334"></rect></g></svg>