<svg height='100px' width='100px'  fill="#000000" xmlns:dc="http://purl.org/dc/elements/1.1/" xmlns:cc="http://creativecommons.org/ns#" xmlns:rdf="http://www.w3.org/1999/02/22-rdf-syntax-ns#" xmlns:svg="http://www.w3.org/2000/svg" xmlns="http://www.w3.org/2000/svg" xmlns:sodipodi="http://sodipodi.sourceforge.net/DTD/sodipodi-0.dtd" xmlns:inkscape="http://www.inkscape.org/namespaces/inkscape" version="1.1" x="0px" y="0px" viewBox="0 0 64 64" style="enable-background:new 0 0 64 64;" xml:space="preserve"><style type="text/css">
	.st0{fill:#000000;}
	.st1{fill:#000000;}
	.st2{fill:none;stroke:#000000;stroke-linecap:round;stroke-linejoin:round;stroke-miterlimit:10;}
	.st3{fill:none;stroke:#000000;stroke-linecap:round;stroke-linejoin:round;}
	.st4{fill:none;stroke:#000000;stroke-linecap:round;stroke-linejoin:round;stroke-miterlimit:10;}
	.st5{fill:#000000;}
	.st6{fill:#000000;}
	.st7{fill:#000000;}
	.st8{fill:none;stroke:#000000;stroke-miterlimit:10;}
	.st9{fill:none;stroke:#000000;stroke-linecap:round;stroke-linejoin:round;stroke-dasharray:0.5074,2.0294;}
	.st10{fill:none;stroke:#000000;stroke-linecap:round;stroke-linejoin:round;}
	.st11{fill:none;stroke:#000000;stroke-linecap:round;stroke-linejoin:round;stroke-dasharray:1.0247,2.0495;}
	.st12{fill:none;stroke:#000000;stroke-linecap:round;stroke-linejoin:round;stroke-dasharray:1.0232,2.0464;}
	.st13{fill:#000000;stroke:#000000;stroke-linecap:round;stroke-linejoin:round;stroke-miterlimit:10;}
	.st14{stroke:#000000;stroke-linecap:round;stroke-linejoin:round;stroke-miterlimit:10;}
	.st15{fill:none;stroke:#000000;stroke-linecap:round;stroke-linejoin:round;stroke-miterlimit:10;}
	.st16{fill:none;stroke:#000000;stroke-linecap:round;stroke-linejoin:round;stroke-miterlimit:10;stroke-dasharray:1,2;}
	.st17{fill:none;stroke:#000000;stroke-linecap:round;stroke-linejoin:round;stroke-dasharray:1,2;}
	
		.st18{fill-rule:evenodd;clip-rule:evenodd;fill:none;stroke:#000000;stroke-linecap:round;stroke-linejoin:round;stroke-miterlimit:10;}
</style><path style="" d="M 32.009766 3 C 28.700766 3 26.009766 5.691 26.009766 9 C 26.009766 9.224 26.022875 9.4441094 26.046875 9.6621094 C 26.082875 9.9901094 26.154141 10.311 26.244141 10.625 C 26.265141 10.698 26.281688 10.77175 26.304688 10.84375 C 26.386688 11.09275 26.488516 11.334313 26.603516 11.570312 C 26.669516 11.709313 26.739406 11.845516 26.816406 11.978516 C 26.863406 12.058516 26.916797 12.134891 26.966797 12.212891 C 27.145797 12.493891 27.344406 12.757906 27.566406 13.003906 C 27.576406 13.014906 27.585703 13.024156 27.595703 13.035156 C 28.696703 14.239156 30.263766 15 32.009766 15 C 33.265766 15 34.431484 14.610266 35.396484 13.947266 C 35.398484 13.945266 35.401297 13.946313 35.404297 13.945312 C 35.439297 13.921314 35.470859 13.892187 35.505859 13.867188 C 35.644859 13.767188 35.780156 13.663734 35.910156 13.552734 C 35.972156 13.498734 36.031797 13.440766 36.091797 13.384766 C 36.195797 13.287766 36.297531 13.186031 36.394531 13.082031 C 36.450531 13.021031 36.506547 12.962391 36.560547 12.900391 C 36.666547 12.776391 36.767281 12.646672 36.863281 12.513672 C 36.895281 12.468672 36.931891 12.427813 36.962891 12.382812 C 37.087891 12.200813 37.200687 12.011406 37.304688 11.816406 C 37.325688 11.777406 37.341328 11.736266 37.361328 11.697266 C 37.442328 11.537266 37.517984 11.373078 37.583984 11.205078 C 37.607984 11.145078 37.628391 11.084437 37.650391 11.023438 C 37.705391 10.871437 37.754875 10.716547 37.796875 10.560547 C 37.814875 10.493547 37.831656 10.427375 37.847656 10.359375 C 37.884656 10.198375 37.915453 10.036094 37.939453 9.8710938 C 37.948453 9.8090937 37.959797 9.7485469 37.966797 9.6855469 C 37.993797 9.4605469 38.009766 9.232 38.009766 9 C 38.009766 5.691 35.318766 3 32.009766 3 z M 32.009766 4 C 34.766766 4 37.009766 6.243 37.009766 9 C 37.009766 9.315 36.973969 9.6209219 36.917969 9.9199219 C 36.898969 10.022922 36.866797 10.123609 36.841797 10.224609 C 36.792797 10.418609 36.735062 10.608969 36.664062 10.792969 C 36.622062 10.900969 36.576344 11.005375 36.527344 11.109375 C 36.445344 11.283375 36.353906 11.451281 36.253906 11.613281 C 36.196906 11.706281 36.141125 11.799672 36.078125 11.888672 C 36.051125 11.925672 36.018234 11.957141 35.990234 11.994141 C 35.988234 10.652141 35.2965 9.4019219 34.1875 8.6699219 C 34.3735 8.3199219 34.490234 7.924 34.490234 7.5 C 34.490234 6.122 33.368234 5 31.990234 5 C 30.612234 5 29.490234 6.122 29.490234 7.5 C 29.490234 7.593 29.495859 7.6833906 29.505859 7.7753906 C 29.541859 8.1003906 29.639156 8.4047344 29.785156 8.6777344 C 28.694156 9.4027344 28.008234 10.628219 27.990234 11.949219 C 27.774234 11.659219 27.601125 11.344578 27.453125 11.017578 C 27.401125 10.899578 27.349641 10.781203 27.306641 10.658203 C 27.268641 10.552203 27.233125 10.445891 27.203125 10.337891 C 27.133125 10.083891 27.072969 9.8246875 27.042969 9.5546875 C 27.021969 9.3716875 27.009766 9.187 27.009766 9 C 27.009766 6.243 29.252766 4 32.009766 4 z M 31.990234 6 C 32.817234 6 33.490234 6.673 33.490234 7.5 C 33.490234 7.885 33.339609 8.234 33.099609 8.5 L 33.097656 8.5019531 C 32.761656 8.8729531 32.268781 9.0228436 31.800781 8.9648438 C 31.733781 8.9558437 31.669469 8.9466875 31.605469 8.9296875 C 31.510469 8.9046875 31.417125 8.871125 31.328125 8.828125 C 31.239125 8.784125 31.154172 8.7338281 31.076172 8.6738281 C 31.023172 8.6338281 30.974734 8.5900156 30.927734 8.5410156 C 30.700734 8.3090156 30.536047 8.0129687 30.498047 7.6679688 C 30.493047 7.6129688 30.490234 7.557 30.490234 7.5 C 30.490234 6.673 31.163234 6 31.990234 6 z M 9.0097656 7 C 5.7007656 7 3.0097656 9.691 3.0097656 13 C 3.0097656 13.224 3.022875 13.444109 3.046875 13.662109 C 3.082875 13.989109 3.1541406 14.309047 3.2441406 14.623047 C 3.2651406 14.696047 3.2816875 14.77175 3.3046875 14.84375 C 3.3866875 15.09275 3.4885156 15.334313 3.6035156 15.570312 C 3.6695156 15.709313 3.7394064 15.843564 3.8164062 15.976562 C 3.8634063 16.056562 3.9167969 16.132936 3.9667969 16.210938 C 4.1457969 16.491937 4.3444062 16.755953 4.5664062 17.001953 C 4.5764062 17.012953 4.5857031 17.022203 4.5957031 17.033203 C 5.6967031 18.238203 7.2637656 19 9.0097656 19 C 10.265766 19 11.431484 18.610266 12.396484 17.947266 C 12.398484 17.945266 12.401297 17.946312 12.404297 17.945312 C 12.439297 17.921312 12.470859 17.892188 12.505859 17.867188 C 12.644859 17.767187 12.780156 17.663734 12.910156 17.552734 C 12.973156 17.498734 13.03375 17.441766 13.09375 17.384766 C 13.19775 17.287766 13.297531 17.186031 13.394531 17.082031 C 13.450531 17.021031 13.5085 16.962391 13.5625 16.900391 C 13.6685 16.776391 13.767281 16.646672 13.863281 16.513672 C 13.895281 16.468672 13.931891 16.427813 13.962891 16.382812 C 14.087891 16.200813 14.202641 16.011406 14.306641 15.816406 C 14.327641 15.777406 14.343281 15.736266 14.363281 15.697266 C 14.444281 15.537266 14.519936 15.373078 14.585938 15.205078 C 14.609936 15.145078 14.630344 15.084437 14.652344 15.023438 C 14.707344 14.871437 14.754875 14.716547 14.796875 14.560547 C 14.814875 14.493547 14.833609 14.427375 14.849609 14.359375 C 14.886609 14.198375 14.915453 14.036094 14.939453 13.871094 C 14.948453 13.809094 14.96175 13.748547 14.96875 13.685547 C 14.99475 13.460547 15.009766 13.232 15.009766 13 C 15.009766 9.691 12.318766 7 9.0097656 7 z M 54.990234 7 C 51.681234 7 48.990234 9.691 48.990234 13 C 48.990234 13.224 49.001391 13.444109 49.025391 13.662109 C 49.061391 13.989109 49.132656 14.309047 49.222656 14.623047 C 49.243656 14.697047 49.261156 14.771703 49.285156 14.845703 C 49.367156 15.094703 49.468031 15.335313 49.582031 15.570312 C 49.648031 15.710313 49.718922 15.845516 49.794922 15.978516 C 49.839922 16.056516 49.892406 16.131031 49.941406 16.207031 C 50.121406 16.490031 50.321922 16.756906 50.544922 17.003906 C 50.554922 17.014906 50.564219 17.024156 50.574219 17.035156 C 51.675219 18.239156 53.243234 19 54.990234 19 C 56.246234 19 57.411953 18.609266 58.376953 17.947266 C 58.378953 17.946266 58.382766 17.946312 58.384766 17.945312 C 58.416766 17.923313 58.443609 17.898 58.474609 17.875 C 58.617609 17.772 58.757625 17.664781 58.890625 17.550781 C 58.951625 17.497781 59.009359 17.442672 59.068359 17.388672 C 59.174359 17.290672 59.276 17.187031 59.375 17.082031 C 59.431 17.022031 59.486062 16.964344 59.539062 16.902344 C 59.646062 16.778344 59.74675 16.648625 59.84375 16.515625 C 59.87575 16.470625 59.910406 16.428812 59.941406 16.382812 C 60.065406 16.200813 60.181156 16.011406 60.285156 15.816406 C 60.306156 15.777406 60.322797 15.736266 60.341797 15.697266 C 60.422797 15.537266 60.497453 15.375031 60.564453 15.207031 C 60.588453 15.146031 60.608859 15.085437 60.630859 15.023438 C 60.684859 14.872438 60.733391 14.7185 60.775391 14.5625 C 60.793391 14.4955 60.812125 14.428375 60.828125 14.359375 C 60.865125 14.199375 60.893969 14.035094 60.917969 13.871094 C 60.926969 13.808094 60.939266 13.748547 60.947266 13.685547 C 60.973266 13.460547 60.990234 13.232 60.990234 13 C 60.990234 9.691 58.299234 7 54.990234 7 z M 9.0097656 8 C 11.766766 8 14.009766 10.243 14.009766 13 C 14.009766 13.315 13.973969 13.620922 13.917969 13.919922 C 13.898969 14.022922 13.866797 14.123609 13.841797 14.224609 C 13.792797 14.418609 13.735062 14.608969 13.664062 14.792969 C 13.622064 14.900969 13.576344 15.005375 13.527344 15.109375 C 13.445344 15.283375 13.353906 15.451281 13.253906 15.613281 C 13.196906 15.706281 13.141125 15.799672 13.078125 15.888672 C 13.051125 15.925672 13.018234 15.957141 12.990234 15.994141 C 12.988234 14.652141 12.2965 13.401922 11.1875 12.669922 C 11.3755 12.318922 11.490234 11.924 11.490234 11.5 C 11.490234 10.122 10.368234 9 8.9902344 9 C 7.6122344 9 6.4902344 10.122 6.4902344 11.5 C 6.4902344 11.593 6.4958594 11.683391 6.5058594 11.775391 C 6.5418594 12.100391 6.6391564 12.404734 6.7851562 12.677734 C 5.6941562 13.402734 5.0101875 14.628219 4.9921875 15.949219 C 4.7761875 15.659219 4.601125 15.344578 4.453125 15.017578 C 4.399125 14.898578 4.3476875 14.77925 4.3046875 14.65625 C 4.2666875 14.55025 4.2311719 14.445891 4.2011719 14.337891 C 4.1311719 14.083891 4.0710156 13.824686 4.0410156 13.554688 C 4.0210156 13.372687 4.0097656 13.187 4.0097656 13 C 4.0097656 10.243 6.2527656 8 9.0097656 8 z M 54.990234 8 C 57.747234 8 59.990234 10.243 59.990234 13 C 59.990234 13.315 59.952484 13.620922 59.896484 13.919922 C 59.877484 14.023922 59.846313 14.122609 59.820312 14.224609 C 59.771313 14.417609 59.715531 14.608969 59.644531 14.792969 C 59.602531 14.901969 59.554859 15.006328 59.505859 15.111328 C 59.424859 15.283328 59.334375 15.450328 59.234375 15.611328 C 59.176375 15.705328 59.120641 15.800625 59.056641 15.890625 C 59.029641 15.927625 58.99575 15.959094 58.96875 15.996094 C 58.96675 14.653094 58.275016 13.402922 57.166016 12.669922 C 57.354016 12.318922 57.470703 11.925953 57.470703 11.501953 C 57.470703 10.123953 56.348703 9.0019531 54.970703 9.0019531 C 53.592703 9.0019531 52.470703 10.123953 52.470703 11.501953 C 52.470703 11.595953 52.474375 11.688344 52.484375 11.777344 C 52.520375 12.102344 52.618672 12.404734 52.763672 12.677734 C 51.672672 13.402734 50.988703 14.628219 50.970703 15.949219 C 50.754703 15.659219 50.579641 15.344578 50.431641 15.017578 C 50.379641 14.899578 50.328156 14.781203 50.285156 14.658203 C 50.247156 14.552203 50.212641 14.445891 50.181641 14.337891 C 50.111641 14.083891 50.049531 13.824686 50.019531 13.554688 C 49.999531 13.372687 49.990234 13.187 49.990234 13 C 49.990234 10.243 52.233234 8 54.990234 8 z M 30.433594 9.4472656 C 30.862594 9.7902656 31.401234 10 31.990234 10 C 32.414234 10 32.808203 9.8842656 33.158203 9.6972656 C 33.183203 9.6842656 33.206469 9.67025 33.230469 9.65625 C 33.324469 9.60225 33.415953 9.5445156 33.501953 9.4785156 C 33.516953 9.4675156 33.533828 9.4592656 33.548828 9.4472656 C 34.434828 9.9882656 34.990234 10.957 34.990234 12 C 34.990234 12.402 34.890797 12.800406 34.716797 13.191406 C 33.934797 13.697406 33.008766 14 32.009766 14 C 30.983766 14 30.032375 13.679484 29.234375 13.146484 C 29.116375 12.867484 29.036813 12.599078 29.007812 12.330078 C 28.995812 12.222078 28.990234 12.112 28.990234 12 C 28.990234 10.958 29.547594 9.9882656 30.433594 9.4472656 z M 8.9902344 10 C 9.8172344 10 10.490234 10.673 10.490234 11.5 C 10.490234 11.885 10.339609 12.234 10.099609 12.5 L 10.097656 12.501953 C 9.7616564 12.872953 9.2687812 13.022844 8.8007812 12.964844 C 8.7337812 12.955844 8.6694686 12.945734 8.6054688 12.927734 C 8.5104686 12.902734 8.4190781 12.869172 8.3300781 12.826172 C 8.2410781 12.782172 8.156125 12.733828 8.078125 12.673828 C 8.025125 12.633828 7.9747344 12.588063 7.9277344 12.539062 C 7.7007344 12.307063 7.5360469 12.012969 7.4980469 11.667969 C 7.4920469 11.613969 7.4902344 11.557 7.4902344 11.5 C 7.4902344 10.673 8.1632344 10 8.9902344 10 z M 54.970703 10 C 55.797703 10 56.470703 10.673 56.470703 11.5 C 56.469703 11.885 56.318125 12.234 56.078125 12.5 L 56.076172 12.501953 C 55.740172 12.872953 55.247297 13.022844 54.779297 12.964844 C 54.713297 12.955844 54.648937 12.946688 54.585938 12.929688 C 54.489938 12.904686 54.395641 12.869172 54.306641 12.826172 C 54.218641 12.782172 54.135594 12.733828 54.058594 12.673828 C 54.005594 12.633828 53.955203 12.589016 53.908203 12.541016 C 53.681203 12.309016 53.516516 12.010064 53.478516 11.664062 C 53.472516 11.610062 53.470703 11.556 53.470703 11.5 C 53.470703 10.673 54.143703 10 54.970703 10 z M 7.4335938 13.447266 C 7.8625938 13.790266 8.4012344 14 8.9902344 14 C 9.4142344 14 9.8082032 13.884266 10.158203 13.697266 C 10.183203 13.684266 10.206469 13.67025 10.230469 13.65625 C 10.324469 13.60225 10.415953 13.544516 10.501953 13.478516 C 10.516953 13.467516 10.533828 13.459266 10.548828 13.447266 C 11.434828 13.988266 11.990234 14.957 11.990234 16 C 11.990234 16.402 11.890797 16.800406 11.716797 17.191406 C 10.934797 17.697406 10.008766 18 9.0097656 18 C 7.9837656 18 7.032375 17.679484 6.234375 17.146484 C 6.116375 16.867484 6.0368125 16.599078 6.0078125 16.330078 C 5.9958125 16.222078 5.9902344 16.112 5.9902344 16 C 5.9902344 14.958 6.5475937 13.988266 7.4335938 13.447266 z M 53.412109 13.447266 C 53.841109 13.790266 54.37975 14 54.96875 14 C 55.39375 14 55.787672 13.883314 56.138672 13.695312 C 56.162672 13.682314 56.187938 13.67025 56.210938 13.65625 C 56.304938 13.60225 56.394469 13.544516 56.480469 13.478516 C 56.495469 13.467516 56.512344 13.459266 56.527344 13.447266 C 57.413344 13.988266 57.96875 14.957 57.96875 16 C 57.96875 16.402 57.869313 16.801406 57.695312 17.191406 C 56.913314 17.698406 55.988234 18 54.990234 18 C 53.963234 18 53.012844 17.679484 52.214844 17.146484 C 52.096844 16.868484 52.016328 16.600031 51.986328 16.332031 C 51.974328 16.223031 51.96875 16.113 51.96875 16 C 51.96875 14.958 52.526109 13.988266 53.412109 13.447266 z M 29.009766 15.990234 C 28.733766 15.990234 28.509766 16.214234 28.509766 16.490234 L 28.509766 18.490234 C 28.509766 18.766234 28.733766 18.990234 29.009766 18.990234 C 29.285766 18.990234 29.509766 18.766234 29.509766 18.490234 L 29.509766 16.490234 C 29.509766 16.214234 29.285766 15.990234 29.009766 15.990234 z M 35.009766 15.990234 C 34.733766 15.990234 34.509766 16.214234 34.509766 16.490234 L 34.509766 18.490234 C 34.509766 18.766234 34.733766 18.990234 35.009766 18.990234 C 35.285766 18.990234 35.509766 18.766234 35.509766 18.490234 L 35.509766 16.490234 C 35.509766 16.214234 35.285766 15.990234 35.009766 15.990234 z M 31.009766 16.990234 C 30.733766 16.990234 30.509766 17.214234 30.509766 17.490234 L 30.509766 18.490234 C 30.509766 18.766234 30.733766 18.990234 31.009766 18.990234 C 31.285766 18.990234 31.509766 18.766234 31.509766 18.490234 L 31.509766 17.490234 C 31.509766 17.214234 31.285766 16.990234 31.009766 16.990234 z M 33.009766 16.990234 C 32.733766 16.990234 32.509766 17.214234 32.509766 17.490234 L 32.509766 18.490234 C 32.509766 18.766234 32.733766 18.990234 33.009766 18.990234 C 33.285766 18.990234 33.509766 18.766234 33.509766 18.490234 L 33.509766 17.490234 C 33.509766 17.214234 33.285766 16.990234 33.009766 16.990234 z M 12.542969 19.457031 C 12.414969 19.457031 12.286953 19.506016 12.189453 19.603516 C 11.994453 19.798516 11.994453 20.115547 12.189453 20.310547 L 13.603516 21.724609 C 13.700516 21.821609 13.829031 21.871094 13.957031 21.871094 C 14.085031 21.871094 14.212547 21.821609 14.310547 21.724609 C 14.505547 21.529609 14.505547 21.212578 14.310547 21.017578 L 12.896484 19.603516 C 12.798984 19.506016 12.670969 19.457031 12.542969 19.457031 z M 51.042969 19.457031 C 50.914969 19.457031 50.786953 19.506016 50.689453 19.603516 L 49.275391 21.017578 C 49.080391 21.212578 49.080391 21.529609 49.275391 21.724609 C 49.373391 21.822609 49.500906 21.871094 49.628906 21.871094 C 49.756906 21.871094 49.884422 21.821609 49.982422 21.724609 L 51.396484 20.310547 C 51.591484 20.114547 51.592484 19.798516 51.396484 19.603516 C 51.298984 19.506016 51.170969 19.457031 51.042969 19.457031 z M 45.503906 19.890625 C 45.055906 19.849625 44.624547 20.010219 44.310547 20.324219 L 39.361328 25.275391 C 39.058328 25.578391 38.898828 25.998781 38.923828 26.425781 C 38.924828 26.441781 38.934547 26.454703 38.935547 26.470703 C 38.937547 26.482703 38.932547 26.495812 38.935547 26.507812 C 38.939547 26.524812 38.950078 26.536734 38.955078 26.552734 C 39.002078 26.868734 39.131375 27.167484 39.359375 27.396484 L 42.189453 30.224609 C 42.481453 30.516609 42.865 30.662109 43.25 30.662109 C 43.635 30.662109 44.017547 30.516609 44.310547 30.224609 L 49.261719 25.275391 C 49.544719 24.992391 49.699219 24.615844 49.699219 24.214844 C 49.699219 23.814844 49.544719 23.436344 49.261719 23.152344 L 46.431641 20.324219 C 46.181641 20.075219 45.851906 19.921625 45.503906 19.890625 z M 18.082031 19.894531 C 17.732031 19.924531 17.404297 20.077172 17.154297 20.326172 L 14.324219 23.15625 C 13.740219 23.74125 13.740219 24.693344 14.324219 25.277344 L 19.275391 30.224609 C 19.558391 30.507609 19.934938 30.664063 20.335938 30.664062 C 20.735937 30.664062 21.112484 30.507609 21.396484 30.224609 L 24.224609 27.396484 C 24.452609 27.168484 24.582859 26.870688 24.630859 26.554688 C 24.636859 26.538688 24.646391 26.524813 24.650391 26.507812 C 24.653391 26.495812 24.648391 26.484656 24.650391 26.472656 C 24.651391 26.456656 24.661109 26.441781 24.662109 26.425781 C 24.687109 25.997781 24.527609 25.578344 24.224609 25.277344 L 19.275391 20.326172 C 18.961391 20.011172 18.524031 19.857531 18.082031 19.894531 z M 30.009766 20.009766 C 29.658766 20.009766 29.317828 20.134375 29.048828 20.359375 C 28.706828 20.645375 28.509766 21.064766 28.509766 21.509766 L 28.509766 28.509766 C 28.509766 28.938766 28.694625 29.348812 29.015625 29.632812 C 29.027625 29.643812 29.043641 29.64525 29.056641 29.65625 C 29.066641 29.66325 29.070078 29.675641 29.080078 29.681641 C 29.089078 29.687641 29.100375 29.684453 29.109375 29.689453 C 29.369375 29.888453 29.679766 30.009766 30.009766 30.009766 L 34.009766 30.009766 C 34.836766 30.009766 35.509766 29.336766 35.509766 28.509766 L 35.509766 21.509766 C 35.509766 20.682766 34.836766 20.009766 34.009766 20.009766 L 30.009766 20.009766 z M 10.421875 20.164062 C 10.29375 20.164062 10.165859 20.212547 10.068359 20.310547 C 9.8733598 20.505547 9.8733598 20.822578 10.068359 21.017578 L 12.189453 23.140625 C 12.287453 23.238625 12.416922 23.285156 12.544922 23.285156 C 12.672922 23.285156 12.800438 23.237625 12.898438 23.140625 C 13.093438 22.945625 13.093438 22.628594 12.898438 22.433594 L 10.775391 20.310547 C 10.677391 20.212547 10.55 20.164062 10.421875 20.164062 z M 53.164062 20.164062 C 53.036062 20.164062 52.908047 20.213047 52.810547 20.310547 L 50.689453 22.433594 C 50.494453 22.628594 50.494453 22.945625 50.689453 23.140625 C 50.786453 23.237625 50.914969 23.285156 51.042969 23.285156 C 51.170969 23.285156 51.298484 23.237625 51.396484 23.140625 L 53.517578 21.017578 C 53.712578 20.822578 53.712578 20.505547 53.517578 20.310547 C 53.420078 20.213047 53.292063 20.164062 53.164062 20.164062 z M 30.230469 21.009766 L 34.009766 21.009766 C 34.285766 21.010766 34.509766 21.233766 34.509766 21.509766 L 34.509766 28.509766 C 34.509766 28.785766 34.285766 29.009766 34.009766 29.009766 L 30.095703 29.009766 L 31.884766 26.177734 C 32.373766 25.403734 32.373766 24.402953 31.884766 23.626953 L 30.230469 21.009766 z M 17.703125 21.189453 L 18.386719 24.210938 C 18.588719 25.104937 19.296453 25.811672 20.189453 26.013672 L 23.455078 26.751953 L 20.689453 29.517578 C 20.500453 29.706578 20.171422 29.706578 19.982422 29.517578 L 15.03125 24.568359 C 14.83625 24.373359 14.83625 24.056328 15.03125 23.861328 L 17.703125 21.189453 z M 45.880859 21.189453 L 48.552734 23.861328 C 48.646734 23.956328 48.699219 24.080844 48.699219 24.214844 C 48.699219 24.348844 48.646734 24.473359 48.552734 24.568359 L 43.603516 29.519531 C 43.408516 29.714531 43.091484 29.713531 42.896484 29.519531 L 40.128906 26.751953 L 43.394531 26.013672 C 44.288531 25.811672 44.996266 25.103938 45.197266 24.210938 L 45.880859 21.189453 z M 18.730469 21.195312 L 23.203125 25.667969 L 20.410156 25.037109 C 19.890156 24.920109 19.478328 24.507281 19.361328 23.988281 L 18.730469 21.195312 z M 44.853516 21.195312 L 44.222656 23.988281 C 44.105656 24.507281 43.695781 24.920109 43.175781 25.037109 L 40.382812 25.667969 L 44.853516 21.195312 z M 29.509766 21.740234 L 31.039062 24.160156 C 31.323062 24.611156 31.323063 25.194531 31.039062 25.644531 L 29.509766 28.066406 L 29.509766 21.740234 z M 32.011719 32 C 29.254719 32 27.011719 34.243 27.011719 37 L 18.511719 37 C 17.133719 37 16.011719 38.122 16.011719 39.5 L 16.011719 56 L 14.511719 56 C 14.235719 56 14.011719 56.224 14.011719 56.5 L 14.011719 57.5 C 14.011719 59.43 15.581719 61 17.511719 61 L 46.511719 61 C 48.441719 61 50.011719 59.43 50.011719 57.5 L 50.011719 56.5 C 50.011719 56.224 49.787719 56 49.511719 56 L 48.011719 56 L 48.011719 39.5 C 48.011719 38.122 46.889719 37 45.511719 37 L 37.011719 37 C 37.011719 34.243 34.768719 32 32.011719 32 z M 32.009766 33 C 34.215766 33 36.009766 34.794 36.009766 37 C 36.009766 39.206 34.215766 41 32.009766 41 C 29.966766 41 28.257203 39.470406 28.033203 37.441406 C 28.018203 37.296406 28.009766 37.149 28.009766 37 C 28.009766 34.794 29.804766 33 32.009766 33 z M 32.009766 34 C 30.355766 34 29.009766 35.346 29.009766 37 C 29.009766 37.111 29.015344 37.221078 29.027344 37.330078 C 29.055344 37.586078 29.272391 37.775391 29.525391 37.775391 C 29.543391 37.775391 29.560125 37.775438 29.578125 37.773438 C 29.853125 37.744436 30.053438 37.496656 30.023438 37.222656 C 30.015438 37.148656 30.009766 37.075 30.009766 37 C 30.009766 35.897 30.906766 35 32.009766 35 C 32.285766 35 32.509766 34.776 32.509766 34.5 C 32.509766 34.224 32.285766 34 32.009766 34 z M 18.511719 38 L 27.132812 38 C 27.203813 38.349 27.307313 38.683 27.445312 39 L 18.511719 39 C 18.235719 39 18.011719 39.224 18.011719 39.5 L 18.011719 54.5 C 18.011719 54.776 18.235719 55 18.511719 55 L 45.511719 55 C 45.787719 55 46.011719 54.776 46.011719 54.5 L 46.011719 39.5 C 46.011719 39.224 45.787719 39 45.511719 39 L 36.587891 39 C 36.727891 38.682 36.839156 38.349 36.910156 38 L 45.511719 38 C 46.338719 38 47.011719 38.673 47.011719 39.5 L 47.011719 56 L 35.511719 56 L 28.511719 56 L 17.011719 56 L 17.011719 39.5 C 17.011719 38.673 17.684719 38 18.511719 38 z M 35.986328 39.998047 C 35.987328 39.998047 35.988234 40 35.990234 40 L 45.011719 40 L 45.011719 54 L 19.011719 54 L 19.011719 40 L 28.015625 40 C 28.632625 40.822 29.496186 41.429094 30.492188 41.746094 L 30.507812 43 C 30.233812 43.002 30.011719 43.223047 30.011719 43.498047 L 30.011719 49 C 30.011719 50.103 30.908719 51 32.011719 51 C 33.114719 51 34.011719 50.103 34.011719 49 L 34.011719 43.5 C 34.011719 43.224 33.787719 43 33.511719 43 L 33.507812 43 L 33.492188 41.75 C 34.497188 41.435 35.364328 40.820047 35.986328 39.998047 z M 31.494141 41.951172 C 31.665141 41.969172 31.833766 42 32.009766 42 C 32.175766 42 32.332141 41.967172 32.494141 41.951172 L 32.505859 43 L 31.505859 43 L 31.494141 41.951172 z M 31.009766 44 L 33.009766 44 L 33.009766 49 C 33.009766 49.551 32.560766 50 32.009766 50 C 31.458766 50 31.009766 49.551 31.009766 49 L 31.009766 44 z M 15.011719 57 L 16.011719 57 L 28.011719 57 L 28.011719 58.5 C 28.011719 58.776 28.235719 59 28.511719 59 L 35.511719 59 C 35.787719 59 36.011719 58.776 36.011719 58.5 L 36.011719 57 L 48.011719 57 L 49.011719 57 L 49.011719 57.5 C 49.011719 58.878 47.889719 60 46.511719 60 L 17.511719 60 C 16.133719 60 15.011719 58.878 15.011719 57.5 L 15.011719 57 z M 29.011719 57 L 35.011719 57 L 35.011719 58 L 29.011719 58 L 29.011719 57 z " fill="#000000" stroke="none"></path></svg>