<svg xmlns="http://www.w3.org/2000/svg" xmlns:xlink="http://www.w3.org/1999/xlink" width="554pt" height="139pt" viewBox="0.00 0.00 554.40 139.46">
<g id="graph0" class="graph" transform="scale(1 1) rotate(0) translate(4 135.46)">
<title>G</title>
<polygon fill="white" stroke="transparent" points="-4,4 -4,-135.46 550.4,-135.46 550.4,4 -4,4"/>
<!-- 0000 -->
<g id="node1" class="node">
<title>0000</title>
<ellipse fill="gold" stroke="black" cx="53.09" cy="-106" rx="53.18" ry="25.41"/>
<text text-anchor="middle" x="53.09" y="-108.8" font-family="Times,serif" font-size="14.00">Buy</text>
<text text-anchor="middle" x="53.09" y="-94.8" font-family="Times,serif" font-size="14.00">vegetables</text>
</g>
<!-- 0002 -->
<g id="node3" class="node">
<title>0002</title>
<ellipse fill="gold" stroke="black" cx="195.28" cy="-106" rx="53.18" ry="25.41"/>
<text text-anchor="middle" x="195.28" y="-108.8" font-family="Times,serif" font-size="14.00">Chop</text>
<text text-anchor="middle" x="195.28" y="-94.8" font-family="Times,serif" font-size="14.00">vegetables</text>
</g>
<!-- 0000&#45;&gt;0002 -->
<g id="edge1" class="edge">
<title>0000-&gt;0002</title>
<path fill="none" stroke="black" d="M106.29,-106C114.59,-106 123.25,-106 131.76,-106"/>
<polygon fill="black" stroke="black" points="132.03,-109.5 142.03,-106 132.03,-102.5 132.03,-109.5"/>
</g>
<!-- 0001 -->
<g id="node2" class="node">
<title>0001</title>
<ellipse fill="dodgerblue" stroke="black" cx="350.06" cy="-18" rx="44.49" ry="18"/>
<text text-anchor="middle" x="350.06" y="-13.8" font-family="Times,serif" font-size="14.00">Buy meat</text>
</g>
<!-- 0006 -->
<g id="node7" class="node">
<title>0006</title>
<ellipse fill="dodgerblue" stroke="black" cx="499.08" cy="-45" rx="47.14" ry="25.41"/>
<text text-anchor="middle" x="499.08" y="-47.8" font-family="Times,serif" font-size="14.00">Wait 5</text>
<text text-anchor="middle" x="499.08" y="-33.8" font-family="Times,serif" font-size="14.00">add meat</text>
</g>
<!-- 0001&#45;&gt;0006 -->
<g id="edge6" class="edge">
<title>0001-&gt;0006</title>
<path fill="none" stroke="black" d="M390.85,-25.31C407.2,-28.31 426.39,-31.83 443.99,-35.07"/>
<polygon fill="black" stroke="black" points="443.66,-38.56 454.13,-36.93 444.92,-31.68 443.66,-38.56"/>
</g>
<!-- 0004 -->
<g id="node5" class="node">
<title>0004</title>
<ellipse fill="orange" stroke="black" cx="350.06" cy="-72" rx="65.9" ry="18"/>
<text text-anchor="middle" x="350.06" y="-67.8" font-family="Times,serif" font-size="14.00">Add Vegetables</text>
</g>
<!-- 0002&#45;&gt;0004 -->
<g id="edge2" class="edge">
<title>0002-&gt;0004</title>
<path fill="none" stroke="black" d="M243.78,-95.43C257.87,-92.29 273.51,-88.81 288.32,-85.52"/>
<polygon fill="black" stroke="black" points="289.41,-88.86 298.41,-83.27 287.89,-82.03 289.41,-88.86"/>
</g>
<!-- 0003 -->
<g id="node4" class="node">
<title>0003</title>
<ellipse fill="springgreen" stroke="black" cx="53.09" cy="-37" rx="48.8" ry="18"/>
<text text-anchor="middle" x="53.09" y="-32.8" font-family="Times,serif" font-size="14.00">Heat water</text>
</g>
<!-- 0005 -->
<g id="node6" class="node">
<title>0005</title>
<ellipse fill="springgreen" stroke="black" cx="195.28" cy="-37" rx="43.56" ry="25.41"/>
<text text-anchor="middle" x="195.28" y="-39.8" font-family="Times,serif" font-size="14.00">Wait for</text>
<text text-anchor="middle" x="195.28" y="-25.8" font-family="Times,serif" font-size="14.00">boiling</text>
</g>
<!-- 0003&#45;&gt;0005 -->
<g id="edge3" class="edge">
<title>0003-&gt;0005</title>
<path fill="none" stroke="black" d="M101.94,-37C114.59,-37 128.3,-37 141.2,-37"/>
<polygon fill="black" stroke="black" points="141.34,-40.5 151.34,-37 141.34,-33.5 141.34,-40.5"/>
</g>
<!-- 0004&#45;&gt;0006 -->
<g id="edge5" class="edge">
<title>0004-&gt;0006</title>
<path fill="none" stroke="black" d="M404.97,-62.1C417.65,-59.77 431.16,-57.29 443.85,-54.96"/>
<polygon fill="black" stroke="black" points="444.61,-58.38 453.82,-53.13 443.35,-51.49 444.61,-58.38"/>
</g>
<!-- 0005&#45;&gt;0004 -->
<g id="edge4" class="edge">
<title>0005-&gt;0004</title>
<path fill="none" stroke="black" d="M236.42,-46.2C252.46,-49.87 271.27,-54.18 288.88,-58.21"/>
<polygon fill="black" stroke="black" points="288.55,-61.73 299.08,-60.55 290.11,-54.9 288.55,-61.73"/>
</g>
</g>
</svg>