<svg height="143pt" viewBox="0.00 0.00 563.50 142.87" width="564pt" xmlns="http://www.w3.org/2000/svg" xmlns:xlink="http://www.w3.org/1999/xlink">
<g class="graph" id="graph0" transform="scale(1 1) rotate(0) translate(4 138.8701)">
<title>G</title>
<polygon fill="#ffffff" points="-4,4 -4,-138.8701 559.5005,-138.8701 559.5005,4 -4,4" stroke="transparent"/>
<!-- 0000 -->
<g class="node" id="node1">
<title>0000</title>
<ellipse cx="53.7401" cy="-108" fill="#ffd700" rx="53.9813" ry="26.7407" stroke="#000000"/>
<text fill="#000000" font-family="Times,serif" font-size="14.00" text-anchor="middle" x="53.7401" y="-111.8">Buy</text>
<text fill="#000000" font-family="Times,serif" font-size="14.00" text-anchor="middle" x="53.7401" y="-96.8">vegetables</text>
</g>
<!-- 0002 -->
<g class="node" id="node3">
<title>0002</title>
<ellipse cx="197.2203" cy="-108" fill="#ffd700" rx="53.9813" ry="26.7407" stroke="#000000"/>
<text fill="#000000" font-family="Times,serif" font-size="14.00" text-anchor="middle" x="197.2203" y="-111.8">Chop</text>
<text fill="#000000" font-family="Times,serif" font-size="14.00" text-anchor="middle" x="197.2203" y="-96.8">vegetables</text>
</g>
<!-- 0000&#45;&gt;0002 -->
<g class="edge" id="edge1">
<title>0000-&gt;0002</title>
<path d="M107.5751,-108C115.8288,-108 124.4203,-108 132.8734,-108" fill="none" stroke="#000000"/>
<polygon fill="#000000" points="133.0837,-111.5001 143.0837,-108 133.0836,-104.5001 133.0837,-111.5001" stroke="#000000"/>
</g>
<!-- 0001 -->
<g class="node" id="node2">
<title>0001</title>
<ellipse cx="355.8543" cy="-18" fill="#1e90ff" rx="46.2923" ry="18" stroke="#000000"/>
<text fill="#000000" font-family="Times,serif" font-size="14.00" text-anchor="middle" x="355.8543" y="-14.3">Buy meat</text>
</g>
<!-- 0006 -->
<g class="node" id="node7">
<title>0006</title>
<ellipse cx="508.1244" cy="-45" fill="#1e90ff" rx="47.2526" ry="26.7407" stroke="#000000"/>
<text fill="#000000" font-family="Times,serif" font-size="14.00" text-anchor="middle" x="508.1244" y="-48.8">Wait 5</text>
<text fill="#000000" font-family="Times,serif" font-size="14.00" text-anchor="middle" x="508.1244" y="-33.8">add meat</text>
</g>
<!-- 0001&#45;&gt;0006 -->
<g class="edge" id="edge6">
<title>0001-&gt;0006</title>
<path d="M397.8659,-25.4493C414.8748,-28.4653 434.7486,-31.9893 452.9027,-35.2083" fill="none" stroke="#000000"/>
<polygon fill="#000000" points="452.3247,-38.6603 462.7823,-36.9601 453.5469,-31.7678 452.3247,-38.6603" stroke="#000000"/>
</g>
<!-- 0004 -->
<g class="node" id="node5">
<title>0004</title>
<ellipse cx="355.8543" cy="-72" fill="#ffa500" rx="68.7879" ry="18" stroke="#000000"/>
<text fill="#000000" font-family="Times,serif" font-size="14.00" text-anchor="middle" x="355.8543" y="-68.3">Add Vegetables</text>
</g>
<!-- 0002&#45;&gt;0004 -->
<g class="edge" id="edge2">
<title>0002-&gt;0004</title>
<path d="M246.5436,-96.8067C261.4654,-93.4204 278.0481,-89.6572 293.6952,-86.1062" fill="none" stroke="#000000"/>
<polygon fill="#000000" points="294.8381,-89.4359 303.8155,-83.8096 293.2889,-82.6095 294.8381,-89.4359" stroke="#000000"/>
</g>
<!-- 0003 -->
<g class="node" id="node4">
<title>0003</title>
<ellipse cx="53.7401" cy="-36" fill="#00ff7f" rx="50.8918" ry="18" stroke="#000000"/>
<text fill="#000000" font-family="Times,serif" font-size="14.00" text-anchor="middle" x="53.7401" y="-32.3">Heat water</text>
</g>
<!-- 0005 -->
<g class="node" id="node6">
<title>0005</title>
<ellipse cx="197.2203" cy="-36" fill="#00ff7f" rx="45.011" ry="26.7407" stroke="#000000"/>
<text fill="#000000" font-family="Times,serif" font-size="14.00" text-anchor="middle" x="197.2203" y="-39.8">Wait for</text>
<text fill="#000000" font-family="Times,serif" font-size="14.00" text-anchor="middle" x="197.2203" y="-24.8">boiling</text>
</g>
<!-- 0003&#45;&gt;0005 -->
<g class="edge" id="edge3">
<title>0003-&gt;0005</title>
<path d="M104.7299,-36C116.6861,-36 129.4838,-36 141.6299,-36" fill="none" stroke="#000000"/>
<polygon fill="#000000" points="141.6468,-39.5001 151.6467,-36 141.6467,-32.5001 141.6468,-39.5001" stroke="#000000"/>
</g>
<!-- 0004&#45;&gt;0006 -->
<g class="edge" id="edge5">
<title>0004-&gt;0006</title>
<path d="M412.9873,-61.8694C425.9054,-59.5788 439.6033,-57.1499 452.4599,-54.8702" fill="none" stroke="#000000"/>
<polygon fill="#000000" points="453.3239,-58.2717 462.5592,-53.0795 452.1017,-51.3792 453.3239,-58.2717" stroke="#000000"/>
</g>
<!-- 0005&#45;&gt;0004 -->
<g class="edge" id="edge4">
<title>0005-&gt;0004</title>
<path d="M239.7313,-45.6473C256.3026,-49.408 275.628,-53.7936 293.704,-57.8958" fill="none" stroke="#000000"/>
<polygon fill="#000000" points="293.0656,-61.3398 303.5923,-60.1398 294.6149,-54.5134 293.0656,-61.3398" stroke="#000000"/>
</g>
</g>
</svg>