<?xml version="1.0" encoding="UTF-8" standalone="no"?>
<svg
   xmlns:dc="http://purl.org/dc/elements/1.1/"
   xmlns:cc="http://creativecommons.org/ns#"
   xmlns:rdf="http://www.w3.org/1999/02/22-rdf-syntax-ns#"
   xmlns:svg="http://www.w3.org/2000/svg"
   xmlns="http://www.w3.org/2000/svg"
   xmlns:sodipodi="http://sodipodi.sourceforge.net/DTD/sodipodi-0.dtd"
   xmlns:inkscape="http://www.inkscape.org/namespaces/inkscape"
   version="1.1"
   id="svg935"
   xml:space="preserve"
   width="399.52084"
   height="357.00586"
   viewBox="0 0 399.52084 357.00586"
   sodipodi:docname="26conn3d.pdf"
   inkscape:version="1.0.1 (c497b03c, 2020-09-10)"><metadata
     id="metadata941"><rdf:RDF><cc:Work
         rdf:about=""><dc:format>image/svg+xml</dc:format><dc:type
           rdf:resource="http://purl.org/dc/dcmitype/StillImage" /><dc:title></dc:title></cc:Work></rdf:RDF></metadata><defs
     id="defs939" /><sodipodi:namedview
     pagecolor="#ffffff"
     bordercolor="#666666"
     borderopacity="1"
     objecttolerance="10"
     gridtolerance="10"
     guidetolerance="10"
     inkscape:pageopacity="0"
     inkscape:pageshadow="2"
     inkscape:window-width="820"
     inkscape:window-height="480"
     id="namedview937"
     showgrid="false"
     inkscape:zoom="2.6606872"
     inkscape:cx="199.76042"
     inkscape:cy="178.50293"
     inkscape:window-x="40"
     inkscape:window-y="25"
     inkscape:window-maximized="0"
     inkscape:current-layer="g943" /><g
     id="g943"
     inkscape:groupmode="layer"
     inkscape:label="26conn3d"
     transform="matrix(1.3333333,0,0,-1.3333333,-282.13021,757.24154)"><g
       id="g945"
       transform="scale(1,-1)"><path
         d="m 283.46387,-301.17676 c 0,0 -70.86621,0 -70.86621,0 0,0 0,-70.86719 0,-70.86719 0,0 70.86621,0 70.86621,0 0,0 0,70.86719 0,70.86719 z"
         style="fill:#ffffff;fill-opacity:1;fill-rule:nonzero;stroke:none"
         id="path947" /><path
         d="m 283.46387,-301.17676 c 0,0 -70.86621,0 -70.86621,0 0,0 0,-70.86719 0,-70.86719 0,0 70.86621,0 70.86621,0 0,0 0,70.86719 0,70.86719 z"
         style="fill:none;stroke:#000000;stroke-width:0.5;stroke-linecap:butt;stroke-linejoin:miter;stroke-miterlimit:4;stroke-dasharray:none;stroke-opacity:1"
         id="path949" /><path
         d="m 311.81055,-389.76074 c 0,0 -70.86621,0 -70.86621,0 0,0 -28.34668,17.71679 -28.34668,17.71679 0,0 70.86621,0 70.86621,0 0,0 28.34668,-17.71679 28.34668,-17.71679 z"
         style="fill:#ffffff;fill-opacity:1;fill-rule:nonzero;stroke:none"
         id="path951" /><path
         d="m 311.81055,-389.76074 c 0,0 -70.86621,0 -70.86621,0 0,0 -28.34668,17.71679 -28.34668,17.71679 0,0 70.86621,0 70.86621,0 0,0 28.34668,-17.71679 28.34668,-17.71679 z"
         style="fill:none;stroke:#000000;stroke-width:0.5;stroke-linecap:butt;stroke-linejoin:miter;stroke-miterlimit:4;stroke-dasharray:none;stroke-opacity:1"
         id="path953" /><path
         d="m 311.81055,-389.76074 c 0,0 -28.34668,17.71679 -28.34668,17.71679 0,0 0,70.86719 0,70.86719 0,0 28.34668,-17.71679 28.34668,-17.71679 0,0 0,-70.86719 0,-70.86719 z"
         style="fill:#c0c0c0;fill-opacity:1;fill-rule:nonzero;stroke:none"
         id="path955" /><path
         d="m 311.81055,-389.76074 c 0,0 -28.34668,17.71679 -28.34668,17.71679 0,0 0,70.86719 0,70.86719 0,0 28.34668,-17.71679 28.34668,-17.71679 0,0 0,-70.86719 0,-70.86719 z"
         style="fill:none;stroke:#000000;stroke-width:0.5;stroke-linecap:butt;stroke-linejoin:miter;stroke-miterlimit:4;stroke-dasharray:none;stroke-opacity:1"
         id="path957" /><path
         d="m 354.33008,-301.17871 c 0,0 -70.86621,0 -70.86621,0 0,0 0,-70.86719 0,-70.86719 0,0 70.86621,0 70.86621,0 0,0 0,70.86719 0,70.86719 z"
         style="fill:#ffffff;fill-opacity:1;fill-rule:nonzero;stroke:none"
         id="path959" /><path
         d="m 354.33008,-301.17871 c 0,0 -70.86621,0 -70.86621,0 0,0 0,-70.86719 0,-70.86719 0,0 70.86621,0 70.86621,0 0,0 0,70.86719 0,70.86719 z"
         style="fill:none;stroke:#000000;stroke-width:0.5;stroke-linecap:butt;stroke-linejoin:miter;stroke-miterlimit:4;stroke-dasharray:none;stroke-opacity:1"
         id="path961" /><path
         d="m 382.67676,-389.7627 c 0,0 -70.86621,0 -70.86621,0 0,0 -28.34668,17.7168 -28.34668,17.7168 0,0 70.86621,0 70.86621,0 0,0 28.34668,-17.7168 28.34668,-17.7168 z"
         style="fill:#ffffff;fill-opacity:1;fill-rule:nonzero;stroke:none"
         id="path963" /><path
         d="m 382.67676,-389.7627 c 0,0 -70.86621,0 -70.86621,0 0,0 -28.34668,17.7168 -28.34668,17.7168 0,0 70.86621,0 70.86621,0 0,0 28.34668,-17.7168 28.34668,-17.7168 z"
         style="fill:none;stroke:#000000;stroke-width:0.5;stroke-linecap:butt;stroke-linejoin:miter;stroke-miterlimit:4;stroke-dasharray:none;stroke-opacity:1"
         id="path965" /><path
         d="m 382.67676,-389.7627 c 0,0 -28.34668,17.7168 -28.34668,17.7168 0,0 0,70.86719 0,70.86719 0,0 28.34668,-17.7168 28.34668,-17.7168 0,0 0,-70.86719 0,-70.86719 z"
         style="fill:#c0c0c0;fill-opacity:1;fill-rule:nonzero;stroke:none"
         id="path967" /><path
         d="m 382.67676,-389.7627 c 0,0 -28.34668,17.7168 -28.34668,17.7168 0,0 0,70.86719 0,70.86719 0,0 28.34668,-17.7168 28.34668,-17.7168 0,0 0,-70.86719 0,-70.86719 z"
         style="fill:none;stroke:#000000;stroke-width:0.5;stroke-linecap:butt;stroke-linejoin:miter;stroke-miterlimit:4;stroke-dasharray:none;stroke-opacity:1"
         id="path969" /><path
         d="m 283.46387,-372.04395 c 0,0 -70.86621,0 -70.86621,0 0,0 0,-70.86669 0,-70.86669 0,0 70.86621,0 70.86621,0 0,0 0,70.86669 0,70.86669 z"
         style="fill:#ffffff;fill-opacity:1;fill-rule:nonzero;stroke:none"
         id="path971" /><path
         d="m 283.46387,-372.04395 c 0,0 -70.86621,0 -70.86621,0 0,0 0,-70.86669 0,-70.86669 0,0 70.86621,0 70.86621,0 0,0 0,70.86669 0,70.86669 z"
         style="fill:none;stroke:#000000;stroke-width:0.5;stroke-linecap:butt;stroke-linejoin:miter;stroke-miterlimit:4;stroke-dasharray:none;stroke-opacity:1"
         id="path973" /><path
         d="m 311.81055,-460.62744 c 0,0 -70.86621,0 -70.86621,0 0,0 -28.34668,17.7168 -28.34668,17.7168 0,0 70.86621,0 70.86621,0 0,0 28.34668,-17.7168 28.34668,-17.7168 z"
         style="fill:#ffffff;fill-opacity:1;fill-rule:nonzero;stroke:none"
         id="path975" /><path
         d="m 311.81055,-460.62744 c 0,0 -70.86621,0 -70.86621,0 0,0 -28.34668,17.7168 -28.34668,17.7168 0,0 70.86621,0 70.86621,0 0,0 28.34668,-17.7168 28.34668,-17.7168 z"
         style="fill:none;stroke:#000000;stroke-width:0.5;stroke-linecap:butt;stroke-linejoin:miter;stroke-miterlimit:4;stroke-dasharray:none;stroke-opacity:1"
         id="path977" /><path
         d="m 311.81055,-460.62744 c 0,0 -28.34668,17.7168 -28.34668,17.7168 0,0 0,70.86669 0,70.86669 0,0 28.34668,-17.71679 28.34668,-17.71679 0,0 0,-70.8667 0,-70.8667 z"
         style="fill:#c0c0c0;fill-opacity:1;fill-rule:nonzero;stroke:none"
         id="path979" /><path
         d="m 311.81055,-460.62744 c 0,0 -28.34668,17.7168 -28.34668,17.7168 0,0 0,70.86669 0,70.86669 0,0 28.34668,-17.71679 28.34668,-17.71679 0,0 0,-70.8667 0,-70.8667 z"
         style="fill:none;stroke:#000000;stroke-width:0.5;stroke-linecap:butt;stroke-linejoin:miter;stroke-miterlimit:4;stroke-dasharray:none;stroke-opacity:1"
         id="path981" /><path
         d="m 354.33008,-372.04395 c 0,0 -70.86621,0 -70.86621,0 0,0 0,-70.86767 0,-70.86767 0,0 70.86621,0 70.86621,0 0,0 0,70.86767 0,70.86767 z"
         style="fill:#ffffff;fill-opacity:1;fill-rule:nonzero;stroke:none"
         id="path983" /><path
         d="m 354.33008,-372.04395 c 0,0 -70.86621,0 -70.86621,0 0,0 0,-70.86767 0,-70.86767 0,0 70.86621,0 70.86621,0 0,0 0,70.86767 0,70.86767 z"
         style="fill:none;stroke:#000000;stroke-width:0.5;stroke-linecap:butt;stroke-linejoin:miter;stroke-miterlimit:4;stroke-dasharray:none;stroke-opacity:1"
         id="path985" /><path
         d="m 382.67676,-460.62842 c 0,0 -70.86621,0 -70.86621,0 0,0 -28.34668,17.7168 -28.34668,17.7168 0,0 70.86621,0 70.86621,0 0,0 28.34668,-17.7168 28.34668,-17.7168 z"
         style="fill:#ffffff;fill-opacity:1;fill-rule:nonzero;stroke:none"
         id="path987" /><path
         d="m 382.67676,-460.62842 c 0,0 -70.86621,0 -70.86621,0 0,0 -28.34668,17.7168 -28.34668,17.7168 0,0 70.86621,0 70.86621,0 0,0 28.34668,-17.7168 28.34668,-17.7168 z"
         style="fill:none;stroke:#000000;stroke-width:0.5;stroke-linecap:butt;stroke-linejoin:miter;stroke-miterlimit:4;stroke-dasharray:none;stroke-opacity:1"
         id="path989" /><path
         d="m 382.67676,-460.62842 c 0,0 -28.34668,17.7168 -28.34668,17.7168 0,0 0,70.86767 0,70.86767 0,0 28.34668,-17.71679 28.34668,-17.71679 0,0 0,-70.86768 0,-70.86768 z"
         style="fill:#c0c0c0;fill-opacity:1;fill-rule:nonzero;stroke:none"
         id="path991" /><path
         d="m 382.67676,-460.62842 c 0,0 -28.34668,17.7168 -28.34668,17.7168 0,0 0,70.86767 0,70.86767 0,0 28.34668,-17.71679 28.34668,-17.71679 0,0 0,-70.86768 0,-70.86768 z"
         style="fill:none;stroke:#000000;stroke-width:0.5;stroke-linecap:butt;stroke-linejoin:miter;stroke-miterlimit:4;stroke-dasharray:none;stroke-opacity:1"
         id="path993" /><path
         d="m 368.50488,-566.93018 c 0,0 -70.86621,0 -70.86621,0 0,0 -28.34668,17.7168 -28.34668,17.7168 0,0 70.86621,0 70.86621,0 0,0 28.34668,-17.7168 28.34668,-17.7168 z"
         style="fill:#ffffff;fill-opacity:1;fill-rule:nonzero;stroke:none"
         id="path995" /><path
         d="m 368.50488,-566.93018 c 0,0 -70.86621,0 -70.86621,0 0,0 -28.34668,17.7168 -28.34668,17.7168 0,0 70.86621,0 70.86621,0 0,0 28.34668,-17.7168 28.34668,-17.7168 z"
         style="fill:none;stroke:#000000;stroke-width:0.5;stroke-linecap:butt;stroke-linejoin:miter;stroke-miterlimit:4;stroke-dasharray:none;stroke-opacity:1"
         id="path997" /><path
         d="m 439.37109,-566.93115 c 0,0 -70.86621,0 -70.86621,0 0,0 -28.34668,17.71679 -28.34668,17.71679 0,0 70.86621,0 70.86621,0 0,0 28.34668,-17.71679 28.34668,-17.71679 z"
         style="fill:#ffffff;fill-opacity:1;fill-rule:nonzero;stroke:none"
         id="path999" /><path
         d="m 439.37109,-566.93115 c 0,0 -70.86621,0 -70.86621,0 0,0 -28.34668,17.71679 -28.34668,17.71679 0,0 70.86621,0 70.86621,0 0,0 28.34668,-17.71679 28.34668,-17.71679 z"
         style="fill:none;stroke:#000000;stroke-width:0.5;stroke-linecap:butt;stroke-linejoin:miter;stroke-miterlimit:4;stroke-dasharray:none;stroke-opacity:1"
         id="path1001" /><path
         d="m 510.2373,-425.19727 c 0,0 -28.34667,17.7168 -28.34667,17.7168 0,0 0,70.86719 0,70.86719 0,0 28.34667,-17.7168 28.34667,-17.7168 0,0 0,-70.86719 0,-70.86719 z"
         style="fill:#c0c0c0;fill-opacity:1;fill-rule:nonzero;stroke:none"
         id="path1003" /><path
         d="m 510.2373,-425.19727 c 0,0 -28.34667,17.7168 -28.34667,17.7168 0,0 0,70.86719 0,70.86719 0,0 28.34667,-17.7168 28.34667,-17.7168 0,0 0,-70.86719 0,-70.86719 z"
         style="fill:none;stroke:#000000;stroke-width:0.5;stroke-linecap:butt;stroke-linejoin:miter;stroke-miterlimit:4;stroke-dasharray:none;stroke-opacity:1"
         id="path1005" /><path
         d="m 510.23828,-496.06543 c 0,0 -28.34765,17.7168 -28.34765,17.7168 0,0 0,70.86718 0,70.86718 0,0 28.34765,-17.71679 28.34765,-17.71679 0,0 0,-70.86719 0,-70.86719 z"
         style="fill:#c0c0c0;fill-opacity:1;fill-rule:nonzero;stroke:none"
         id="path1007" /><path
         d="m 510.23828,-496.06543 c 0,0 -28.34765,17.7168 -28.34765,17.7168 0,0 0,70.86718 0,70.86718 0,0 28.34765,-17.71679 28.34765,-17.71679 0,0 0,-70.86719 0,-70.86719 z"
         style="fill:none;stroke:#000000;stroke-width:0.5;stroke-linecap:butt;stroke-linejoin:miter;stroke-miterlimit:4;stroke-dasharray:none;stroke-opacity:1"
         id="path1009" /><path
         d="m 510.2373,-566.93115 c 0,0 -70.86621,0 -70.86621,0 0,0 -28.34668,17.71679 -28.34668,17.71679 0,0 70.86622,0 70.86622,0 0,0 28.34667,-17.71679 28.34667,-17.71679 z"
         style="fill:#ffffff;fill-opacity:1;fill-rule:nonzero;stroke:none"
         id="path1011" /><path
         d="m 510.2373,-566.93115 c 0,0 -70.86621,0 -70.86621,0 0,0 -28.34668,17.71679 -28.34668,17.71679 0,0 70.86622,0 70.86622,0 0,0 28.34667,-17.71679 28.34667,-17.71679 z"
         style="fill:none;stroke:#000000;stroke-width:0.5;stroke-linecap:butt;stroke-linejoin:miter;stroke-miterlimit:4;stroke-dasharray:none;stroke-opacity:1"
         id="path1013" /><path
         d="m 510.2373,-566.93115 c 0,0 -28.34667,17.71679 -28.34667,17.71679 0,0 0,70.86719 0,70.86719 0,0 28.34667,-17.71679 28.34667,-17.71679 0,0 0,-70.86719 0,-70.86719 z"
         style="fill:#c0c0c0;fill-opacity:1;fill-rule:nonzero;stroke:none"
         id="path1015" /><path
         d="m 510.2373,-566.93115 c 0,0 -28.34667,17.71679 -28.34667,17.71679 0,0 0,70.86719 0,70.86719 0,0 28.34667,-17.71679 28.34667,-17.71679 0,0 0,-70.86719 0,-70.86719 z"
         style="fill:none;stroke:#000000;stroke-width:0.5;stroke-linecap:butt;stroke-linejoin:miter;stroke-miterlimit:4;stroke-dasharray:none;stroke-opacity:1"
         id="path1017" /><path
         d="m 340.1582,-549.21338 c 0,0 -70.86621,0 -70.86621,0 0,0 -28.34668,17.7168 -28.34668,17.7168 0,0 70.86621,0 70.86621,0 0,0 28.34668,-17.7168 28.34668,-17.7168 z"
         style="fill:#ffffff;fill-opacity:1;fill-rule:nonzero;stroke:none"
         id="path1019" /><path
         d="m 340.1582,-549.21338 c 0,0 -70.86621,0 -70.86621,0 0,0 -28.34668,17.7168 -28.34668,17.7168 0,0 70.86621,0 70.86621,0 0,0 28.34668,-17.7168 28.34668,-17.7168 z"
         style="fill:none;stroke:#000000;stroke-width:0.5;stroke-linecap:butt;stroke-linejoin:miter;stroke-miterlimit:4;stroke-dasharray:none;stroke-opacity:1"
         id="path1021" /><path
         d="m 411.02539,-549.21436 c 0,0 -70.86621,0 -70.86621,0 0,0 -28.34668,17.7168 -28.34668,17.7168 0,0 70.86621,0 70.86621,0 0,0 28.34668,-17.7168 28.34668,-17.7168 z"
         style="fill:#ffffff;fill-opacity:1;fill-rule:nonzero;stroke:none"
         id="path1023" /><path
         d="m 411.02539,-549.21436 c 0,0 -70.86621,0 -70.86621,0 0,0 -28.34668,17.7168 -28.34668,17.7168 0,0 70.86621,0 70.86621,0 0,0 28.34668,-17.7168 28.34668,-17.7168 z"
         style="fill:none;stroke:#000000;stroke-width:0.5;stroke-linecap:butt;stroke-linejoin:miter;stroke-miterlimit:4;stroke-dasharray:none;stroke-opacity:1"
         id="path1025" /><path
         d="m 481.8916,-407.48047 c 0,0 -28.34668,17.7168 -28.34668,17.7168 0,0 0,70.86719 0,70.86719 0,0 28.34668,-17.7168 28.34668,-17.7168 0,0 0,-70.86719 0,-70.86719 z"
         style="fill:#c0c0c0;fill-opacity:1;fill-rule:nonzero;stroke:none"
         id="path1027" /><path
         d="m 481.8916,-407.48047 c 0,0 -28.34668,17.7168 -28.34668,17.7168 0,0 0,70.86719 0,70.86719 0,0 28.34668,-17.7168 28.34668,-17.7168 0,0 0,-70.86719 0,-70.86719 z"
         style="fill:none;stroke:#000000;stroke-width:0.5;stroke-linecap:butt;stroke-linejoin:miter;stroke-miterlimit:4;stroke-dasharray:none;stroke-opacity:1"
         id="path1029" /><path
         d="m 481.89258,-478.34863 c 0,0 -28.34766,17.71679 -28.34766,17.71679 0,0 0,70.86719 0,70.86719 0,0 28.34766,-17.7168 28.34766,-17.7168 0,0 0,-70.86718 0,-70.86718 z"
         style="fill:#c0c0c0;fill-opacity:1;fill-rule:nonzero;stroke:none"
         id="path1031" /><path
         d="m 481.89258,-478.34863 c 0,0 -28.34766,17.71679 -28.34766,17.71679 0,0 0,70.86719 0,70.86719 0,0 28.34766,-17.7168 28.34766,-17.7168 0,0 0,-70.86718 0,-70.86718 z"
         style="fill:none;stroke:#000000;stroke-width:0.5;stroke-linecap:butt;stroke-linejoin:miter;stroke-miterlimit:4;stroke-dasharray:none;stroke-opacity:1"
         id="path1033" /><path
         d="m 481.8916,-549.21436 c 0,0 -70.86621,0 -70.86621,0 0,0 -28.34668,17.7168 -28.34668,17.7168 0,0 70.86621,0 70.86621,0 0,0 28.34668,-17.7168 28.34668,-17.7168 z"
         style="fill:#ffffff;fill-opacity:1;fill-rule:nonzero;stroke:none"
         id="path1035" /><path
         d="m 481.8916,-549.21436 c 0,0 -70.86621,0 -70.86621,0 0,0 -28.34668,17.7168 -28.34668,17.7168 0,0 70.86621,0 70.86621,0 0,0 28.34668,-17.7168 28.34668,-17.7168 z"
         style="fill:none;stroke:#000000;stroke-width:0.5;stroke-linecap:butt;stroke-linejoin:miter;stroke-miterlimit:4;stroke-dasharray:none;stroke-opacity:1"
         id="path1037" /><path
         d="m 481.8916,-549.21436 c 0,0 -28.34668,17.7168 -28.34668,17.7168 0,0 0,70.86719 0,70.86719 0,0 28.34668,-17.7168 28.34668,-17.7168 0,0 0,-70.86719 0,-70.86719 z"
         style="fill:#c0c0c0;fill-opacity:1;fill-rule:nonzero;stroke:none"
         id="path1039" /><path
         d="m 481.8916,-549.21436 c 0,0 -28.34668,17.7168 -28.34668,17.7168 0,0 0,70.86719 0,70.86719 0,0 28.34668,-17.7168 28.34668,-17.7168 0,0 0,-70.86719 0,-70.86719 z"
         style="fill:none;stroke:#000000;stroke-width:0.5;stroke-linecap:butt;stroke-linejoin:miter;stroke-miterlimit:4;stroke-dasharray:none;stroke-opacity:1"
         id="path1041" /><path
         d="m 283.46387,-442.9126 c 0,0 -70.86621,0 -70.86621,0 0,0 0,-70.86621 0,-70.86621 0,0 70.86621,0 70.86621,0 0,0 0,70.86621 0,70.86621 z"
         style="fill:#ffffff;fill-opacity:1;fill-rule:nonzero;stroke:none"
         id="path1043" /><path
         d="m 283.46387,-442.9126 c 0,0 -70.86621,0 -70.86621,0 0,0 0,-70.86621 0,-70.86621 0,0 70.86621,0 70.86621,0 0,0 0,70.86621 0,70.86621 z"
         style="fill:none;stroke:#000000;stroke-width:0.5;stroke-linecap:butt;stroke-linejoin:miter;stroke-miterlimit:4;stroke-dasharray:none;stroke-opacity:1"
         id="path1045" /><path
         d="m 311.81055,-531.49609 c 0,0 -70.86621,0 -70.86621,0 0,0 -28.34668,17.71728 -28.34668,17.71728 0,0 70.86621,0 70.86621,0 0,0 28.34668,-17.71728 28.34668,-17.71728 z"
         style="fill:#ffffff;fill-opacity:1;fill-rule:nonzero;stroke:none"
         id="path1047" /><path
         d="m 311.81055,-531.49609 c 0,0 -70.86621,0 -70.86621,0 0,0 -28.34668,17.71728 -28.34668,17.71728 0,0 70.86621,0 70.86621,0 0,0 28.34668,-17.71728 28.34668,-17.71728 z"
         style="fill:none;stroke:#000000;stroke-width:0.5;stroke-linecap:butt;stroke-linejoin:miter;stroke-miterlimit:4;stroke-dasharray:none;stroke-opacity:1"
         id="path1049" /><path
         d="m 311.81055,-531.49609 c 0,0 -28.34668,17.71728 -28.34668,17.71728 0,0 0,70.86621 0,70.86621 0,0 28.34668,-17.71679 28.34668,-17.71679 0,0 0,-70.8667 0,-70.8667 z"
         style="fill:#c0c0c0;fill-opacity:1;fill-rule:nonzero;stroke:none"
         id="path1051" /><path
         d="m 311.81055,-531.49609 c 0,0 -28.34668,17.71728 -28.34668,17.71728 0,0 0,70.86621 0,70.86621 0,0 28.34668,-17.71679 28.34668,-17.71679 0,0 0,-70.8667 0,-70.8667 z"
         style="fill:none;stroke:#000000;stroke-width:0.5;stroke-linecap:butt;stroke-linejoin:miter;stroke-miterlimit:4;stroke-dasharray:none;stroke-opacity:1"
         id="path1053" /><path
         d="m 354.33008,-442.9126 c 0,0 -70.86621,0 -70.86621,0 0,0 0,-70.86816 0,-70.86816 0,0 70.86621,0 70.86621,0 0,0 0,70.86816 0,70.86816 z"
         style="fill:#ffffff;fill-opacity:1;fill-rule:nonzero;stroke:none"
         id="path1055" /><path
         d="m 354.33008,-442.9126 c 0,0 -70.86621,0 -70.86621,0 0,0 0,-70.86816 0,-70.86816 0,0 70.86621,0 70.86621,0 0,0 0,70.86816 0,70.86816 z"
         style="fill:none;stroke:#000000;stroke-width:0.5;stroke-linecap:butt;stroke-linejoin:miter;stroke-miterlimit:4;stroke-dasharray:none;stroke-opacity:1"
         id="path1057" /><path
         d="m 382.67676,-531.49707 c 0,0 -70.86621,0 -70.86621,0 0,0 -28.34668,17.71631 -28.34668,17.71631 0,0 70.86621,0 70.86621,0 0,0 28.34668,-17.71631 28.34668,-17.71631 z"
         style="fill:#ffffff;fill-opacity:1;fill-rule:nonzero;stroke:none"
         id="path1059" /><path
         d="m 382.67676,-531.49707 c 0,0 -70.86621,0 -70.86621,0 0,0 -28.34668,17.71631 -28.34668,17.71631 0,0 70.86621,0 70.86621,0 0,0 28.34668,-17.71631 28.34668,-17.71631 z"
         style="fill:none;stroke:#000000;stroke-width:0.5;stroke-linecap:butt;stroke-linejoin:miter;stroke-miterlimit:4;stroke-dasharray:none;stroke-opacity:1"
         id="path1061" /><path
         d="m 382.67676,-531.49707 c 0,0 -28.34668,17.71631 -28.34668,17.71631 0,0 0,70.86816 0,70.86816 0,0 28.34668,-17.71679 28.34668,-17.71679 0,0 0,-70.86768 0,-70.86768 z"
         style="fill:#c0c0c0;fill-opacity:1;fill-rule:nonzero;stroke:none"
         id="path1063" /><path
         d="m 382.67676,-531.49707 c 0,0 -28.34668,17.71631 -28.34668,17.71631 0,0 0,70.86816 0,70.86816 0,0 28.34668,-17.71679 28.34668,-17.71679 0,0 0,-70.86768 0,-70.86768 z"
         style="fill:none;stroke:#000000;stroke-width:0.5;stroke-linecap:butt;stroke-linejoin:miter;stroke-miterlimit:4;stroke-dasharray:none;stroke-opacity:1"
         id="path1065" /><path
         d="m 425.19629,-301.17871 c 0,0 -70.86621,0 -70.86621,0 0,0 0,-70.86719 0,-70.86719 0,0 70.86621,0 70.86621,0 0,0 0,70.86719 0,70.86719 z"
         style="fill:#ffffff;fill-opacity:1;fill-rule:nonzero;stroke:none"
         id="path1067" /><path
         d="m 425.19629,-301.17871 c 0,0 -70.86621,0 -70.86621,0 0,0 0,-70.86719 0,-70.86719 0,0 70.86621,0 70.86621,0 0,0 0,70.86719 0,70.86719 z"
         style="fill:none;stroke:#000000;stroke-width:0.5;stroke-linecap:butt;stroke-linejoin:miter;stroke-miterlimit:4;stroke-dasharray:none;stroke-opacity:1"
         id="path1069" /><path
         d="m 453.54297,-389.7627 c 0,0 -70.86621,0 -70.86621,0 0,0 -28.34668,17.7168 -28.34668,17.7168 0,0 70.86621,0 70.86621,0 0,0 28.34668,-17.7168 28.34668,-17.7168 z"
         style="fill:#ffffff;fill-opacity:1;fill-rule:nonzero;stroke:none"
         id="path1071" /><path
         d="m 453.54297,-389.7627 c 0,0 -70.86621,0 -70.86621,0 0,0 -28.34668,17.7168 -28.34668,17.7168 0,0 70.86621,0 70.86621,0 0,0 28.34668,-17.7168 28.34668,-17.7168 z"
         style="fill:none;stroke:#000000;stroke-width:0.5;stroke-linecap:butt;stroke-linejoin:miter;stroke-miterlimit:4;stroke-dasharray:none;stroke-opacity:1"
         id="path1073" /><path
         d="m 453.54297,-389.7627 c 0,0 -28.34668,17.7168 -28.34668,17.7168 0,0 0,70.86719 0,70.86719 0,0 28.34668,-17.7168 28.34668,-17.7168 0,0 0,-70.86719 0,-70.86719 z"
         style="fill:#c0c0c0;fill-opacity:1;fill-rule:nonzero;stroke:none"
         id="path1075" /><path
         d="m 453.54297,-389.7627 c 0,0 -28.34668,17.7168 -28.34668,17.7168 0,0 0,70.86719 0,70.86719 0,0 28.34668,-17.7168 28.34668,-17.7168 0,0 0,-70.86719 0,-70.86719 z"
         style="fill:none;stroke:#000000;stroke-width:0.5;stroke-linecap:butt;stroke-linejoin:miter;stroke-miterlimit:4;stroke-dasharray:none;stroke-opacity:1"
         id="path1077" /><path
         d="m 425.19629,-372.04785 c 0,0 -70.86524,0 -70.86524,0 0,0 0,-70.8667 0,-70.8667 0,0 70.86524,0 70.86524,0 0,0 0,70.8667 0,70.8667 z"
         style="fill:#ffffff;fill-opacity:1;fill-rule:nonzero;stroke:none"
         id="path1079" /><path
         d="m 425.19629,-372.04785 c 0,0 -70.86524,0 -70.86524,0 0,0 0,-70.8667 0,-70.8667 0,0 70.86524,0 70.86524,0 0,0 0,70.8667 0,70.8667 z"
         style="fill:none;stroke:#000000;stroke-width:0.5;stroke-linecap:butt;stroke-linejoin:miter;stroke-miterlimit:4;stroke-dasharray:none;stroke-opacity:1"
         id="path1081" /><path
         d="m 453.54395,-460.63135 c 0,0 -70.86719,0 -70.86719,0 0,0 -28.34571,17.7168 -28.34571,17.7168 0,0 70.86524,0 70.86524,0 0,0 28.34766,-17.7168 28.34766,-17.7168 z"
         style="fill:#ffffff;fill-opacity:1;fill-rule:nonzero;stroke:none"
         id="path1083" /><path
         d="m 453.54395,-460.63135 c 0,0 -70.86719,0 -70.86719,0 0,0 -28.34571,17.7168 -28.34571,17.7168 0,0 70.86524,0 70.86524,0 0,0 28.34766,-17.7168 28.34766,-17.7168 z"
         style="fill:none;stroke:#000000;stroke-width:0.5;stroke-linecap:butt;stroke-linejoin:miter;stroke-miterlimit:4;stroke-dasharray:none;stroke-opacity:1"
         id="path1085" /><path
         d="m 453.54395,-460.63135 c 0,0 -28.34766,17.7168 -28.34766,17.7168 0,0 0,70.8667 0,70.8667 0,0 28.34766,-17.7168 28.34766,-17.7168 0,0 0,-70.8667 0,-70.8667 z"
         style="fill:#c0c0c0;fill-opacity:1;fill-rule:nonzero;stroke:none"
         id="path1087" /><path
         d="m 453.54395,-460.63135 c 0,0 -28.34766,17.7168 -28.34766,17.7168 0,0 0,70.8667 0,70.8667 0,0 28.34766,-17.7168 28.34766,-17.7168 0,0 0,-70.8667 0,-70.8667 z"
         style="fill:none;stroke:#000000;stroke-width:0.5;stroke-linecap:butt;stroke-linejoin:miter;stroke-miterlimit:4;stroke-dasharray:none;stroke-opacity:1"
         id="path1089" /><path
         d="m 425.19629,-442.9126 c 0,0 -70.86621,0 -70.86621,0 0,0 0,-70.86816 0,-70.86816 0,0 70.86621,0 70.86621,0 0,0 0,70.86816 0,70.86816 z"
         style="fill:#ffffff;fill-opacity:1;fill-rule:nonzero;stroke:none"
         id="path1091" /><path
         d="m 425.19629,-442.9126 c 0,0 -70.86621,0 -70.86621,0 0,0 0,-70.86816 0,-70.86816 0,0 70.86621,0 70.86621,0 0,0 0,70.86816 0,70.86816 z"
         style="fill:none;stroke:#000000;stroke-width:0.5;stroke-linecap:butt;stroke-linejoin:miter;stroke-miterlimit:4;stroke-dasharray:none;stroke-opacity:1"
         id="path1093" /><path
         d="m 453.54297,-531.49707 c 0,0 -70.86621,0 -70.86621,0 0,0 -28.34668,17.71631 -28.34668,17.71631 0,0 70.86621,0 70.86621,0 0,0 28.34668,-17.71631 28.34668,-17.71631 z"
         style="fill:#ffffff;fill-opacity:1;fill-rule:nonzero;stroke:none"
         id="path1095" /><path
         d="m 453.54297,-531.49707 c 0,0 -70.86621,0 -70.86621,0 0,0 -28.34668,17.71631 -28.34668,17.71631 0,0 70.86621,0 70.86621,0 0,0 28.34668,-17.71631 28.34668,-17.71631 z"
         style="fill:none;stroke:#000000;stroke-width:0.5;stroke-linecap:butt;stroke-linejoin:miter;stroke-miterlimit:4;stroke-dasharray:none;stroke-opacity:1"
         id="path1097" /><path
         d="m 453.54297,-531.49707 c 0,0 -28.34668,17.71631 -28.34668,17.71631 0,0 0,70.86816 0,70.86816 0,0 28.34668,-17.71679 28.34668,-17.71679 0,0 0,-70.86768 0,-70.86768 z"
         style="fill:#c0c0c0;fill-opacity:1;fill-rule:nonzero;stroke:none"
         id="path1099" /><path
         d="m 453.54297,-531.49707 c 0,0 -28.34668,17.71631 -28.34668,17.71631 0,0 0,70.86816 0,70.86816 0,0 28.34668,-17.71679 28.34668,-17.71679 0,0 0,-70.86768 0,-70.86768 z"
         style="fill:none;stroke:#000000;stroke-width:0.5;stroke-linecap:butt;stroke-linejoin:miter;stroke-miterlimit:4;stroke-dasharray:none;stroke-opacity:1"
         id="path1101" /></g></g></svg>
