<?xml version="1.0" encoding="UTF-8" standalone="no"?>
<svg
   xmlns:dc="http://purl.org/dc/elements/1.1/"
   xmlns:cc="http://creativecommons.org/ns#"
   xmlns:rdf="http://www.w3.org/1999/02/22-rdf-syntax-ns#"
   xmlns:svg="http://www.w3.org/2000/svg"
   xmlns="http://www.w3.org/2000/svg"
   xmlns:sodipodi="http://sodipodi.sourceforge.net/DTD/sodipodi-0.dtd"
   xmlns:inkscape="http://www.inkscape.org/namespaces/inkscape"
   version="1.1"
   id="svg851"
   xml:space="preserve"
   width="323.92709"
   height="309.75522"
   viewBox="0 0 323.92709 309.75522"
   sodipodi:docname="6conn3d.pdf"
   inkscape:version="1.0.1 (c497b03c, 2020-09-10)"><metadata
     id="metadata857"><rdf:RDF><cc:Work
         rdf:about=""><dc:format>image/svg+xml</dc:format><dc:type
           rdf:resource="http://purl.org/dc/dcmitype/StillImage" /><dc:title></dc:title></cc:Work></rdf:RDF></metadata><defs
     id="defs855" /><sodipodi:namedview
     pagecolor="#ffffff"
     bordercolor="#666666"
     borderopacity="1"
     objecttolerance="10"
     gridtolerance="10"
     guidetolerance="10"
     inkscape:pageopacity="0"
     inkscape:pageshadow="2"
     inkscape:window-width="820"
     inkscape:window-height="480"
     id="namedview853"
     showgrid="false"
     inkscape:zoom="2.0621924"
     inkscape:cx="161.96355"
     inkscape:cy="154.87761"
     inkscape:window-x="0"
     inkscape:window-y="25"
     inkscape:window-maximized="0"
     inkscape:current-layer="g859" /><g
     id="g859"
     inkscape:groupmode="layer"
     inkscape:label="6conn3d"
     transform="matrix(1.3333333,0,0,-1.3333333,-187.64323,799.76172)"><g
       id="g861"
       transform="scale(1,-1)"><path
         d="m 283.46582,-368.50488 c 0,0 -70.8667,0 -70.8667,0 0,0 0,-70.86768 0,-70.86768 0,0 70.8667,0 70.8667,0 0,0 0,70.86768 0,70.86768 z"
         style="fill:#ffffff;fill-opacity:1;fill-rule:nonzero;stroke:none"
         id="path863" /><path
         d="m 283.46582,-368.50488 c 0,0 -70.8667,0 -70.8667,0 0,0 0,-70.86768 0,-70.86768 0,0 70.8667,0 70.8667,0 0,0 0,70.86768 0,70.86768 z"
         style="fill:none;stroke:#000000;stroke-width:0.5;stroke-linecap:butt;stroke-linejoin:miter;stroke-miterlimit:4;stroke-dasharray:none;stroke-opacity:1"
         id="path865" /><path
         d="m 311.81152,-457.08936 c 0,0 -70.86621,0 -70.86621,0 0,0 -28.34619,17.7168 -28.34619,17.7168 0,0 70.8667,0 70.8667,0 0,0 28.3457,-17.7168 28.3457,-17.7168 z"
         style="fill:#ffffff;fill-opacity:1;fill-rule:nonzero;stroke:none"
         id="path867" /><path
         d="m 311.81152,-457.08936 c 0,0 -70.86621,0 -70.86621,0 0,0 -28.34619,17.7168 -28.34619,17.7168 0,0 70.8667,0 70.8667,0 0,0 28.3457,-17.7168 28.3457,-17.7168 z"
         style="fill:none;stroke:#000000;stroke-width:0.5;stroke-linecap:butt;stroke-linejoin:miter;stroke-miterlimit:4;stroke-dasharray:none;stroke-opacity:1"
         id="path869" /><path
         d="m 311.81152,-457.08936 c 0,0 -28.3457,17.7168 -28.3457,17.7168 0,0 0,70.86768 0,70.86768 0,0 28.3457,-17.7168 28.3457,-17.7168 0,0 0,-70.86768 0,-70.86768 z"
         style="fill:#c0c0c0;fill-opacity:1;fill-rule:nonzero;stroke:none"
         id="path871" /><path
         d="m 311.81152,-457.08936 c 0,0 -28.3457,17.7168 -28.3457,17.7168 0,0 0,70.86768 0,70.86768 0,0 28.3457,-17.7168 28.3457,-17.7168 0,0 0,-70.86768 0,-70.86768 z"
         style="fill:none;stroke:#000000;stroke-width:0.5;stroke-linecap:butt;stroke-linejoin:miter;stroke-miterlimit:4;stroke-dasharray:none;stroke-opacity:1"
         id="path873" /><path
         d="m 212.59912,-439.37256 c 0,0 -70.8667,0 -70.8667,0 0,0 0,-70.8667 0,-70.8667 0,0 70.8667,0 70.8667,0 0,0 0,70.8667 0,70.8667 z"
         style="fill:#ffffff;fill-opacity:1;fill-rule:nonzero;stroke:none"
         id="path875" /><path
         d="m 212.59912,-439.37256 c 0,0 -70.8667,0 -70.8667,0 0,0 0,-70.8667 0,-70.8667 0,0 70.8667,0 70.8667,0 0,0 0,70.8667 0,70.8667 z"
         style="fill:none;stroke:#000000;stroke-width:0.5;stroke-linecap:butt;stroke-linejoin:miter;stroke-miterlimit:4;stroke-dasharray:none;stroke-opacity:1"
         id="path877" /><path
         d="m 240.94531,-527.95605 c 0,0 -70.8667,0 -70.8667,0 0,0 -28.34619,17.71679 -28.34619,17.71679 0,0 70.8667,0 70.8667,0 0,0 28.34619,-17.71679 28.34619,-17.71679 z"
         style="fill:#ffffff;fill-opacity:1;fill-rule:nonzero;stroke:none"
         id="path879" /><path
         d="m 240.94531,-527.95605 c 0,0 -70.8667,0 -70.8667,0 0,0 -28.34619,17.71679 -28.34619,17.71679 0,0 70.8667,0 70.8667,0 0,0 28.34619,-17.71679 28.34619,-17.71679 z"
         style="fill:none;stroke:#000000;stroke-width:0.5;stroke-linecap:butt;stroke-linejoin:miter;stroke-miterlimit:4;stroke-dasharray:none;stroke-opacity:1"
         id="path881" /><path
         d="m 240.94531,-527.95605 c 0,0 -28.34619,17.71679 -28.34619,17.71679 0,0 0,70.8667 0,70.8667 0,0 28.34619,-17.7168 28.34619,-17.7168 0,0 0,-70.86669 0,-70.86669 z"
         style="fill:#c0c0c0;fill-opacity:1;fill-rule:nonzero;stroke:none"
         id="path883" /><path
         d="m 240.94531,-527.95605 c 0,0 -28.34619,17.71679 -28.34619,17.71679 0,0 0,70.8667 0,70.8667 0,0 28.34619,-17.7168 28.34619,-17.7168 0,0 0,-70.86669 0,-70.86669 z"
         style="fill:none;stroke:#000000;stroke-width:0.5;stroke-linecap:butt;stroke-linejoin:miter;stroke-miterlimit:4;stroke-dasharray:none;stroke-opacity:1"
         id="path885" /><path
         d="m 311.8125,-457.08789 c 0,0 -70.86719,0 -70.86719,0 0,0 0,-70.86719 0,-70.86719 0,0 70.86719,0 70.86719,0 0,0 0,70.86719 0,70.86719 z"
         style="fill:#ffffff;fill-opacity:1;fill-rule:nonzero;stroke:none"
         id="path887" /><path
         d="m 311.8125,-457.08789 c 0,0 -70.86719,0 -70.86719,0 0,0 0,-70.86719 0,-70.86719 0,0 70.86719,0 70.86719,0 0,0 0,70.86719 0,70.86719 z"
         style="fill:none;stroke:#000000;stroke-width:0.5;stroke-linecap:butt;stroke-linejoin:miter;stroke-miterlimit:4;stroke-dasharray:none;stroke-opacity:1"
         id="path889" /><path
         d="m 340.1582,-545.67188 c 0,0 -70.86718,0 -70.86718,0 0,0 -28.34571,17.7168 -28.34571,17.7168 0,0 70.86719,0 70.86719,0 0,0 28.3457,-17.7168 28.3457,-17.7168 z"
         style="fill:#ffffff;fill-opacity:1;fill-rule:nonzero;stroke:none"
         id="path891" /><path
         d="m 340.1582,-545.67188 c 0,0 -70.86718,0 -70.86718,0 0,0 -28.34571,17.7168 -28.34571,17.7168 0,0 70.86719,0 70.86719,0 0,0 28.3457,-17.7168 28.3457,-17.7168 z"
         style="fill:none;stroke:#000000;stroke-width:0.5;stroke-linecap:butt;stroke-linejoin:miter;stroke-miterlimit:4;stroke-dasharray:none;stroke-opacity:1"
         id="path893" /><path
         d="m 340.1582,-545.67188 c 0,0 -28.3457,17.7168 -28.3457,17.7168 0,0 0,70.86719 0,70.86719 0,0 28.3457,-17.7168 28.3457,-17.7168 0,0 0,-70.86719 0,-70.86719 z"
         style="fill:#c0c0c0;fill-opacity:1;fill-rule:nonzero;stroke:none"
         id="path895" /><path
         d="m 340.1582,-545.67188 c 0,0 -28.3457,17.7168 -28.3457,17.7168 0,0 0,70.86719 0,70.86719 0,0 28.3457,-17.7168 28.3457,-17.7168 0,0 0,-70.86719 0,-70.86719 z"
         style="fill:none;stroke:#000000;stroke-width:0.5;stroke-linecap:butt;stroke-linejoin:miter;stroke-miterlimit:4;stroke-dasharray:none;stroke-opacity:1"
         id="path897" /><path
         d="m 255.11914,-421.65625 c 0,0 -70.8667,0 -70.8667,0 0,0 0,-70.86719 0,-70.86719 0,0 70.8667,0 70.8667,0 0,0 0,70.86719 0,70.86719 z"
         style="fill:#ffffff;fill-opacity:1;fill-rule:nonzero;stroke:none"
         id="path899" /><path
         d="m 255.11914,-421.65625 c 0,0 -70.8667,0 -70.8667,0 0,0 0,-70.86719 0,-70.86719 0,0 70.8667,0 70.8667,0 0,0 0,70.86719 0,70.86719 z"
         style="fill:none;stroke:#000000;stroke-width:0.5;stroke-linecap:butt;stroke-linejoin:miter;stroke-miterlimit:4;stroke-dasharray:none;stroke-opacity:1"
         id="path901" /><path
         d="m 283.46484,-510.24023 c 0,0 -70.86621,0 -70.86621,0 0,0 -28.34619,17.71679 -28.34619,17.71679 0,0 70.8667,0 70.8667,0 0,0 28.3457,-17.71679 28.3457,-17.71679 z"
         style="fill:#ffffff;fill-opacity:1;fill-rule:nonzero;stroke:none"
         id="path903" /><path
         d="m 283.46484,-510.24023 c 0,0 -70.86621,0 -70.86621,0 0,0 -28.34619,17.71679 -28.34619,17.71679 0,0 70.8667,0 70.8667,0 0,0 28.3457,-17.71679 28.3457,-17.71679 z"
         style="fill:none;stroke:#000000;stroke-width:0.5;stroke-linecap:butt;stroke-linejoin:miter;stroke-miterlimit:4;stroke-dasharray:none;stroke-opacity:1"
         id="path905" /><path
         d="m 283.46484,-510.24023 c 0,0 -28.3457,17.71679 -28.3457,17.71679 0,0 0,70.86719 0,70.86719 0,0 28.3457,-17.7168 28.3457,-17.7168 0,0 0,-70.86718 0,-70.86718 z"
         style="fill:#c0c0c0;fill-opacity:1;fill-rule:nonzero;stroke:none"
         id="path907" /><path
         d="m 283.46484,-510.24023 c 0,0 -28.3457,17.71679 -28.3457,17.71679 0,0 0,70.86719 0,70.86719 0,0 28.3457,-17.7168 28.3457,-17.7168 0,0 0,-70.86718 0,-70.86718 z"
         style="fill:none;stroke:#000000;stroke-width:0.5;stroke-linecap:butt;stroke-linejoin:miter;stroke-miterlimit:4;stroke-dasharray:none;stroke-opacity:1"
         id="path909" /><path
         d="m 354.33105,-439.37256 c 0,0 -70.86621,0 -70.86621,0 0,0 0,-70.86719 0,-70.86719 0,0 70.86621,0 70.86621,0 0,0 0,70.86719 0,70.86719 z"
         style="fill:#ffffff;fill-opacity:1;fill-rule:nonzero;stroke:none"
         id="path911" /><path
         d="m 354.33105,-439.37256 c 0,0 -70.86621,0 -70.86621,0 0,0 0,-70.86719 0,-70.86719 0,0 70.86621,0 70.86621,0 0,0 0,70.86719 0,70.86719 z"
         style="fill:none;stroke:#000000;stroke-width:0.5;stroke-linecap:butt;stroke-linejoin:miter;stroke-miterlimit:4;stroke-dasharray:none;stroke-opacity:1"
         id="path913" /><path
         d="m 382.67773,-527.95654 c 0,0 -70.86718,0 -70.86718,0 0,0 -28.34571,17.71679 -28.34571,17.71679 0,0 70.86621,0 70.86621,0 0,0 28.34668,-17.71679 28.34668,-17.71679 z"
         style="fill:#ffffff;fill-opacity:1;fill-rule:nonzero;stroke:none"
         id="path915" /><path
         d="m 382.67773,-527.95654 c 0,0 -70.86718,0 -70.86718,0 0,0 -28.34571,17.71679 -28.34571,17.71679 0,0 70.86621,0 70.86621,0 0,0 28.34668,-17.71679 28.34668,-17.71679 z"
         style="fill:none;stroke:#000000;stroke-width:0.5;stroke-linecap:butt;stroke-linejoin:miter;stroke-miterlimit:4;stroke-dasharray:none;stroke-opacity:1"
         id="path917" /><path
         d="m 382.67773,-527.95654 c 0,0 -28.34668,17.71679 -28.34668,17.71679 0,0 0,70.86719 0,70.86719 0,0 28.34668,-17.7168 28.34668,-17.7168 0,0 0,-70.86718 0,-70.86718 z"
         style="fill:#c0c0c0;fill-opacity:1;fill-rule:nonzero;stroke:none"
         id="path919" /><path
         d="m 382.67773,-527.95654 c 0,0 -28.34668,17.71679 -28.34668,17.71679 0,0 0,70.86719 0,70.86719 0,0 28.34668,-17.7168 28.34668,-17.7168 0,0 0,-70.86718 0,-70.86718 z"
         style="fill:none;stroke:#000000;stroke-width:0.5;stroke-linecap:butt;stroke-linejoin:miter;stroke-miterlimit:4;stroke-dasharray:none;stroke-opacity:1"
         id="path921" /><path
         d="m 283.46484,-510.2373 c 0,0 -70.86621,0 -70.86621,0 0,0 0,-70.86719 0,-70.86719 0,0 70.86621,0 70.86621,0 0,0 0,70.86719 0,70.86719 z"
         style="fill:#ffffff;fill-opacity:1;fill-rule:nonzero;stroke:none"
         id="path923" /><path
         d="m 283.46484,-510.2373 c 0,0 -70.86621,0 -70.86621,0 0,0 0,-70.86719 0,-70.86719 0,0 70.86621,0 70.86621,0 0,0 0,70.86719 0,70.86719 z"
         style="fill:none;stroke:#000000;stroke-width:0.5;stroke-linecap:butt;stroke-linejoin:miter;stroke-miterlimit:4;stroke-dasharray:none;stroke-opacity:1"
         id="path925" /><path
         d="m 311.81152,-598.82129 c 0,0 -70.86621,0 -70.86621,0 0,0 -28.34668,17.7168 -28.34668,17.7168 0,0 70.86621,0 70.86621,0 0,0 28.34668,-17.7168 28.34668,-17.7168 z"
         style="fill:#ffffff;fill-opacity:1;fill-rule:nonzero;stroke:none"
         id="path927" /><path
         d="m 311.81152,-598.82129 c 0,0 -70.86621,0 -70.86621,0 0,0 -28.34668,17.7168 -28.34668,17.7168 0,0 70.86621,0 70.86621,0 0,0 28.34668,-17.7168 28.34668,-17.7168 z"
         style="fill:none;stroke:#000000;stroke-width:0.5;stroke-linecap:butt;stroke-linejoin:miter;stroke-miterlimit:4;stroke-dasharray:none;stroke-opacity:1"
         id="path929" /><path
         d="m 311.81152,-598.82129 c 0,0 -28.34668,17.7168 -28.34668,17.7168 0,0 0,70.86719 0,70.86719 0,0 28.34668,-17.7168 28.34668,-17.7168 0,0 0,-70.86719 0,-70.86719 z"
         style="fill:#c0c0c0;fill-opacity:1;fill-rule:nonzero;stroke:none"
         id="path931" /><path
         d="m 311.81152,-598.82129 c 0,0 -28.34668,17.7168 -28.34668,17.7168 0,0 0,70.86719 0,70.86719 0,0 28.34668,-17.7168 28.34668,-17.7168 0,0 0,-70.86719 0,-70.86719 z"
         style="fill:none;stroke:#000000;stroke-width:0.5;stroke-linecap:butt;stroke-linejoin:miter;stroke-miterlimit:4;stroke-dasharray:none;stroke-opacity:1"
         id="path933" /></g></g></svg>
