<?xml version="1.0" encoding="UTF-8" standalone="no"?>
<!DOCTYPE svg PUBLIC "-//W3C//DTD SVG 1.1//EN"
 "http://www.w3.org/Graphics/SVG/1.1/DTD/svg11.dtd">
<!-- Generated by graphviz version 2.42.3 (20191010.1750)
 -->
<!-- Title: G Pages: 1 -->
<svg width="408pt" height="321pt"
 viewBox="0.00 0.00 408.43 320.74" xmlns="http://www.w3.org/2000/svg" xmlns:xlink="http://www.w3.org/1999/xlink">
<g id="graph0" class="graph" transform="scale(1 1) rotate(0) translate(4 316.74)">
<title>G</title>
<polygon fill="white" stroke="transparent" points="-4,4 -4,-316.74 404.43,-316.74 404.43,4 -4,4"/>
<!-- Fixed Image\nReference Image -->
<g id="node1" class="node">
<title>Fixed Image\nReference Image</title>
<polygon fill="lightgreen" stroke="black" points="135.84,-131.37 132.84,-135.37 111.84,-135.37 108.84,-131.37 24.42,-131.37 24.42,-95.37 135.84,-95.37 135.84,-131.37"/>
<text text-anchor="middle" x="80.13" y="-116.17" font-family="Times,serif" font-size="14.00">Fixed Image</text>
<text text-anchor="middle" x="80.13" y="-102.17" font-family="Times,serif" font-size="14.00">Reference Image</text>
</g>
<!-- Metric\nMean Squared Error -->
<g id="node4" class="node">
<title>Metric\nMean Squared Error</title>
<ellipse fill="none" stroke="black" cx="92.13" cy="-25.46" rx="92.26" ry="25.41"/>
<text text-anchor="middle" x="92.13" y="-28.26" font-family="Times,serif" font-size="14.00">Metric</text>
<text text-anchor="middle" x="92.13" y="-14.26" font-family="Times,serif" font-size="14.00">Mean Squared Error</text>
</g>
<!-- Fixed Image\nReference Image&#45;&gt;Metric\nMean Squared Error -->
<g id="edge1" class="edge">
<title>Fixed Image\nReference Image&#45;&gt;Metric\nMean Squared Error</title>
<path fill="none" stroke="black" d="M82.56,-94.98C83.92,-85.2 85.68,-72.63 87.31,-60.94"/>
<polygon fill="black" stroke="black" points="90.79,-61.37 88.7,-50.98 83.85,-60.4 90.79,-61.37"/>
</g>
<!-- Moving Image -->
<g id="node2" class="node">
<title>Moving Image</title>
<polygon fill="lightgreen" stroke="black" points="250.45,-224.82 247.45,-228.82 226.45,-228.82 223.45,-224.82 151.81,-224.82 151.81,-188.82 250.45,-188.82 250.45,-224.82"/>
<text text-anchor="middle" x="201.13" y="-202.62" font-family="Times,serif" font-size="14.00">Moving Image</text>
</g>
<!-- Interpolator\nNearest Neighbor -->
<g id="node5" class="node">
<title>Interpolator\nNearest Neighbor</title>
<ellipse fill="none" stroke="black" cx="235.13" cy="-113.37" rx="81.32" ry="25.41"/>
<text text-anchor="middle" x="235.13" y="-116.17" font-family="Times,serif" font-size="14.00">Interpolator</text>
<text text-anchor="middle" x="235.13" y="-102.17" font-family="Times,serif" font-size="14.00">Nearest Neighbor</text>
</g>
<!-- Moving Image&#45;&gt;Interpolator\nNearest Neighbor -->
<g id="edge2" class="edge">
<title>Moving Image&#45;&gt;Interpolator\nNearest Neighbor</title>
<path fill="none" stroke="black" d="M207.52,-188.62C211.73,-177.3 217.39,-162.08 222.49,-148.38"/>
<polygon fill="black" stroke="black" points="225.86,-149.33 226.07,-138.74 219.3,-146.89 225.86,-149.33"/>
</g>
<!-- Transform -->
<g id="node3" class="node">
<title>Transform</title>
<polygon fill="yellow" stroke="black" points="343.23,-224.82 269.02,-224.82 269.02,-188.82 343.23,-188.82 343.23,-224.82"/>
<text text-anchor="middle" x="306.13" y="-202.62" font-family="Times,serif" font-size="14.00">Transform</text>
</g>
<!-- Transform&#45;&gt;Interpolator\nNearest Neighbor -->
<g id="edge3" class="edge">
<title>Transform&#45;&gt;Interpolator\nNearest Neighbor</title>
<path fill="none" stroke="black" d="M292.77,-188.62C283.57,-176.77 271.07,-160.66 260.06,-146.48"/>
<polygon fill="black" stroke="black" points="262.68,-144.15 253.78,-138.39 257.15,-148.44 262.68,-144.15"/>
<text text-anchor="middle" x="338.28" y="-159.62" font-family="Times,serif" font-size="14.00">Transform Parameters</text>
</g>
<!-- Interpolator\nNearest Neighbor&#45;&gt;Metric\nMean Squared Error -->
<g id="edge4" class="edge">
<title>Interpolator\nNearest Neighbor&#45;&gt;Metric\nMean Squared Error</title>
<path fill="none" stroke="black" d="M198.67,-90.47C180.3,-79.43 157.83,-65.93 138.27,-54.18"/>
<polygon fill="black" stroke="black" points="139.89,-51.07 129.51,-48.92 136.28,-57.07 139.89,-51.07"/>
</g>
<!-- Optimizer\nGrid Search -->
<g id="node6" class="node">
<title>Optimizer\nGrid Search</title>
<ellipse fill="none" stroke="black" cx="306.13" cy="-287.28" rx="58.74" ry="25.41"/>
<text text-anchor="middle" x="306.13" y="-290.08" font-family="Times,serif" font-size="14.00">Optimizer</text>
<text text-anchor="middle" x="306.13" y="-276.08" font-family="Times,serif" font-size="14.00">Grid Search</text>
</g>
<!-- Optimizer\nGrid Search&#45;&gt;Transform -->
<g id="edge5" class="edge">
<title>Optimizer\nGrid Search&#45;&gt;Transform</title>
<path fill="none" stroke="black" d="M306.13,-261.46C306.13,-253.12 306.13,-243.78 306.13,-235.26"/>
<polygon fill="black" stroke="black" points="309.63,-235.04 306.13,-225.04 302.63,-235.04 309.63,-235.04"/>
</g>
</g>
</svg>
