<?xml version="1.0" encoding="UTF-8" standalone="no"?>
<svg
   xmlns:dc="http://purl.org/dc/elements/1.1/"
   xmlns:cc="http://creativecommons.org/ns#"
   xmlns:rdf="http://www.w3.org/1999/02/22-rdf-syntax-ns#"
   xmlns:svg="http://www.w3.org/2000/svg"
   xmlns="http://www.w3.org/2000/svg"
   version="1.1"
   id="svg10"
   xml:space="preserve"
   width="998.86591"
   height="279.89117"
   viewBox="0 0 998.86591 279.89117"><metadata
     id="metadata16"><rdf:RDF><cc:Work
         rdf:about=""><dc:format>image/svg+xml</dc:format><dc:type
           rdf:resource="http://purl.org/dc/dcmitype/StillImage" /><dc:title></dc:title></cc:Work></rdf:RDF></metadata><defs
     id="defs14"><linearGradient
       x1="295.22656"
       y1="71.40625"
       x2="295.22656"
       y2="105.59375"
       gradientUnits="userSpaceOnUse"
       gradientTransform="matrix(0.8,0,0,0.8,-100.36222,10.1592)"
       spreadMethod="pad"
       id="linearGradient308"><stop
         style="stop-opacity:1;stop-color:#4d4d4d"
         offset="0"
         id="stop304" /><stop
         style="stop-opacity:1;stop-color:#000000"
         offset="1"
         id="stop306" /></linearGradient><linearGradient
       x1="295.22656"
       y1="71.40625"
       x2="295.22656"
       y2="105.59375"
       gradientUnits="userSpaceOnUse"
       gradientTransform="matrix(0.8,0,0,0.8,279.06635,10.1592)"
       spreadMethod="pad"
       id="linearGradient318"><stop
         style="stop-opacity:1;stop-color:#4d4d4d"
         offset="0"
         id="stop314" /><stop
         style="stop-opacity:1;stop-color:#000000"
         offset="1"
         id="stop316" /></linearGradient></defs><g
     id="g18"
     transform="matrix(1.3333333,0,0,-1.3333333,0,279.89117)"><g
       id="g20"><path
         d="M 8.035,155.907 H 92.332 V 92.868 H 8.035 Z"
         style="fill:#c0c0c0;fill-opacity:0.501961;fill-rule:nonzero;stroke:none"
         id="path22" /><g
         id="g24"
         transform="matrix(1,0,0,-1,0,209.91838)"><path
           d="m 8.035,54.012 h 84.297 v 63.039 H 8.035 Z"
           style="fill:none;stroke:#000000;stroke-width:0.742361;stroke-linecap:butt;stroke-linejoin:miter;stroke-miterlimit:4;stroke-dasharray:none;stroke-opacity:1"
           id="path26" /></g><g
         id="g28"
         transform="matrix(1,0,0,-1,0,209.91838)"><path
           d="m 53.273,85.531 c 0,1.567 -1.269,2.836 -2.835,2.836 -1.567,0 -2.833,-1.269 -2.833,-2.836 0,-1.566 1.266,-2.836 2.833,-2.836 1.566,0 2.835,1.27 2.835,2.836 z"
           style="fill:#cfff86;fill-opacity:1;fill-rule:nonzero;stroke:#0000ff;stroke-width:0.8;stroke-linecap:butt;stroke-linejoin:miter;stroke-miterlimit:4;stroke-dasharray:none;stroke-opacity:1"
           id="path30" /></g><path
         d="M 4,156.278 H 8.254 V 92.497 H 4 Z"
         style="fill:#000000;fill-opacity:1;fill-rule:nonzero;stroke:none"
         id="path32" /><path
         d="m 5.418,153.817 h 1.418 v -2.832 H 5.418 Z"
         style="fill:#ffffff;fill-opacity:1;fill-rule:nonzero;stroke:none"
         id="path34" /><path
         d="m 5.418,148.215 h 1.418 v -2.832 H 5.418 Z"
         style="fill:#ffffff;fill-opacity:1;fill-rule:nonzero;stroke:none"
         id="path36" /><path
         d="m 5.418,142.614 h 1.418 v -2.836 H 5.418 Z"
         style="fill:#ffffff;fill-opacity:1;fill-rule:nonzero;stroke:none"
         id="path38" /><path
         d="m 5.418,137.012 h 1.418 v -2.836 H 5.418 Z"
         style="fill:#ffffff;fill-opacity:1;fill-rule:nonzero;stroke:none"
         id="path40" /><path
         d="m 5.418,131.407 h 1.418 v -2.832 H 5.418 Z"
         style="fill:#ffffff;fill-opacity:1;fill-rule:nonzero;stroke:none"
         id="path42" /><path
         d="m 5.418,120.204 h 1.418 v -2.836 H 5.418 Z"
         style="fill:#ffffff;fill-opacity:1;fill-rule:nonzero;stroke:none"
         id="path44" /><path
         d="m 5.418,114.598 h 1.418 v -2.832 H 5.418 Z"
         style="fill:#ffffff;fill-opacity:1;fill-rule:nonzero;stroke:none"
         id="path46" /><path
         d="m 5.418,108.997 h 1.418 v -2.836 H 5.418 Z"
         style="fill:#ffffff;fill-opacity:1;fill-rule:nonzero;stroke:none"
         id="path48" /><path
         d="m 5.418,103.395 h 1.418 v -2.836 H 5.418 Z"
         style="fill:#ffffff;fill-opacity:1;fill-rule:nonzero;stroke:none"
         id="path50" /><path
         d="M 5.418,97.793 H 6.836 V 94.957 H 5.418 Z"
         style="fill:#ffffff;fill-opacity:1;fill-rule:nonzero;stroke:none"
         id="path52" /><path
         d="m 5.418,125.805 h 1.418 v -2.836 H 5.418 Z"
         style="fill:#ffffff;fill-opacity:1;fill-rule:nonzero;stroke:none"
         id="path54" /><path
         d="m 91.961,156.278 h 4.25 V 92.497 h -4.25 z"
         style="fill:#000000;fill-opacity:1;fill-rule:nonzero;stroke:none"
         id="path56" /><path
         d="m 93.379,153.817 h 1.414 v -2.832 h -1.414 z"
         style="fill:#ffffff;fill-opacity:1;fill-rule:nonzero;stroke:none"
         id="path58" /><path
         d="m 93.379,148.215 h 1.414 v -2.832 h -1.414 z"
         style="fill:#ffffff;fill-opacity:1;fill-rule:nonzero;stroke:none"
         id="path60" /><path
         d="m 93.379,142.614 h 1.414 v -2.836 h -1.414 z"
         style="fill:#ffffff;fill-opacity:1;fill-rule:nonzero;stroke:none"
         id="path62" /><path
         d="m 93.379,137.012 h 1.414 v -2.836 h -1.414 z"
         style="fill:#ffffff;fill-opacity:1;fill-rule:nonzero;stroke:none"
         id="path64" /><path
         d="m 93.379,131.407 h 1.414 v -2.832 h -1.414 z"
         style="fill:#ffffff;fill-opacity:1;fill-rule:nonzero;stroke:none"
         id="path66" /><path
         d="m 93.379,120.204 h 1.414 v -2.836 h -1.414 z"
         style="fill:#ffffff;fill-opacity:1;fill-rule:nonzero;stroke:none"
         id="path68" /><path
         d="m 93.379,114.598 h 1.414 v -2.832 h -1.414 z"
         style="fill:#ffffff;fill-opacity:1;fill-rule:nonzero;stroke:none"
         id="path70" /><path
         d="m 93.379,108.997 h 1.414 v -2.836 h -1.414 z"
         style="fill:#ffffff;fill-opacity:1;fill-rule:nonzero;stroke:none"
         id="path72" /><path
         d="m 93.379,103.395 h 1.414 v -2.836 h -1.414 z"
         style="fill:#ffffff;fill-opacity:1;fill-rule:nonzero;stroke:none"
         id="path74" /><path
         d="m 93.379,97.793 h 1.414 v -2.836 h -1.414 z"
         style="fill:#ffffff;fill-opacity:1;fill-rule:nonzero;stroke:none"
         id="path76" /><path
         d="m 93.379,125.805 h 1.414 v -2.836 h -1.414 z"
         style="fill:#ffffff;fill-opacity:1;fill-rule:nonzero;stroke:none"
         id="path78" /><path
         d="m 53.273,131.637 c 0,-1.566 -1.269,-2.832 -2.835,-2.832 -1.567,0 -2.833,1.266 -2.833,2.832 0,1.567 1.266,2.836 2.833,2.836 1.566,0 2.835,-1.269 2.835,-2.836 z"
         style="fill:#cfff86;fill-opacity:0.415584;fill-rule:nonzero;stroke:none"
         id="path80" /><g
         id="g82"
         transform="matrix(1,0,0,-1,0,209.91838)"><path
           d="m 53.273,78.281 c 0,1.567 -1.269,2.832 -2.835,2.832 -1.567,0 -2.833,-1.265 -2.833,-2.832 0,-1.566 1.266,-2.836 2.833,-2.836 1.566,0 2.835,1.27 2.835,2.836 z"
           style="fill:none;stroke:#0000ff;stroke-width:0.8;stroke-linecap:butt;stroke-linejoin:miter;stroke-miterlimit:4;stroke-dasharray:none;stroke-opacity:0.25974"
           id="path84" /></g><path
         d="m 53.273,138.532 c 0,-1.567 -1.269,-2.836 -2.835,-2.836 -1.567,0 -2.833,1.269 -2.833,2.836 0,1.566 1.266,2.836 2.833,2.836 1.566,0 2.835,-1.27 2.835,-2.836 z"
         style="fill:#cfff86;fill-opacity:0.415584;fill-rule:nonzero;stroke:none"
         id="path86" /><g
         id="g88"
         transform="matrix(1,0,0,-1,0,209.91838)"><path
           d="m 53.273,71.387 c 0,1.566 -1.269,2.836 -2.835,2.836 -1.567,0 -2.833,-1.27 -2.833,-2.836 0,-1.567 1.266,-2.836 2.833,-2.836 1.566,0 2.835,1.269 2.835,2.836 z"
           style="fill:none;stroke:#0000ff;stroke-width:0.8;stroke-linecap:butt;stroke-linejoin:miter;stroke-miterlimit:4;stroke-dasharray:none;stroke-opacity:0.25974"
           id="path90" /></g><path
         d="m 53.273,143.024 c 0,-1.567 -1.269,-2.832 -2.835,-2.832 -1.567,0 -2.833,1.265 -2.833,2.832 0,1.566 1.266,2.836 2.833,2.836 1.566,0 2.835,-1.27 2.835,-2.836 z"
         style="fill:#cfff86;fill-opacity:0.415584;fill-rule:nonzero;stroke:none"
         id="path92" /><g
         id="g94"
         transform="matrix(1,0,0,-1,0,209.91838)"><path
           d="m 53.273,66.895 c 0,1.566 -1.269,2.832 -2.835,2.832 -1.567,0 -2.833,-1.266 -2.833,-2.832 0,-1.567 1.266,-2.836 2.833,-2.836 1.566,0 2.835,1.269 2.835,2.836 z"
           style="fill:none;stroke:#0000ff;stroke-width:0.8;stroke-linecap:butt;stroke-linejoin:miter;stroke-miterlimit:4;stroke-dasharray:none;stroke-opacity:0.25974"
           id="path96" /></g><path
         d="m 53.273,117.161 c 0,-1.563 -1.269,-2.832 -2.835,-2.832 -1.567,0 -2.833,1.269 -2.833,2.832 0,1.566 1.266,2.836 2.833,2.836 1.566,0 2.835,-1.27 2.835,-2.836 z"
         style="fill:#cfff86;fill-opacity:0.415584;fill-rule:nonzero;stroke:none"
         id="path98" /><g
         id="g100"
         transform="matrix(1,0,0,-1,0,209.91838)"><path
           d="m 53.273,92.758 c 0,1.562 -1.269,2.832 -2.835,2.832 -1.567,0 -2.833,-1.27 -2.833,-2.832 0,-1.567 1.266,-2.836 2.833,-2.836 1.566,0 2.835,1.269 2.835,2.836 z"
           style="fill:none;stroke:#0000ff;stroke-width:0.8;stroke-linecap:butt;stroke-linejoin:miter;stroke-miterlimit:4;stroke-dasharray:none;stroke-opacity:0.25974"
           id="path102" /></g><g
         id="g104"
         transform="matrix(1,0,0,-1,0,209.91838)"><path
           d="m 568.461,53.996 h 175.746 v 62.359 H 568.461 Z"
           style="fill:#94e700;fill-opacity:1;fill-rule:nonzero;stroke:#00dd27;stroke-width:0.708661;stroke-linecap:butt;stroke-linejoin:miter;stroke-miterlimit:4;stroke-dasharray:none;stroke-opacity:1"
           id="path106" /></g><g
         id="g108"
         transform="matrix(1,0,0,-1,0,209.91838)"><path
           d="m 744.75,112.363 c 0,1.567 -1.27,2.836 -2.836,2.836 -1.566,0 -2.832,-1.269 -2.832,-2.836 0,-1.566 1.266,-2.836 2.832,-2.836 1.566,0 2.836,1.27 2.836,2.836 z"
           style="fill:#cfff86;fill-opacity:1;fill-rule:nonzero;stroke:#0000ff;stroke-width:0.8;stroke-linecap:butt;stroke-linejoin:miter;stroke-miterlimit:4;stroke-dasharray:none;stroke-opacity:1"
           id="path110" /></g><g
         id="g112"
         transform="matrix(1,0,0,-1,0,209.91838)"><path
           d="m 710.129,100.969 c 0,1.562 -1.27,2.832 -2.832,2.832 -1.567,0 -2.836,-1.27 -2.836,-2.832 0,-1.567 1.269,-2.836 2.836,-2.836 1.562,0 2.832,1.269 2.832,2.836 z"
           style="fill:#cfff86;fill-opacity:1;fill-rule:nonzero;stroke:#0000ff;stroke-width:0.8;stroke-linecap:butt;stroke-linejoin:miter;stroke-miterlimit:4;stroke-dasharray:none;stroke-opacity:1"
           id="path114" /></g><g
         id="g116"
         transform="matrix(1,0,0,-1,0,209.91838)"><path
           d="m 689.5,87.668 c 0,1.566 -1.27,2.836 -2.836,2.836 -1.566,0 -2.836,-1.27 -2.836,-2.836 0,-1.563 1.27,-2.832 2.836,-2.832 1.566,0 2.836,1.269 2.836,2.832 z"
           style="fill:#cfff86;fill-opacity:1;fill-rule:nonzero;stroke:#0000ff;stroke-width:0.8;stroke-linecap:butt;stroke-linejoin:miter;stroke-miterlimit:4;stroke-dasharray:none;stroke-opacity:1"
           id="path118" /></g><g
         id="g120"
         transform="matrix(1,0,0,-1,0,209.91838)"><path
           d="m 660.492,71.039 c 0,1.566 -1.269,2.836 -2.836,2.836 -1.566,0 -2.836,-1.27 -2.836,-2.836 0,-1.566 1.27,-2.832 2.836,-2.832 1.567,0 2.836,1.266 2.836,2.832 z"
           style="fill:#cfff86;fill-opacity:1;fill-rule:nonzero;stroke:#0000ff;stroke-width:0.8;stroke-linecap:butt;stroke-linejoin:miter;stroke-miterlimit:4;stroke-dasharray:none;stroke-opacity:1"
           id="path122" /></g><g
         id="g124"
         transform="matrix(1,0,0,-1,0,209.91838)"><path
           d="m 630.684,61.27 c 0,1.562 -1.27,2.832 -2.836,2.832 -1.567,0 -2.832,-1.27 -2.832,-2.832 0,-1.567 1.265,-2.836 2.832,-2.836 1.566,0 2.836,1.269 2.836,2.836 z"
           style="fill:#cfff86;fill-opacity:1;fill-rule:nonzero;stroke:#0000ff;stroke-width:0.8;stroke-linecap:butt;stroke-linejoin:miter;stroke-miterlimit:4;stroke-dasharray:none;stroke-opacity:1"
           id="path126" /></g><g
         id="g128"
         transform="matrix(1,0,0,-1,0,209.91838)"><path
           d="m 602.867,69.75 c 0,1.566 -1.269,2.836 -2.836,2.836 -1.566,0 -2.832,-1.27 -2.832,-2.836 0,-1.562 1.266,-2.832 2.832,-2.832 1.567,0 2.836,1.27 2.836,2.832 z"
           style="fill:#cfff86;fill-opacity:1;fill-rule:nonzero;stroke:#0000ff;stroke-width:0.8;stroke-linecap:butt;stroke-linejoin:miter;stroke-miterlimit:4;stroke-dasharray:none;stroke-opacity:1"
           id="path130" /></g><g
         id="g132"
         transform="matrix(1,0,0,-1,0,209.91838)"><path
           d="m 574.703,87.16 c 0,1.567 -1.269,2.832 -2.836,2.832 -1.566,0 -2.836,-1.265 -2.836,-2.832 0,-1.566 1.27,-2.836 2.836,-2.836 1.567,0 2.836,1.27 2.836,2.836 z"
           style="fill:#cfff86;fill-opacity:1;fill-rule:nonzero;stroke:#0000ff;stroke-width:0.8;stroke-linecap:butt;stroke-linejoin:miter;stroke-miterlimit:4;stroke-dasharray:none;stroke-opacity:1"
           id="path134" /></g><g
         id="g136"
         transform="matrix(1,0,0,-1,0,209.91838)"><path
           d="m 557.051,104.918 v 22.676 h 22.679"
           style="fill:none;stroke:#000000;stroke-width:0.354331;stroke-linecap:butt;stroke-linejoin:miter;stroke-miterlimit:4;stroke-dasharray:none;stroke-opacity:1"
           id="path138" /></g><g
         id="g140"
         transform="matrix(0,-1,-1,0,0,209.91838)"><path
           d="m 108.461,-557.051 1.418,-1.418 -4.961,1.418 4.961,1.418 z"
           style="fill:#000000;fill-opacity:1;fill-rule:evenodd;stroke:#000000;stroke-width:0.354331;stroke-linecap:butt;stroke-linejoin:miter;stroke-miterlimit:4;stroke-dasharray:none;stroke-opacity:1"
           id="path142" /></g><g
         id="g144"
         transform="matrix(-1,0,0,1,0,209.91838)"><path
           d="m -576.188,-127.594 1.418,-1.418 -4.96,1.418 4.96,1.414 z"
           style="fill:#000000;fill-opacity:1;fill-rule:evenodd;stroke:#000000;stroke-width:0.354331;stroke-linecap:butt;stroke-linejoin:miter;stroke-miterlimit:4;stroke-dasharray:none;stroke-opacity:1"
           id="path146" /></g><text
         transform="matrix(1,0,0,-1,545.71324,105.00034)"
         style="font-variant:normal;font-weight:normal;font-size:12.8px;font-family:Arial;-inkscape-font-specification:ArialMT;writing-mode:lr-tb;fill:#000000;fill-opacity:1;fill-rule:nonzero;stroke:none"
         id="text152"><tspan
           x="0"
           y="0"
           id="tspan148">y</tspan><tspan
           x="39.685032 43.230629 46.072231 56.773029"
           y="34.015743"
           id="tspan150">time</tspan></text><g
         id="g154"
         transform="matrix(1,0,0,-1,0,209.91838)"><path
           d="m 572.391,86.309 c 28.347,-17.008 38.121,-23.985 55.093,-25.075 25.946,-1.672 82.637,49.352 114.254,50.954"
           style="fill:none;stroke:#ff0000;stroke-width:0.425197;stroke-linecap:butt;stroke-linejoin:miter;stroke-miterlimit:4;stroke-dasharray:3.40158, 1.70079;stroke-dashoffset:0;stroke-opacity:1"
           id="path156" /></g><g
         id="g158"
         transform="matrix(1,0,0,-1,0,209.91838)"><path
           d="M 212.883,160.562 V 188.91 H 241.23"
           style="fill:none;stroke:#000000;stroke-width:0.399685;stroke-linecap:butt;stroke-linejoin:miter;stroke-miterlimit:4;stroke-dasharray:none;stroke-opacity:1"
           id="path160" /></g><g
         id="g162"
         transform="matrix(0,-1,-1,0,0,209.91838)"><path
           d="m 164.562,-212.883 1.598,-1.601 -5.598,1.601 5.598,1.598 z"
           style="fill:#000000;fill-opacity:1;fill-rule:evenodd;stroke:#000000;stroke-width:0.399685;stroke-linecap:butt;stroke-linejoin:miter;stroke-miterlimit:4;stroke-dasharray:none;stroke-opacity:1"
           id="path164" /></g><g
         id="g166"
         transform="matrix(-1,0,0,1,0,209.91838)"><path
           d="m -237.234,-188.91 1.597,-1.598 -5.593,1.598 5.593,1.598 z"
           style="fill:#000000;fill-opacity:1;fill-rule:evenodd;stroke:#000000;stroke-width:0.399685;stroke-linecap:butt;stroke-linejoin:miter;stroke-miterlimit:4;stroke-dasharray:none;stroke-opacity:1"
           id="path168" /></g><g
         id="g170"
         transform="matrix(1,0,0,-1,0,209.91838)"><path
           d="M 331.941,188.91 445.324,120.879"
           style="fill:none;stroke:#000000;stroke-width:0.4;stroke-linecap:butt;stroke-linejoin:miter;stroke-miterlimit:4;stroke-dasharray:none;stroke-opacity:1"
           id="path172" /></g><g
         id="g174"
         transform="matrix(-1,-0.6,-0.6,1,0,209.91838)"><path
           d="m -270.685,-285.349 1.37,-1.373 -4.8,1.374 4.801,1.373 z"
           style="fill:#000000;fill-opacity:1;fill-rule:evenodd;stroke:#000000;stroke-width:0.342997;stroke-linecap:butt;stroke-linejoin:miter;stroke-miterlimit:4;stroke-dasharray:none;stroke-opacity:1"
           id="path176" /></g><text
         transform="matrix(1,0,0,-1,235.56176,3.999999)"
         style="font-variant:normal;font-weight:normal;font-size:16px;font-family:Arial;-inkscape-font-specification:ArialMT;writing-mode:lr-tb;fill:#000000;fill-opacity:1;fill-rule:nonzero;stroke:none"
         id="text182"><tspan
           x="0"
           y="0"
           id="tspan178">x</tspan><tspan
           x="-45.942818"
           y="-41.763969"
           id="tspan180">y</tspan></text><text
         transform="matrix(1,0,0,-1,164.19167,94.708642)"
         style="font-variant:normal;font-weight:normal;font-size:12.8px;font-family:Arial;-inkscape-font-specification:ArialMT;writing-mode:lr-tb;fill:#000000;fill-opacity:1;fill-rule:nonzero;stroke:none"
         id="text192"><tspan
           x="0 7.8080001 12.0832 19.212799 29.913601 37.030399 40.576"
           y="0"
           id="tspan184">Frame 0</tspan><tspan
           x="31.546457 39.354458 43.629658 50.759258 61.460056 68.576859 72.122459"
           y="-18.607859"
           id="tspan186">Frame 1</tspan><tspan
           x="131.33228 139.14027 143.41548 150.54507 161.24588 168.36267 171.90828 181.14987 185.42508"
           y="-85.039375"
           id="tspan188">Frame N-1</tspan><tspan
           x="170.00945 177.81744 182.09265 189.22224 199.92305 207.03984 210.58545"
           y="-102.04723"
           id="tspan190">Frame N</tspan></text><text
         transform="matrix(1,0,0,-1,399.97123,38.015722)"
         style="font-variant:normal;font-weight:normal;font-size:16px;font-family:Arial;-inkscape-font-specification:ArialMT;writing-mode:lr-tb;fill:#000000;fill-opacity:1;fill-rule:nonzero;stroke:none"
         id="text196"><tspan
           x="0 4.4320002 7.9840002 21.360001"
           y="0"
           id="tspan194">time</tspan></text><g
         id="g198"
         transform="matrix(1,0,0,-0.87585,0,209.91838)"><path
           d="m 265.594,73.286 c 0,0.62 -0.508,1.128 -1.129,1.128 -0.625,0 -1.129,-0.508 -1.129,-1.128 0,-0.624 0.504,-1.128 1.129,-1.128 0.621,0 1.129,0.504 1.129,1.128 z"
           style="fill:#000000;fill-opacity:1;fill-rule:nonzero;stroke:#000000;stroke-width:0.159139;stroke-linecap:butt;stroke-linejoin:miter;stroke-miterlimit:4;stroke-dasharray:none;stroke-opacity:1"
           id="path200" /></g><g
         id="g202"
         transform="matrix(1,0,0,-0.87585,0,209.91838)"><path
           d="m 271.398,73.286 c 0,0.62 -0.503,1.128 -1.125,1.128 -0.625,0 -1.128,-0.508 -1.128,-1.128 0,-0.624 0.503,-1.128 1.128,-1.128 0.622,0 1.125,0.504 1.125,1.128 z"
           style="fill:#000000;fill-opacity:1;fill-rule:nonzero;stroke:#000000;stroke-width:0.159139;stroke-linecap:butt;stroke-linejoin:miter;stroke-miterlimit:4;stroke-dasharray:none;stroke-opacity:1"
           id="path204" /></g><g
         id="g206"
         transform="matrix(1,0,0,-0.87585,0,209.91838)"><path
           d="m 277.504,73.286 c 0,0.62 -0.504,1.128 -1.129,1.128 -0.621,0 -1.129,-0.508 -1.129,-1.128 0,-0.624 0.508,-1.128 1.129,-1.128 0.625,0 1.129,0.504 1.129,1.128 z"
           style="fill:#000000;fill-opacity:1;fill-rule:nonzero;stroke:#000000;stroke-width:0.159139;stroke-linecap:butt;stroke-linejoin:miter;stroke-miterlimit:4;stroke-dasharray:none;stroke-opacity:1"
           id="path208" /></g><path
         d="m 394.301,196.629 h 84.297 v -63.035 h -84.297 z"
         style="fill:#c0c0c0;fill-opacity:0.501961;fill-rule:nonzero;stroke:none"
         id="path210" /><g
         id="g212"
         transform="matrix(1,0,0,-1,0,209.91838)"><path
           d="m 394.301,13.289 h 84.297 v 63.035 h -84.297 z"
           style="fill:none;stroke:#00a3ff;stroke-width:0.742361;stroke-linecap:butt;stroke-linejoin:miter;stroke-miterlimit:4;stroke-dasharray:none;stroke-opacity:1"
           id="path214" /></g><g
         id="g216"
         transform="matrix(1,0,0,-1,0,209.91838)"><path
           d="m 440.266,71.566 c 0,1.567 -1.266,2.836 -2.832,2.836 -1.567,0 -2.836,-1.269 -2.836,-2.836 0,-1.562 1.269,-2.832 2.836,-2.832 1.566,0 2.832,1.27 2.832,2.832 z"
           style="fill:#cfff86;fill-opacity:1;fill-rule:nonzero;stroke:#0000ff;stroke-width:0.8;stroke-linecap:butt;stroke-linejoin:miter;stroke-miterlimit:4;stroke-dasharray:none;stroke-opacity:1"
           id="path218" /></g><path
         d="m 408.949,179.434 28.344,17.008 v -62.363 l -28.344,-17.008 z"
         style="fill:#94e700;fill-opacity:0.622093;fill-rule:nonzero;stroke:none"
         id="path220" /><path
         d="m 366.27,179.27 h 84.297 V 116.235 H 366.27 Z"
         style="fill:#c0c0c0;fill-opacity:0.501961;fill-rule:nonzero;stroke:none"
         id="path222" /><g
         id="g224"
         transform="matrix(1,0,0,-1,0,209.91838)"><path
           d="m 366.27,30.648 h 84.297 V 93.683 H 366.27 Z"
           style="fill:none;stroke:#00a3ff;stroke-width:0.742361;stroke-linecap:butt;stroke-linejoin:miter;stroke-miterlimit:4;stroke-dasharray:none;stroke-opacity:1"
           id="path226" /></g><g
         id="g228"
         transform="matrix(1,0,0,-1,0,209.91838)"><path
           d="m 405.648,80.973 c 0,1.566 -1.269,2.836 -2.836,2.836 -1.566,0 -2.835,-1.27 -2.835,-2.836 0,-1.567 1.269,-2.832 2.835,-2.832 1.567,0 2.836,1.265 2.836,2.832 z"
           style="fill:#cfff86;fill-opacity:1;fill-rule:nonzero;stroke:#0000ff;stroke-width:0.8;stroke-linecap:butt;stroke-linejoin:miter;stroke-miterlimit:4;stroke-dasharray:none;stroke-opacity:1"
           id="path230" /></g><path
         d="m 380.461,162.286 28.348,17.007 V 116.934 L 380.461,99.926 Z"
         style="fill:#94e700;fill-opacity:0.622093;fill-rule:nonzero;stroke:none"
         id="path232" /><path
         d="m 338.527,162.973 h 84.297 V 99.938 h -84.297 z"
         style="fill:#c0c0c0;fill-opacity:0.501961;fill-rule:nonzero;stroke:none"
         id="path234" /><g
         id="g236"
         transform="matrix(1,0,0,-1,0,209.91838)"><path
           d="m 338.527,46.945 h 84.297 v 63.035 h -84.297 z"
           style="fill:none;stroke:#00a3ff;stroke-width:0.742361;stroke-linecap:butt;stroke-linejoin:miter;stroke-miterlimit:4;stroke-dasharray:none;stroke-opacity:1"
           id="path238" /></g><g
         id="g240"
         transform="matrix(1,0,0,-1,0,209.91838)"><path
           d="m 385.016,80.07 c 0,1.567 -1.27,2.836 -2.832,2.836 -1.567,0 -2.836,-1.269 -2.836,-2.836 0,-1.562 1.269,-2.832 2.836,-2.832 1.562,0 2.832,1.27 2.832,2.832 z"
           style="fill:#cfff86;fill-opacity:1;fill-rule:nonzero;stroke:#0000ff;stroke-width:0.8;stroke-linecap:butt;stroke-linejoin:miter;stroke-miterlimit:4;stroke-dasharray:none;stroke-opacity:1"
           id="path242" /></g><path
         d="m 351.977,145.348 28.347,17.008 V 99.993 L 351.977,82.985 Z"
         style="fill:#94e700;fill-opacity:0.622093;fill-rule:nonzero;stroke:none"
         id="path244" /><path
         d="m 310.207,145.735 h 84.297 V 82.696 h -84.297 z"
         style="fill:#c0c0c0;fill-opacity:0.501961;fill-rule:nonzero;stroke:none"
         id="path246" /><g
         id="g248"
         transform="matrix(1,0,0,-1,0,209.91838)"><path
           d="m 310.207,64.184 h 84.297 v 63.039 h -84.297 z"
           style="fill:none;stroke:#00a3ff;stroke-width:0.742361;stroke-linecap:butt;stroke-linejoin:miter;stroke-miterlimit:4;stroke-dasharray:none;stroke-opacity:1"
           id="path250" /></g><g
         id="g252"
         transform="matrix(1,0,0,-1,0,209.91838)"><path
           d="m 356.008,80.871 c 0,1.567 -1.27,2.836 -2.832,2.836 -1.567,0 -2.836,-1.269 -2.836,-2.836 0,-1.566 1.269,-2.832 2.836,-2.832 1.562,0 2.832,1.266 2.832,2.832 z"
           style="fill:#cfff86;fill-opacity:1;fill-rule:nonzero;stroke:#0000ff;stroke-width:0.8;stroke-linecap:butt;stroke-linejoin:miter;stroke-miterlimit:4;stroke-dasharray:none;stroke-opacity:1"
           id="path254" /></g><path
         d="m 323.699,128.411 28.348,17.007 V 83.055 L 323.699,66.047 Z"
         style="fill:#94e700;fill-opacity:0.622093;fill-rule:nonzero;stroke:none"
         id="path256" /><path
         d="m 281.664,128.657 h 84.297 V 65.622 h -84.297 z"
         style="fill:#c0c0c0;fill-opacity:0.501961;fill-rule:nonzero;stroke:none"
         id="path258" /><g
         id="g260"
         transform="matrix(1,0,0,-1,0,209.91838)"><path
           d="m 281.664,81.262 h 84.297 v 63.035 h -84.297 z"
           style="fill:none;stroke:#00a3ff;stroke-width:0.742361;stroke-linecap:butt;stroke-linejoin:miter;stroke-miterlimit:4;stroke-dasharray:none;stroke-opacity:1"
           id="path262" /></g><g
         id="g264"
         transform="matrix(1,0,0,-1,0,209.91838)"><path
           d="m 326.199,89.012 c 0,1.562 -1.265,2.832 -2.832,2.832 -1.566,0 -2.836,-1.27 -2.836,-2.832 0,-1.567 1.27,-2.836 2.836,-2.836 1.567,0 2.832,1.269 2.832,2.836 z"
           style="fill:#cfff86;fill-opacity:1;fill-rule:nonzero;stroke:#0000ff;stroke-width:0.8;stroke-linecap:butt;stroke-linejoin:miter;stroke-miterlimit:4;stroke-dasharray:none;stroke-opacity:1"
           id="path266" /></g><path
         d="m 295.285,112.2 28.348,17.011 V 66.848 L 295.285,49.84 Z"
         style="fill:#94e700;fill-opacity:0.622093;fill-rule:nonzero;stroke:none"
         id="path268" /><path
         d="m 253.438,112.039 h 84.297 V 49 h -84.297 z"
         style="fill:#c0c0c0;fill-opacity:0.501961;fill-rule:nonzero;stroke:none"
         id="path270" /><g
         id="g272"
         transform="matrix(1,0,0,-1,0,209.91838)"><path
           d="m 253.438,97.879 h 84.297 v 63.039 h -84.297 z"
           style="fill:none;stroke:#00a3ff;stroke-width:0.742361;stroke-linecap:butt;stroke-linejoin:miter;stroke-miterlimit:4;stroke-dasharray:none;stroke-opacity:1"
           id="path274" /></g><g
         id="g276"
         transform="matrix(1,0,0,-1,0,209.91838)"><path
           d="m 298.383,114.207 c 0,1.566 -1.266,2.836 -2.832,2.836 -1.567,0 -2.836,-1.27 -2.836,-2.836 0,-1.566 1.269,-2.836 2.836,-2.836 1.566,0 2.832,1.27 2.832,2.836 z"
           style="fill:#cfff86;fill-opacity:1;fill-rule:nonzero;stroke:#0000ff;stroke-width:0.8;stroke-linecap:butt;stroke-linejoin:miter;stroke-miterlimit:4;stroke-dasharray:none;stroke-opacity:1"
           id="path278" /></g><path
         d="m 266.625,94.707 28.344,17.008 V 49.356 L 266.625,32.348 Z"
         style="fill:#94e700;fill-opacity:0.622093;fill-rule:nonzero;stroke:none"
         id="path280" /><path
         d="m 225.172,95.137 h 84.297 V 32.102 h -84.297 z"
         style="fill:#c0c0c0;fill-opacity:0.501961;fill-rule:nonzero;stroke:none"
         id="path282" /><g
         id="g284"
         transform="matrix(1,0,0,-1,0,209.91838)"><path
           d="m 225.172,114.781 h 84.297 v 63.035 h -84.297 z"
           style="fill:none;stroke:#00a3ff;stroke-width:0.742361;stroke-linecap:butt;stroke-linejoin:miter;stroke-miterlimit:4;stroke-dasharray:none;stroke-opacity:1"
           id="path286" /></g><g
         id="g288"
         transform="matrix(1,0,0,-1,0,209.91838)"><path
           d="m 270.219,148.539 c 0,1.563 -1.27,2.832 -2.832,2.832 -1.567,0 -2.836,-1.269 -2.836,-2.832 0,-1.566 1.269,-2.836 2.836,-2.836 1.562,0 2.832,1.27 2.832,2.836 z"
           style="fill:#cfff86;fill-opacity:1;fill-rule:nonzero;stroke:#0000ff;stroke-width:0.8;stroke-linecap:butt;stroke-linejoin:miter;stroke-miterlimit:4;stroke-dasharray:none;stroke-opacity:1"
           id="path290" /></g><g
         id="g292"
         transform="matrix(1,0,0,-1,0,209.91838)"><path
           d="M 266.309,115.211 437.258,13.164 V 75.523 L 266.379,177.57 Z"
           style="fill:none;stroke:#000000;stroke-width:0.212598;stroke-linecap:butt;stroke-linejoin:miter;stroke-miterlimit:4;stroke-dasharray:1.70079, 1.70079;stroke-dashoffset:0;stroke-opacity:1"
           id="path294" /></g><text
         transform="matrix(1,0,0,-1,32.963037,168.83242)"
         style="font-variant:normal;font-weight:normal;font-size:16px;font-family:'Bitstream Vera Sans';-inkscape-font-specification:BitstreamVeraSans-Roman;writing-mode:lr-tb;fill:#000000;fill-opacity:1;fill-rule:nonzero;stroke:none"
         id="text300"><tspan
           x="0 13.792 23.568001 33.023998 37.456001"
           y="0"
           id="tspan296">Movie</tspan><tspan
           x="558.95422 568.21826 572.65027 588.23425 598.07422 603.85022 612.17023 622.31427 632.12225 640.92224 650.76227 655.83423 660.26624 675.85022 685.65826 695.80225"
           y="-3.1796639"
           id="tspan298">Time-space image</tspan></text><g
         id="g302"><path
           d="m 153.82,128.957 -18.875,13.676 v -9.078 H 117.82 v -9.191 h 17.125 v -9.078 z"
           style="fill:url(#linearGradient308);fill-opacity:1;fill-rule:nonzero;stroke:none"
           id="path310" /></g><g
         id="g312"><path
           d="m 497.25,124.364 h 17.125 v -9.078 l 18.875,13.671 -18.875,13.676 v -9.078 H 497.25 Z"
           style="fill:url(#linearGradient318);fill-opacity:1;fill-rule:nonzero;stroke:none"
           id="path320" /></g></g></g></svg>
